<?xml version="1.0" encoding="UTF-8" standalone="no"?>
<!DOCTYPE svg PUBLIC "-//W3C//DTD SVG 1.1//EN"
 "http://www.w3.org/Graphics/SVG/1.1/DTD/svg11.dtd">
<!-- Generated by graphviz version 14.1.2 (20260124.0452)
 -->
<!-- Title: AutoMergeMedic — System Architecture Pages: 1 -->
<svg width="3329pt" height="4096pt"
 viewBox="0.00 0.00 3329.00 4096.00" xmlns="http://www.w3.org/2000/svg" xmlns:xlink="http://www.w3.org/1999/xlink">
<g id="graph0" class="graph" transform="scale(2.08333 2.08333) rotate(0) translate(57.6 1908.6)">
<title>AutoMergeMedic — System Architecture</title>
<polygon fill="#ffffff" stroke="none" points="-57.6,57.6 -57.6,-1908.6 1540.35,-1908.6 1540.35,57.6 -57.6,57.6"/>
<text xml:space="preserve" text-anchor="middle" x="741.38" y="-9" font-family="Helvetica Neue" font-size="20.00" fill="#2d3436">AutoMergeMedic — System Architecture</text>
<g id="clust1" class="cluster">
<title>cluster_Event Sources</title>
<path fill="#0984e3" stroke="#aeb6be" d="M796.35,-751C796.35,-751 889.15,-751 889.15,-751 895.15,-751 901.15,-757 901.15,-763 901.15,-763 901.15,-1393 901.15,-1393 901.15,-1399 895.15,-1405 889.15,-1405 889.15,-1405 796.35,-1405 796.35,-1405 790.35,-1405 784.35,-1399 784.35,-1393 784.35,-1393 784.35,-763 784.35,-763 784.35,-757 790.35,-751 796.35,-751"/>
<text xml:space="preserve" text-anchor="middle" x="836.98" y="-1387.7" font-family="Helvetica Neue" font-size="14.00" fill="#2d3436">Event Sources</text>
</g>
<g id="clust2" class="cluster">
<title>cluster_Routing Layer</title>
<path fill="#6c5ce7" stroke="#aeb6be" d="M20,-751C20,-751 322.6,-751 322.6,-751 328.6,-751 334.6,-757 334.6,-763 334.6,-763 334.6,-945 334.6,-945 334.6,-951 328.6,-957 322.6,-957 322.6,-957 20,-957 20,-957 14,-957 8,-951 8,-945 8,-945 8,-763 8,-763 8,-757 14,-751 20,-751"/>
<text xml:space="preserve" text-anchor="middle" x="59.12" y="-939.7" font-family="Helvetica Neue" font-size="14.00" fill="#2d3436">Routing Layer</text>
</g>
<g id="clust3" class="cluster">
<title>cluster_Event Processing</title>
<path fill="#00b894" stroke="#aeb6be" d="M498.6,-109C498.6,-109 597.85,-109 597.85,-109 603.85,-109 609.85,-115 609.85,-121 609.85,-121 609.85,-303 609.85,-303 609.85,-309 603.85,-315 597.85,-315 597.85,-315 498.6,-315 498.6,-315 492.6,-315 486.6,-309 486.6,-303 486.6,-303 486.6,-121 486.6,-121 486.6,-115 492.6,-109 498.6,-109"/>
<text xml:space="preserve" text-anchor="middle" x="548.23" y="-297.7" font-family="Helvetica Neue" font-size="14.00" fill="#2d3436">Event Processing</text>
</g>
<g id="clust4" class="cluster">
<title>cluster_Data Store</title>
<path fill="#fdcb6e" stroke="#aeb6be" d="M796.35,-112C796.35,-112 889.15,-112 889.15,-112 895.15,-112 901.15,-118 901.15,-124 901.15,-124 901.15,-530 901.15,-530 901.15,-536 895.15,-542 889.15,-542 889.15,-542 796.35,-542 796.35,-542 790.35,-542 784.35,-536 784.35,-530 784.35,-530 784.35,-124 784.35,-124 784.35,-118 790.35,-112 796.35,-112"/>
<text xml:space="preserve" text-anchor="middle" x="825.73" y="-524.7" font-family="Helvetica Neue" font-size="14.00" fill="#2d3436">Data Store</text>
</g>
<g id="clust5" class="cluster">
<title>cluster_Self&#45;Healing Engine</title>
<path fill="#d63031" stroke="#aeb6be" d="M796.35,-1413C796.35,-1413 1462.75,-1413 1462.75,-1413 1468.75,-1413 1474.75,-1419 1474.75,-1425 1474.75,-1425 1474.75,-1831 1474.75,-1831 1474.75,-1837 1468.75,-1843 1462.75,-1843 1462.75,-1843 796.35,-1843 796.35,-1843 790.35,-1843 784.35,-1837 784.35,-1831 784.35,-1831 784.35,-1425 784.35,-1425 784.35,-1419 790.35,-1413 796.35,-1413"/>
<text xml:space="preserve" text-anchor="middle" x="853.1" y="-1825.7" font-family="Helvetica Neue" font-size="14.00" fill="#2d3436">Self&#45;Healing Engine</text>
</g>
<g id="clust6" class="cluster">
<title>cluster_Bot Ecosystem</title>
<path fill="#636e72" stroke="#aeb6be" d="M501.33,-333C501.33,-333 594.13,-333 594.13,-333 600.13,-333 606.13,-339 606.13,-345 606.13,-345 606.13,-1169 606.13,-1169 606.13,-1175 600.13,-1181 594.13,-1181 594.13,-1181 501.33,-1181 501.33,-1181 495.33,-1181 489.33,-1175 489.33,-1169 489.33,-1169 489.33,-345 489.33,-345 489.33,-339 495.33,-333 501.33,-333"/>
<text xml:space="preserve" text-anchor="middle" x="544.58" y="-1163.7" font-family="Helvetica Neue" font-size="14.00" fill="#2d3436">Bot Ecosystem</text>
</g>
<!-- 301892441d7e4f90af0fc06351e987b7 -->
<g id="node1" class="node">
<title>301892441d7e4f90af0fc06351e987b7</title>
<image xlink:href="/Users/dannytrevino/development/AutoMergeMedic/.venv/lib/python3.13/site-packages/resources/onprem/vcs/github.png" width="100.8px" height="100.8px" preserveAspectRatio="xMinYMin meet" x="792.35" y="-892.4"/>
<text xml:space="preserve" text-anchor="middle" x="842.75" y="-775.75" font-family="Helvetica Neue" font-size="11.00" fill="#2d3436">GitHub</text>
<text xml:space="preserve" text-anchor="middle" x="842.75" y="-762.25" font-family="Helvetica Neue" font-size="11.00" fill="#2d3436">Webhooks</text>
</g>
<!-- 961b5540b272438d9df2442b48806cd0 -->
<g id="node5" class="node">
<title>961b5540b272438d9df2442b48806cd0</title>
<image xlink:href="/Users/dannytrevino/development/AutoMergeMedic/.venv/lib/python3.13/site-packages/resources/aws/compute/lambda.png" width="100.8px" height="100.8px" preserveAspectRatio="xMinYMin meet" x="225.8" y="-892.4"/>
<text xml:space="preserve" text-anchor="middle" x="276.2" y="-775.75" font-family="Helvetica Neue" font-size="11.00" fill="#2d3436">Car Bridge</text>
<text xml:space="preserve" text-anchor="middle" x="276.2" y="-762.25" font-family="Helvetica Neue" font-size="11.00" fill="#2d3436">(Router)</text>
</g>
<!-- 301892441d7e4f90af0fc06351e987b7&#45;&gt;961b5540b272438d9df2442b48806cd0 -->
<g id="edge1" class="edge">
<title>301892441d7e4f90af0fc06351e987b7&#45;&gt;961b5540b272438d9df2442b48806cd0</title>
<path fill="none" stroke="#0984e3" d="M867.75,-924.72C867.75,-938.81 867.75,-949 867.75,-949 867.75,-949 292.75,-949 292.75,-949 292.75,-949 292.75,-936.23 292.75,-936.23"/>
<polygon fill="#0984e3" stroke="#0984e3" points="296.25,-936.23 292.75,-926.23 289.25,-936.23 296.25,-936.23"/>
<text xml:space="preserve" text-anchor="middle" x="547.73" y="-1266.15" font-family="Sans-Serif" font-size="13.00" fill="#2d3436">webhook</text>
</g>
<!-- a8da922d5518447a8ebefc746ec33206 -->
<g id="node2" class="node">
<title>a8da922d5518447a8ebefc746ec33206</title>
<image xlink:href="/Users/dannytrevino/development/AutoMergeMedic/.venv/lib/python3.13/site-packages/resources/onprem/vcs/github.png" width="100.8px" height="100.8px" preserveAspectRatio="xMinYMin meet" x="792.35" y="-1340.4"/>
<text xml:space="preserve" text-anchor="middle" x="842.75" y="-1223.75" font-family="Helvetica Neue" font-size="11.00" fill="#2d3436">PR Comments</text>
<text xml:space="preserve" text-anchor="middle" x="842.75" y="-1210.25" font-family="Helvetica Neue" font-size="11.00" fill="#2d3436">/rebuild /merge</text>
</g>
<!-- 2dab13b89f5b4d2f8164f7814c9727fb -->
<g id="node4" class="node">
<title>2dab13b89f5b4d2f8164f7814c9727fb</title>
<image xlink:href="/Users/dannytrevino/development/AutoMergeMedic/.venv/lib/python3.13/site-packages/resources/aws/integration/simple-queue-service-sqs.png" width="100.8px" height="100.8px" preserveAspectRatio="xMinYMin meet" x="16" y="-892.4"/>
<text xml:space="preserve" text-anchor="middle" x="66.4" y="-775.75" font-family="Helvetica Neue" font-size="11.00" fill="#2d3436">Command</text>
<text xml:space="preserve" text-anchor="middle" x="66.4" y="-762.25" font-family="Helvetica Neue" font-size="11.00" fill="#2d3436">Queue</text>
</g>
<!-- a8da922d5518447a8ebefc746ec33206&#45;&gt;2dab13b89f5b4d2f8164f7814c9727fb -->
<g id="edge2" class="edge">
<title>a8da922d5518447a8ebefc746ec33206&#45;&gt;2dab13b89f5b4d2f8164f7814c9727fb</title>
<path fill="none" stroke="#0984e3" d="M792.43,-1290C620.47,-1290 66.75,-1290 66.75,-1290 66.75,-1290 66.75,-936.21 66.75,-936.21"/>
<polygon fill="#0984e3" stroke="#0984e3" points="70.25,-936.21 66.75,-926.21 63.25,-936.21 70.25,-936.21"/>
<text xml:space="preserve" text-anchor="middle" x="410.6" y="-1486.15" font-family="Sans-Serif" font-size="13.00" fill="#2d3436">slash cmd</text>
</g>
<!-- 0438a3c035a84dc9b084d9eaeabafca1 -->
<g id="node3" class="node">
<title>0438a3c035a84dc9b084d9eaeabafca1</title>
<image xlink:href="/Users/dannytrevino/development/AutoMergeMedic/.venv/lib/python3.13/site-packages/resources/aws/network/api-gateway.png" width="100.8px" height="100.8px" preserveAspectRatio="xMinYMin meet" x="792.35" y="-1116.4"/>
<text xml:space="preserve" text-anchor="middle" x="842.75" y="-999.75" font-family="Helvetica Neue" font-size="11.00" fill="#2d3436">Admin API</text>
<text xml:space="preserve" text-anchor="middle" x="842.75" y="-986.25" font-family="Helvetica Neue" font-size="11.00" fill="#2d3436">Gateway</text>
</g>
<!-- 0438a3c035a84dc9b084d9eaeabafca1&#45;&gt;2dab13b89f5b4d2f8164f7814c9727fb -->
<g id="edge3" class="edge">
<title>0438a3c035a84dc9b084d9eaeabafca1&#45;&gt;2dab13b89f5b4d2f8164f7814c9727fb</title>
<path fill="none" stroke="#0984e3" d="M817.75,-983.26C817.75,-979.06 817.75,-976.53 817.75,-976.53 817.75,-976.53 91.75,-976.53 91.75,-976.53 91.75,-976.53 91.75,-936.03 91.75,-936.03"/>
<polygon fill="#0984e3" stroke="#0984e3" points="95.25,-936.03 91.75,-926.03 88.25,-936.03 95.25,-936.03"/>
<text xml:space="preserve" text-anchor="middle" x="410.6" y="-1368.15" font-family="Sans-Serif" font-size="13.00" fill="#2d3436">command</text>
</g>
<!-- 2dab13b89f5b4d2f8164f7814c9727fb&#45;&gt;961b5540b272438d9df2442b48806cd0 -->
<g id="edge4" class="edge">
<title>2dab13b89f5b4d2f8164f7814c9727fb&#45;&gt;961b5540b272438d9df2442b48806cd0</title>
<path fill="none" stroke="#6c5ce7" d="M116.65,-842C116.65,-842 214.48,-842 214.48,-842"/>
<polygon fill="#6c5ce7" stroke="#6c5ce7" points="214.48,-845.5 224.48,-842 214.48,-838.5 214.48,-845.5"/>
</g>
<!-- fae23205111346058984238b1be875b9 -->
<g id="node6" class="node">
<title>fae23205111346058984238b1be875b9</title>
<image xlink:href="/Users/dannytrevino/development/AutoMergeMedic/.venv/lib/python3.13/site-packages/resources/aws/compute/lambda.png" width="100.8px" height="100.8px" preserveAspectRatio="xMinYMin meet" x="497.325" y="-250.4"/>
<text xml:space="preserve" text-anchor="middle" x="547.73" y="-133.75" font-family="Helvetica Neue" font-size="11.00" fill="#2d3436">Event</text>
<text xml:space="preserve" text-anchor="middle" x="547.73" y="-120.25" font-family="Helvetica Neue" font-size="11.00" fill="#2d3436">Processor</text>
</g>
<!-- 961b5540b272438d9df2442b48806cd0&#45;&gt;fae23205111346058984238b1be875b9 -->
<g id="edge5" class="edge">
<title>961b5540b272438d9df2442b48806cd0&#45;&gt;fae23205111346058984238b1be875b9</title>
<path fill="none" stroke="#00b894" d="M250.75,-759.38C250.75,-585.99 250.75,-200 250.75,-200 250.75,-200 485.83,-200 485.83,-200"/>
<polygon fill="#00b894" stroke="#00b894" points="485.83,-203.5 495.83,-200 485.83,-196.5 485.83,-203.5"/>
<text xml:space="preserve" text-anchor="middle" x="410.6" y="-340.15" font-family="Sans-Serif" font-size="13.00" fill="#2d3436">events</text>
</g>
<!-- ae40180a1c884d2caa299a85cb78f498 -->
<g id="node13" class="node">
<title>ae40180a1c884d2caa299a85cb78f498</title>
<image xlink:href="/Users/dannytrevino/development/AutoMergeMedic/.venv/lib/python3.13/site-packages/resources/onprem/ci/jenkins.png" width="100.8px" height="100.8px" preserveAspectRatio="xMinYMin meet" x="497.325" y="-459.4"/>
<text xml:space="preserve" text-anchor="middle" x="547.73" y="-343.65" font-family="Helvetica Neue" font-size="11.00" fill="#2d3436">Jenkins CI</text>
</g>
<!-- 961b5540b272438d9df2442b48806cd0&#45;&gt;ae40180a1c884d2caa299a85cb78f498 -->
<g id="edge8" class="edge">
<title>961b5540b272438d9df2442b48806cd0&#45;&gt;ae40180a1c884d2caa299a85cb78f498</title>
<path fill="none" stroke="#636e72" d="M275.75,-759.28C275.75,-633.6 275.75,-409 275.75,-409 275.75,-409 486.01,-409 486.01,-409"/>
<polygon fill="#636e72" stroke="#636e72" points="486.01,-412.5 496.01,-409 486.01,-405.5 486.01,-412.5"/>
<text xml:space="preserve" text-anchor="middle" x="410.6" y="-549.15" font-family="Sans-Serif" font-size="13.00" fill="#2d3436">/rebuild</text>
</g>
<!-- 7b9a8d2540834faa823d8a478320c3aa -->
<g id="node14" class="node">
<title>7b9a8d2540834faa823d8a478320c3aa</title>
<image xlink:href="/Users/dannytrevino/development/AutoMergeMedic/.venv/lib/python3.13/site-packages/resources/aws/compute/lambda.png" width="100.8px" height="100.8px" preserveAspectRatio="xMinYMin meet" x="497.325" y="-1116.4"/>
<text xml:space="preserve" text-anchor="middle" x="547.73" y="-999.75" font-family="Helvetica Neue" font-size="11.00" fill="#2d3436">Policy</text>
<text xml:space="preserve" text-anchor="middle" x="547.73" y="-986.25" font-family="Helvetica Neue" font-size="11.00" fill="#2d3436">Bot</text>
</g>
<!-- 961b5540b272438d9df2442b48806cd0&#45;&gt;7b9a8d2540834faa823d8a478320c3aa -->
<g id="edge9" class="edge">
<title>961b5540b272438d9df2442b48806cd0&#45;&gt;7b9a8d2540834faa823d8a478320c3aa</title>
<path fill="none" stroke="#636e72" d="M259.75,-924.77C259.75,-988.58 259.75,-1066 259.75,-1066 259.75,-1066 486.05,-1066 486.05,-1066"/>
<polygon fill="#636e72" stroke="#636e72" points="486.05,-1069.5 496.05,-1066 486.05,-1062.5 486.05,-1069.5"/>
<text xml:space="preserve" text-anchor="middle" x="410.6" y="-993.15" font-family="Sans-Serif" font-size="13.00" fill="#2d3436">/recheck</text>
</g>
<!-- a236c2f8d9774fc5a3d1fba440357074 -->
<g id="node15" class="node">
<title>a236c2f8d9774fc5a3d1fba440357074</title>
<image xlink:href="/Users/dannytrevino/development/AutoMergeMedic/.venv/lib/python3.13/site-packages/resources/aws/compute/lambda.png" width="100.8px" height="100.8px" preserveAspectRatio="xMinYMin meet" x="497.325" y="-892.4"/>
<text xml:space="preserve" text-anchor="middle" x="547.73" y="-775.75" font-family="Helvetica Neue" font-size="11.00" fill="#2d3436">Approver</text>
<text xml:space="preserve" text-anchor="middle" x="547.73" y="-762.25" font-family="Helvetica Neue" font-size="11.00" fill="#2d3436">Bot</text>
</g>
<!-- 961b5540b272438d9df2442b48806cd0&#45;&gt;a236c2f8d9774fc5a3d1fba440357074 -->
<g id="edge10" class="edge">
<title>961b5540b272438d9df2442b48806cd0&#45;&gt;a236c2f8d9774fc5a3d1fba440357074</title>
<path fill="none" stroke="#636e72" d="M326.32,-842C326.32,-842 485.93,-842 485.93,-842"/>
<polygon fill="#636e72" stroke="#636e72" points="485.93,-845.5 495.93,-842 485.93,-838.5 485.93,-845.5"/>
<text xml:space="preserve" text-anchor="middle" x="410.6" y="-843.15" font-family="Sans-Serif" font-size="13.00" fill="#2d3436">/approve</text>
</g>
<!-- bcba7f1d06404d079f33672c626adcea -->
<g id="node16" class="node">
<title>bcba7f1d06404d079f33672c626adcea</title>
<image xlink:href="/Users/dannytrevino/development/AutoMergeMedic/.venv/lib/python3.13/site-packages/resources/aws/compute/lambda.png" width="100.8px" height="100.8px" preserveAspectRatio="xMinYMin meet" x="497.325" y="-668.4"/>
<text xml:space="preserve" text-anchor="middle" x="547.73" y="-551.75" font-family="Helvetica Neue" font-size="11.00" fill="#2d3436">Automerge</text>
<text xml:space="preserve" text-anchor="middle" x="547.73" y="-538.25" font-family="Helvetica Neue" font-size="11.00" fill="#2d3436">Bot</text>
</g>
<!-- 961b5540b272438d9df2442b48806cd0&#45;&gt;bcba7f1d06404d079f33672c626adcea -->
<g id="edge11" class="edge">
<title>961b5540b272438d9df2442b48806cd0&#45;&gt;bcba7f1d06404d079f33672c626adcea</title>
<path fill="none" stroke="#636e72" d="M301.75,-759.23C301.75,-695.42 301.75,-618 301.75,-618 301.75,-618 485.84,-618 485.84,-618"/>
<polygon fill="#636e72" stroke="#636e72" points="485.84,-621.5 495.84,-618 485.84,-614.5 485.84,-621.5"/>
<text xml:space="preserve" text-anchor="middle" x="410.6" y="-692.15" font-family="Sans-Serif" font-size="13.00" fill="#2d3436">/merge</text>
</g>
<!-- 58a38eb838884d3588a0c7b9ab08f31f -->
<g id="node7" class="node">
<title>58a38eb838884d3588a0c7b9ab08f31f</title>
<image xlink:href="/Users/dannytrevino/development/AutoMergeMedic/.venv/lib/python3.13/site-packages/resources/generic/database/sql.png" width="100.8px" height="100.8px" preserveAspectRatio="xMinYMin meet" x="792.35" y="-477.4"/>
<text xml:space="preserve" text-anchor="middle" x="842.75" y="-360.75" font-family="Helvetica Neue" font-size="11.00" fill="#2d3436">PR State</text>
<text xml:space="preserve" text-anchor="middle" x="842.75" y="-347.25" font-family="Helvetica Neue" font-size="11.00" fill="#2d3436">Table</text>
</g>
<!-- fae23205111346058984238b1be875b9&#45;&gt;58a38eb838884d3588a0c7b9ab08f31f -->
<g id="edge6" class="edge">
<title>fae23205111346058984238b1be875b9&#45;&gt;58a38eb838884d3588a0c7b9ab08f31f</title>
<path fill="none" stroke="#fdcb6e" d="M547.75,-282.57C547.75,-299.98 547.75,-313.2 547.75,-313.2 547.75,-313.2 842.75,-313.2 842.75,-313.2 842.75,-313.2 842.75,-332.78 842.75,-332.78"/>
<polygon fill="#fdcb6e" stroke="#fdcb6e" points="839.25,-332.78 842.75,-342.78 846.25,-332.78 839.25,-332.78"/>
<text xml:space="preserve" text-anchor="middle" x="697.1" y="-367.15" font-family="Sans-Serif" font-size="13.00" fill="#2d3436">update</text>
</g>
<!-- 592ac1c6640f42debeb9dc10ae2a7ec2 -->
<g id="node8" class="node">
<title>592ac1c6640f42debeb9dc10ae2a7ec2</title>
<image xlink:href="/Users/dannytrevino/development/AutoMergeMedic/.venv/lib/python3.13/site-packages/resources/generic/database/sql.png" width="100.8px" height="100.8px" preserveAspectRatio="xMinYMin meet" x="792.35" y="-253.4"/>
<text xml:space="preserve" text-anchor="middle" x="842.75" y="-136.75" font-family="Helvetica Neue" font-size="11.00" fill="#2d3436">PR Events</text>
<text xml:space="preserve" text-anchor="middle" x="842.75" y="-123.25" font-family="Helvetica Neue" font-size="11.00" fill="#2d3436">Table</text>
</g>
<!-- fae23205111346058984238b1be875b9&#45;&gt;592ac1c6640f42debeb9dc10ae2a7ec2 -->
<g id="edge7" class="edge">
<title>fae23205111346058984238b1be875b9&#45;&gt;592ac1c6640f42debeb9dc10ae2a7ec2</title>
<path fill="none" stroke="#fdcb6e" d="M598.11,-201.5C598.11,-201.5 781.06,-201.5 781.06,-201.5"/>
<polygon fill="#fdcb6e" stroke="#fdcb6e" points="781.06,-205 791.06,-201.5 781.06,-198 781.06,-205"/>
<text xml:space="preserve" text-anchor="middle" x="697.1" y="-202.15" font-family="Sans-Serif" font-size="13.00" fill="#2d3436">append</text>
</g>
<!-- 3740851bc074456a9ec281b94a32cab2 -->
<g id="node10" class="node">
<title>3740851bc074456a9ec281b94a32cab2</title>
<image xlink:href="/Users/dannytrevino/development/AutoMergeMedic/.venv/lib/python3.13/site-packages/resources/aws/compute/lambda.png" width="100.8px" height="100.8px" preserveAspectRatio="xMinYMin meet" x="1096.4" y="-1539.4"/>
<text xml:space="preserve" text-anchor="middle" x="1146.8" y="-1423.65" font-family="Helvetica Neue" font-size="11.00" fill="#2d3436">Reconciler</text>
</g>
<!-- 58a38eb838884d3588a0c7b9ab08f31f&#45;&gt;3740851bc074456a9ec281b94a32cab2 -->
<g id="edge13" class="edge">
<title>58a38eb838884d3588a0c7b9ab08f31f&#45;&gt;3740851bc074456a9ec281b94a32cab2</title>
<path fill="none" stroke="#d63031" stroke-dasharray="5,2" d="M892.95,-427C973.28,-427 1121.75,-427 1121.75,-427 1121.75,-427 1121.75,-1409.44 1121.75,-1409.44"/>
<polygon fill="#d63031" stroke="#d63031" points="1118.25,-1409.44 1121.75,-1419.44 1125.25,-1409.44 1118.25,-1409.44"/>
<text xml:space="preserve" text-anchor="middle" x="994.78" y="-920.15" font-family="Sans-Serif" font-size="13.00" fill="#2d3436">reads stale PRs</text>
</g>
<!-- e75f19d5761f48efbf75a59db6ea5970 -->
<g id="node9" class="node">
<title>e75f19d5761f48efbf75a59db6ea5970</title>
<image xlink:href="/Users/dannytrevino/development/AutoMergeMedic/.venv/lib/python3.13/site-packages/resources/aws/integration/eventbridge.png" width="100.8px" height="100.8px" preserveAspectRatio="xMinYMin meet" x="792.35" y="-1549.4"/>
<text xml:space="preserve" text-anchor="middle" x="842.75" y="-1433.65" font-family="Helvetica Neue" font-size="11.00" fill="#2d3436">Scheduler</text>
</g>
<!-- e75f19d5761f48efbf75a59db6ea5970&#45;&gt;3740851bc074456a9ec281b94a32cab2 -->
<g id="edge12" class="edge">
<title>e75f19d5761f48efbf75a59db6ea5970&#45;&gt;3740851bc074456a9ec281b94a32cab2</title>
<path fill="none" stroke="#d63031" d="M892.96,-1494C892.96,-1494 1085,-1494 1085,-1494"/>
<polygon fill="#d63031" stroke="#d63031" points="1085,-1497.5 1095,-1494 1085,-1490.5 1085,-1497.5"/>
<text xml:space="preserve" text-anchor="middle" x="994.78" y="-1495.15" font-family="Sans-Serif" font-size="13.00" fill="#2d3436">triggers</text>
</g>
<!-- 3740851bc074456a9ec281b94a32cab2&#45;&gt;2dab13b89f5b4d2f8164f7814c9727fb -->
<g id="edge16" class="edge">
<title>3740851bc074456a9ec281b94a32cab2&#45;&gt;2dab13b89f5b4d2f8164f7814c9727fb</title>
<path fill="none" stroke="#d63031" stroke-width="2" d="M1096.4,-1425.6C880.03,-1425.6 40.75,-1425.6 40.75,-1425.6 40.75,-1425.6 40.75,-936.2 40.75,-936.2"/>
<polygon fill="#d63031" stroke="#d63031" stroke-width="2" points="44.25,-937.71 40.75,-927.71 37.25,-937.71 44.25,-937.71"/>
<text xml:space="preserve" text-anchor="middle" x="547.73" y="-46.65" font-family="Sans-Serif" font-size="13.00" fill="#2d3436">remediation</text>
<text xml:space="preserve" text-anchor="middle" x="547.73" y="-33.15" font-family="Sans-Serif" font-size="13.00" fill="#2d3436">cmds</text>
</g>
<!-- b33b4dec41354ae8b66ab13e82576a8c -->
<g id="node11" class="node">
<title>b33b4dec41354ae8b66ab13e82576a8c</title>
<image xlink:href="/Users/dannytrevino/development/AutoMergeMedic/.venv/lib/python3.13/site-packages/resources/aws/compute/lambda.png" width="100.8px" height="100.8px" preserveAspectRatio="xMinYMin meet" x="1365.95" y="-1554.4"/>
<text xml:space="preserve" text-anchor="middle" x="1416.35" y="-1437.75" font-family="Helvetica Neue" font-size="11.00" fill="#2d3436">Classification</text>
<text xml:space="preserve" text-anchor="middle" x="1416.35" y="-1424.25" font-family="Helvetica Neue" font-size="11.00" fill="#2d3436">Engine</text>
</g>
<!-- 3740851bc074456a9ec281b94a32cab2&#45;&gt;b33b4dec41354ae8b66ab13e82576a8c -->
<g id="edge14" class="edge">
<title>3740851bc074456a9ec281b94a32cab2&#45;&gt;b33b4dec41354ae8b66ab13e82576a8c</title>
<path fill="none" stroke="#e84393" stroke-dasharray="5,2" d="M1197.18,-1489.3C1197.18,-1489.3 1354.7,-1489.3 1354.7,-1489.3"/>
<polygon fill="#e84393" stroke="#e84393" points="1354.7,-1492.8 1364.7,-1489.3 1354.7,-1485.8 1354.7,-1492.8"/>
<text xml:space="preserve" text-anchor="middle" x="1281.58" y="-1497.15" font-family="Sans-Serif" font-size="13.00" fill="#2d3436">classifies</text>
</g>
<!-- 34e8f5614763402db9256af97ea54bbf -->
<g id="node12" class="node">
<title>34e8f5614763402db9256af97ea54bbf</title>
<image xlink:href="/Users/dannytrevino/development/AutoMergeMedic/.venv/lib/python3.13/site-packages/resources/aws/management/cloudwatch.png" width="100.8px" height="100.8px" preserveAspectRatio="xMinYMin meet" x="1365.95" y="-1778.4"/>
<text xml:space="preserve" text-anchor="middle" x="1416.35" y="-1661.75" font-family="Helvetica Neue" font-size="11.00" fill="#2d3436">Circuit</text>
<text xml:space="preserve" text-anchor="middle" x="1416.35" y="-1648.25" font-family="Helvetica Neue" font-size="11.00" fill="#2d3436">Breaker</text>
</g>
<!-- 3740851bc074456a9ec281b94a32cab2&#45;&gt;34e8f5614763402db9256af97ea54bbf -->
<g id="edge15" class="edge">
<title>3740851bc074456a9ec281b94a32cab2&#45;&gt;34e8f5614763402db9256af97ea54bbf</title>
<path fill="none" stroke="#e84393" stroke-dasharray="5,2" d="M1146.75,-1557.17C1146.75,-1627.81 1146.75,-1728 1146.75,-1728 1146.75,-1728 1354.44,-1728 1354.44,-1728"/>
<polygon fill="#e84393" stroke="#e84393" points="1354.44,-1731.5 1364.44,-1728 1354.44,-1724.5 1354.44,-1731.5"/>
<text xml:space="preserve" text-anchor="middle" x="1281.58" y="-1655.15" font-family="Sans-Serif" font-size="13.00" fill="#2d3436">checks</text>
</g>
<!-- 305240a1a0b14a33981bc03215a87e1a -->
<g id="node17" class="node">
<title>305240a1a0b14a33981bc03215a87e1a</title>
<image xlink:href="/Users/dannytrevino/development/AutoMergeMedic/.venv/lib/python3.13/site-packages/resources/aws/integration/simple-notification-service-sns.png" width="100.8px" height="100.8px" preserveAspectRatio="xMinYMin meet" x="1365.95" y="-1330.4"/>
<text xml:space="preserve" text-anchor="middle" x="1416.35" y="-1213.75" font-family="Helvetica Neue" font-size="11.00" fill="#2d3436">Escalation</text>
<text xml:space="preserve" text-anchor="middle" x="1416.35" y="-1200.25" font-family="Helvetica Neue" font-size="11.00" fill="#2d3436">Alerts</text>
</g>
<!-- 3740851bc074456a9ec281b94a32cab2&#45;&gt;305240a1a0b14a33981bc03215a87e1a -->
<g id="edge21" class="edge">
<title>3740851bc074456a9ec281b94a32cab2&#45;&gt;305240a1a0b14a33981bc03215a87e1a</title>
<path fill="none" stroke="#d63031" stroke-dasharray="1,5" d="M1171.75,-1420.79C1171.75,-1361.48 1171.75,-1285 1171.75,-1285 1171.75,-1285 1354.45,-1285 1354.45,-1285"/>
<polygon fill="#d63031" stroke="#d63031" points="1354.45,-1288.5 1364.45,-1285 1354.45,-1281.5 1354.45,-1288.5"/>
<text xml:space="preserve" text-anchor="middle" x="1281.58" y="-1281.15" font-family="Sans-Serif" font-size="13.00" fill="#2d3436">escalation</text>
</g>
<!-- 1850762278a844a8bc619babf13f05ea -->
<g id="node18" class="node">
<title>1850762278a844a8bc619babf13f05ea</title>
<image xlink:href="/Users/dannytrevino/development/AutoMergeMedic/.venv/lib/python3.13/site-packages/resources/aws/management/cloudwatch.png" width="100.8px" height="100.8px" preserveAspectRatio="xMinYMin meet" x="1365.95" y="-1106.4"/>
<text xml:space="preserve" text-anchor="middle" x="1416.35" y="-989.75" font-family="Helvetica Neue" font-size="11.00" fill="#2d3436">CloudWatch</text>
<text xml:space="preserve" text-anchor="middle" x="1416.35" y="-976.25" font-family="Helvetica Neue" font-size="11.00" fill="#2d3436">Metrics</text>
</g>
<!-- 3740851bc074456a9ec281b94a32cab2&#45;&gt;1850762278a844a8bc619babf13f05ea -->
<g id="edge22" class="edge">
<title>3740851bc074456a9ec281b94a32cab2&#45;&gt;1850762278a844a8bc619babf13f05ea</title>
<path fill="none" stroke="#636e72" stroke-dasharray="1,5" d="M1146.75,-1420.71C1146.75,-1299.87 1146.75,-1061 1146.75,-1061 1146.75,-1061 1354.44,-1061 1354.44,-1061"/>
<polygon fill="#636e72" stroke="#636e72" points="1354.44,-1064.5 1364.44,-1061 1354.44,-1057.5 1354.44,-1064.5"/>
<text xml:space="preserve" text-anchor="middle" x="1281.58" y="-1057.15" font-family="Sans-Serif" font-size="13.00" fill="#2d3436">metrics</text>
</g>
<!-- ae40180a1c884d2caa299a85cb78f498&#45;&gt;301892441d7e4f90af0fc06351e987b7 -->
<g id="edge17" class="edge">
<title>ae40180a1c884d2caa299a85cb78f498&#45;&gt;301892441d7e4f90af0fc06351e987b7</title>
<path fill="none" stroke="#636e72" stroke-dasharray="5,2" d="M547.75,-477.32C547.75,-501.35 547.75,-522.5 547.75,-522.5 547.75,-522.5 859.75,-522.5 859.75,-522.5 859.75,-522.5 859.75,-747.79 859.75,-747.79"/>
<polygon fill="#636e72" stroke="#636e72" points="856.25,-747.79 859.75,-757.79 863.25,-747.79 856.25,-747.79"/>
<text xml:space="preserve" text-anchor="middle" x="697.1" y="-471.15" font-family="Sans-Serif" font-size="13.00" fill="#2d3436">check events</text>
</g>
<!-- 7b9a8d2540834faa823d8a478320c3aa&#45;&gt;301892441d7e4f90af0fc06351e987b7 -->
<g id="edge18" class="edge">
<title>7b9a8d2540834faa823d8a478320c3aa&#45;&gt;301892441d7e4f90af0fc06351e987b7</title>
<path fill="none" stroke="#636e72" stroke-dasharray="5,2" d="M547.75,-983.57C547.75,-981.21 547.75,-979.87 547.75,-979.87 547.75,-979.87 842.75,-979.87 842.75,-979.87 842.75,-979.87 842.75,-936.1 842.75,-936.1"/>
<polygon fill="#636e72" stroke="#636e72" points="846.25,-936.1 842.75,-926.1 839.25,-936.1 846.25,-936.1"/>
<text xml:space="preserve" text-anchor="middle" x="697.1" y="-994.15" font-family="Sans-Serif" font-size="13.00" fill="#2d3436">status events</text>
</g>
<!-- a236c2f8d9774fc5a3d1fba440357074&#45;&gt;301892441d7e4f90af0fc06351e987b7 -->
<g id="edge19" class="edge">
<title>a236c2f8d9774fc5a3d1fba440357074&#45;&gt;301892441d7e4f90af0fc06351e987b7</title>
<path fill="none" stroke="#636e72" stroke-dasharray="5,2" d="M598.11,-842C598.11,-842 781.06,-842 781.06,-842"/>
<polygon fill="#636e72" stroke="#636e72" points="781.06,-845.5 791.06,-842 781.06,-838.5 781.06,-845.5"/>
<text xml:space="preserve" text-anchor="middle" x="697.1" y="-843.15" font-family="Sans-Serif" font-size="13.00" fill="#2d3436">review events</text>
</g>
<!-- bcba7f1d06404d079f33672c626adcea&#45;&gt;301892441d7e4f90af0fc06351e987b7 -->
<g id="edge20" class="edge">
<title>bcba7f1d06404d079f33672c626adcea&#45;&gt;301892441d7e4f90af0fc06351e987b7</title>
<path fill="none" stroke="#636e72" stroke-dasharray="5,2" d="M598.07,-618C678.19,-618 825.75,-618 825.75,-618 825.75,-618 825.75,-747.71 825.75,-747.71"/>
<polygon fill="#636e72" stroke="#636e72" points="822.25,-747.71 825.75,-757.71 829.25,-747.71 822.25,-747.71"/>
<text xml:space="preserve" text-anchor="middle" x="697.1" y="-692.15" font-family="Sans-Serif" font-size="13.00" fill="#2d3436">merge events</text>
</g>
</g>
</svg>
