<?xml version="1.0" encoding="UTF-8" standalone="no"?>
<!DOCTYPE svg PUBLIC "-//W3C//DTD SVG 1.1//EN"
 "http://www.w3.org/Graphics/SVG/1.1/DTD/svg11.dtd">
<!-- Generated by graphviz version 14.1.2 (20260124.0452)
 -->
<!-- Title: circuit_breaker Pages: 1 -->
<svg width="2264pt" height="796pt"
 viewBox="0.00 0.00 2264.00 796.00" xmlns="http://www.w3.org/2000/svg" xmlns:xlink="http://www.w3.org/1999/xlink">
<g id="graph0" class="graph" transform="scale(2.08333 2.08333) rotate(0) translate(57.6 324.27)">
<title>circuit_breaker</title>
<polygon fill="#ffffff" stroke="none" points="-57.6,57.6 -57.6,-324.27 1028.9,-324.27 1028.9,57.6 -57.6,57.6"/>
<text xml:space="preserve" text-anchor="middle" x="485.65" y="-245.57" font-family="Helvetica Neue,Helvetica,Arial" font-size="18.00">Circuit Breaker State Machine</text>
<!-- CLOSED -->
<g id="node1" class="node">
<title>CLOSED</title>
<ellipse fill="#55efc4" stroke="#00b894" stroke-width="3" cx="68.8" cy="-92.12" rx="64.8" ry="64.8"/>
<ellipse fill="none" stroke="#00b894" stroke-width="3" cx="68.8" cy="-92.12" rx="68.8" ry="68.8"/>
<text xml:space="preserve" text-anchor="middle" x="68.8" y="-110.22" font-family="Helvetica Neue,Helvetica,Arial" font-size="12.00" fill="#2d3436">CLOSED</text>
<text xml:space="preserve" text-anchor="middle" x="68.8" y="-81.22" font-family="Helvetica Neue,Helvetica,Arial" font-size="12.00" fill="#2d3436">Normal</text>
<text xml:space="preserve" text-anchor="middle" x="68.8" y="-66.22" font-family="Helvetica Neue,Helvetica,Arial" font-size="12.00" fill="#2d3436">Operation</text>
</g>
<!-- OPEN -->
<g id="node2" class="node">
<title>OPEN</title>
<ellipse fill="#d63031" stroke="#9b1b1b" stroke-width="3" cx="506.15" cy="-172.12" rx="64.8" ry="64.8"/>
<text xml:space="preserve" text-anchor="middle" x="506.15" y="-190.22" font-family="Helvetica Neue,Helvetica,Arial" font-size="12.00" fill="#ffffff">OPEN</text>
<text xml:space="preserve" text-anchor="middle" x="506.15" y="-161.22" font-family="Helvetica Neue,Helvetica,Arial" font-size="12.00" fill="#ffffff">Remediation</text>
<text xml:space="preserve" text-anchor="middle" x="506.15" y="-146.22" font-family="Helvetica Neue,Helvetica,Arial" font-size="12.00" fill="#ffffff">Paused</text>
</g>
<!-- CLOSED&#45;&gt;OPEN -->
<g id="edge1" class="edge">
<title>CLOSED&#45;&gt;OPEN</title>
<path fill="none" stroke="#d63031" stroke-width="2" d="M137.82,-104.62C216.59,-119.09 346.04,-142.88 428.35,-158"/>
<polygon fill="#d63031" stroke="#d63031" stroke-width="2" points="427.7,-161.44 438.17,-159.81 428.97,-154.56 427.7,-161.44"/>
<text xml:space="preserve" text-anchor="middle" x="289.47" y="-156.13" font-family="Helvetica Neue,Helvetica,Arial" font-size="10.00" fill="#d63031"> &#160;Failure rate &gt; 50%</text>
<text xml:space="preserve" text-anchor="middle" x="289.47" y="-144.13" font-family="Helvetica Neue,Helvetica,Arial" font-size="10.00" fill="#d63031"> &#160;(min 5 actions in window) &#160;</text>
</g>
<!-- OPEN&#45;&gt;CLOSED -->
<g id="edge5" class="edge">
<title>OPEN&#45;&gt;CLOSED</title>
<path fill="none" stroke="#6c5ce7" stroke-width="2" stroke-dasharray="5,2" d="M454.44,-131.3C425.96,-111.01 388.7,-88.63 351.35,-78.12 285.21,-59.51 206.95,-65.52 149.74,-74.74"/>
<polygon fill="#6c5ce7" stroke="#6c5ce7" stroke-width="2" points="149.4,-71.25 140.12,-76.37 150.57,-78.15 149.4,-71.25"/>
<text xml:space="preserve" text-anchor="middle" x="289.47" y="-92.62" font-family="Helvetica Neue,Helvetica,Arial" font-size="10.00" fill="#6c5ce7"> &#160;Admin API:</text>
<text xml:space="preserve" text-anchor="middle" x="289.47" y="-80.62" font-family="Helvetica Neue,Helvetica,Arial" font-size="10.00" fill="#6c5ce7"> &#160;/circuit&#45;breaker/reset &#160;</text>
</g>
<!-- HALF_OPEN -->
<g id="node3" class="node">
<title>HALF_OPEN</title>
<ellipse fill="#ffeaa7" stroke="#fdcb6e" stroke-width="3" cx="906.5" cy="-92.12" rx="64.8" ry="64.8"/>
<text xml:space="preserve" text-anchor="middle" x="906.5" y="-110.22" font-family="Helvetica Neue,Helvetica,Arial" font-size="12.00" fill="#2d3436">HALF&#45;OPEN</text>
<text xml:space="preserve" text-anchor="middle" x="906.5" y="-81.22" font-family="Helvetica Neue,Helvetica,Arial" font-size="12.00" fill="#2d3436">Probing</text>
<text xml:space="preserve" text-anchor="middle" x="906.5" y="-66.22" font-family="Helvetica Neue,Helvetica,Arial" font-size="12.00" fill="#2d3436">(1 PR)</text>
</g>
<!-- OPEN&#45;&gt;HALF_OPEN -->
<g id="edge2" class="edge">
<title>OPEN&#45;&gt;HALF_OPEN</title>
<path fill="none" stroke="#fdcb6e" stroke-width="2" d="M571.15,-159.26C641.42,-145.15 754.2,-122.5 829.06,-107.47"/>
<polygon fill="#fdcb6e" stroke="#fdcb6e" stroke-width="2" points="829.57,-110.93 838.69,-105.53 828.2,-104.07 829.57,-110.93"/>
<text xml:space="preserve" text-anchor="middle" x="706.32" y="-153.78" font-family="Helvetica Neue,Helvetica,Arial" font-size="10.00" fill="#856404"> &#160;Cooldown elapsed</text>
<text xml:space="preserve" text-anchor="middle" x="706.32" y="-141.78" font-family="Helvetica Neue,Helvetica,Arial" font-size="10.00" fill="#856404"> &#160;(10 min) &#160;</text>
</g>
<!-- HALF_OPEN&#45;&gt;CLOSED -->
<g id="edge3" class="edge">
<title>HALF_OPEN&#45;&gt;CLOSED</title>
<path fill="none" stroke="#00b894" stroke-width="2" d="M844.51,-69.61C816.57,-60.11 782.81,-49.73 751.7,-43.12 523.78,5.3 455.79,16.99 227.6,-30.12 199.48,-35.92 169.88,-46.3 144,-56.93"/>
<polygon fill="#00b894" stroke="#00b894" stroke-width="2" points="142.66,-53.7 134.8,-60.81 145.38,-60.15 142.66,-53.7"/>
<text xml:space="preserve" text-anchor="middle" x="506.15" y="-10.99" font-family="Helvetica Neue,Helvetica,Arial" font-size="10.00" fill="#00b894"> &#160;Probe succeeds &#160;</text>
</g>
<!-- HALF_OPEN&#45;&gt;OPEN -->
<g id="edge4" class="edge">
<title>HALF_OPEN&#45;&gt;OPEN</title>
<path fill="none" stroke="#d63031" stroke-width="2" d="M840.87,-82.87C790.96,-77.8 720.57,-75.21 660.95,-90.12 629.87,-97.88 598.19,-113.25 571.72,-128.61"/>
<polygon fill="#d63031" stroke="#d63031" stroke-width="2" points="570.12,-125.49 563.32,-133.61 573.7,-131.5 570.12,-125.49"/>
<text xml:space="preserve" text-anchor="middle" x="706.32" y="-92.62" font-family="Helvetica Neue,Helvetica,Arial" font-size="10.00" fill="#d63031"> &#160;Probe fails &#160;</text>
</g>
</g>
</svg>
