<?xml version="1.0" encoding="UTF-8" standalone="no"?>
<!DOCTYPE svg PUBLIC "-//W3C//DTD SVG 1.1//EN"
 "http://www.w3.org/Graphics/SVG/1.1/DTD/svg11.dtd">
<!-- Generated by graphviz version 14.1.2 (20260124.0452)
 -->
<!-- Title: reconciler_flow Pages: 1 -->
<svg width="2066pt" height="5524pt"
 viewBox="0.00 0.00 2066.00 5524.00" xmlns="http://www.w3.org/2000/svg" xmlns:xlink="http://www.w3.org/1999/xlink">
<g id="graph0" class="graph" transform="scale(2.08333 2.08333) rotate(0) translate(43.2 2608.2)">
<title>reconciler_flow</title>
<polygon fill="#ffffff" stroke="none" points="-43.2,43.2 -43.2,-2608.2 948.7,-2608.2 948.7,43.2 -43.2,43.2"/>
<text xml:space="preserve" text-anchor="middle" x="452.75" y="-2542" font-family="Helvetica Neue,Helvetica,Arial" font-size="20.00">Reconciler Decision Flow</text>
<!-- START -->
<g id="node1" class="node">
<title>START</title>
<path fill="#a29bfe" stroke="black" stroke-width="2" d="M179,-2533C179,-2533 106,-2533 106,-2533 100,-2533 94,-2527 94,-2521 94,-2521 94,-2509 94,-2509 94,-2503 100,-2497 106,-2497 106,-2497 179,-2497 179,-2497 185,-2497 191,-2503 191,-2509 191,-2509 191,-2521 191,-2521 191,-2527 185,-2533 179,-2533"/>
<text xml:space="preserve" text-anchor="middle" x="142.5" y="-2517.5" font-family="Helvetica Neue,Helvetica,Arial" font-size="10.00" fill="#ffffff">Scheduler triggers</text>
<text xml:space="preserve" text-anchor="middle" x="142.5" y="-2505.5" font-family="Helvetica Neue,Helvetica,Arial" font-size="10.00" fill="#ffffff">Reconciler run</text>
</g>
<!-- QUERY -->
<g id="node2" class="node">
<title>QUERY</title>
<path fill="#74b9ff" stroke="black" stroke-width="2" d="M197.75,-2452C197.75,-2452 87.25,-2452 87.25,-2452 81.25,-2452 75.25,-2446 75.25,-2440 75.25,-2440 75.25,-2428 75.25,-2428 75.25,-2422 81.25,-2416 87.25,-2416 87.25,-2416 197.75,-2416 197.75,-2416 203.75,-2416 209.75,-2422 209.75,-2428 209.75,-2428 209.75,-2440 209.75,-2440 209.75,-2446 203.75,-2452 197.75,-2452"/>
<text xml:space="preserve" text-anchor="middle" x="142.5" y="-2436.5" font-family="Helvetica Neue,Helvetica,Arial" font-size="10.00" fill="#ffffff">Step 1: Query State Table</text>
<text xml:space="preserve" text-anchor="middle" x="142.5" y="-2424.5" font-family="Helvetica Neue,Helvetica,Arial" font-size="10.00" fill="#ffffff">for stale, non&#45;terminal PRs</text>
</g>
<!-- START&#45;&gt;QUERY -->
<g id="edge1" class="edge">
<title>START&#45;&gt;QUERY</title>
<path fill="none" stroke="#2d3436" stroke-width="1.5" d="M142.5,-2496.07C142.5,-2486.88 142.5,-2475.44 142.5,-2464.96"/>
<polygon fill="#2d3436" stroke="#2d3436" stroke-width="1.5" points="146,-2465.13 142.5,-2455.13 139,-2465.13 146,-2465.13"/>
</g>
<!-- CB_CHECK -->
<g id="node3" class="node">
<title>CB_CHECK</title>
<polygon fill="#ffeaa7" stroke="black" stroke-width="2" points="142.5,-2371 61.25,-2339 142.5,-2307 223.75,-2339 142.5,-2371"/>
<text xml:space="preserve" text-anchor="middle" x="142.5" y="-2341.5" font-family="Helvetica Neue,Helvetica,Arial" font-size="10.00" fill="#2d3436">Circuit Breaker</text>
<text xml:space="preserve" text-anchor="middle" x="142.5" y="-2329.5" font-family="Helvetica Neue,Helvetica,Arial" font-size="10.00" fill="#2d3436">status?</text>
</g>
<!-- QUERY&#45;&gt;CB_CHECK -->
<g id="edge2" class="edge">
<title>QUERY&#45;&gt;CB_CHECK</title>
<path fill="none" stroke="#2d3436" stroke-width="1.5" d="M142.5,-2415.07C142.5,-2406.17 142.5,-2395 142.5,-2384.01"/>
<polygon fill="#2d3436" stroke="#2d3436" stroke-width="1.5" points="146,-2384.08 142.5,-2374.08 139,-2384.08 146,-2384.08"/>
</g>
<!-- CB_OPEN -->
<g id="node4" class="node">
<title>CB_OPEN</title>
<path fill="#636e72" stroke="black" d="M124.25,-2252.5C124.25,-2252.5 40.75,-2252.5 40.75,-2252.5 34.75,-2252.5 28.75,-2246.5 28.75,-2240.5 28.75,-2240.5 28.75,-2228.5 28.75,-2228.5 28.75,-2222.5 34.75,-2216.5 40.75,-2216.5 40.75,-2216.5 124.25,-2216.5 124.25,-2216.5 130.25,-2216.5 136.25,-2222.5 136.25,-2228.5 136.25,-2228.5 136.25,-2240.5 136.25,-2240.5 136.25,-2246.5 130.25,-2252.5 124.25,-2252.5"/>
<text xml:space="preserve" text-anchor="middle" x="82.5" y="-2237" font-family="Helvetica Neue,Helvetica,Arial" font-size="10.00" fill="#ffffff">Remediation paused</text>
<text xml:space="preserve" text-anchor="middle" x="82.5" y="-2225" font-family="Helvetica Neue,Helvetica,Arial" font-size="10.00" fill="#ffffff">Skip all PRs</text>
</g>
<!-- CB_CHECK&#45;&gt;CB_OPEN -->
<g id="edge3" class="edge">
<title>CB_CHECK&#45;&gt;CB_OPEN</title>
<path fill="none" stroke="#d63031" stroke-width="1.5" d="M127.36,-2312.13C118.64,-2297.25 107.69,-2278.53 98.79,-2263.32"/>
<polygon fill="#d63031" stroke="#d63031" stroke-width="1.5" points="101.95,-2261.8 93.88,-2254.93 95.91,-2265.33 101.95,-2261.8"/>
<text xml:space="preserve" text-anchor="middle" x="121.95" y="-2277.4" font-family="Helvetica Neue,Helvetica,Arial" font-size="8.00" fill="#d63031">OPEN</text>
</g>
<!-- POLL -->
<g id="node7" class="node">
<title>POLL</title>
<path fill="#74b9ff" stroke="black" stroke-width="2" d="M239,-1972C239,-1972 136,-1972 136,-1972 130,-1972 124,-1966 124,-1960 124,-1960 124,-1948 124,-1948 124,-1942 130,-1936 136,-1936 136,-1936 239,-1936 239,-1936 245,-1936 251,-1942 251,-1948 251,-1948 251,-1960 251,-1960 251,-1966 245,-1972 239,-1972"/>
<text xml:space="preserve" text-anchor="middle" x="187.5" y="-1956.5" font-family="Helvetica Neue,Helvetica,Arial" font-size="10.00" fill="#ffffff">Step 3a: Poll GitHub API</text>
<text xml:space="preserve" text-anchor="middle" x="187.5" y="-1944.5" font-family="Helvetica Neue,Helvetica,Arial" font-size="10.00" fill="#ffffff">(trust but verify)</text>
</g>
<!-- CB_CHECK&#45;&gt;POLL -->
<g id="edge8" class="edge">
<title>CB_CHECK&#45;&gt;POLL</title>
<path fill="none" stroke="#00b894" stroke-width="1.5" d="M163.61,-2314.62C179.12,-2294.98 197.5,-2265.39 197.5,-2235.5 197.5,-2235.5 197.5,-2235.5 197.5,-2034 197.5,-2017.64 195.36,-1999.52 193.07,-1984.77"/>
<polygon fill="#00b894" stroke="#00b894" stroke-width="1.5" points="196.54,-1984.32 191.43,-1975.04 189.64,-1985.48 196.54,-1984.32"/>
<text xml:space="preserve" text-anchor="middle" x="214" y="-2137.15" font-family="Helvetica Neue,Helvetica,Arial" font-size="8.00" fill="#00b894">CLOSED</text>
</g>
<!-- CB_HALF -->
<g id="node5" class="node">
<title>CB_HALF</title>
<polygon fill="#ffeaa7" stroke="black" stroke-width="2" points="62.5,-2171.5 0,-2139.5 62.5,-2107.5 125,-2139.5 62.5,-2171.5"/>
<text xml:space="preserve" text-anchor="middle" x="62.5" y="-2142" font-family="Helvetica Neue,Helvetica,Arial" font-size="10.00" fill="#2d3436">Cooldown</text>
<text xml:space="preserve" text-anchor="middle" x="62.5" y="-2130" font-family="Helvetica Neue,Helvetica,Arial" font-size="10.00" fill="#2d3436">elapsed?</text>
</g>
<!-- CB_OPEN&#45;&gt;CB_HALF -->
<g id="edge4" class="edge">
<title>CB_OPEN&#45;&gt;CB_HALF</title>
<path fill="none" stroke="#2d3436" stroke-width="1.5" d="M78.74,-2216.01C76.62,-2206.14 73.87,-2193.38 71.24,-2181.16"/>
<polygon fill="#2d3436" stroke="#2d3436" stroke-width="1.5" points="74.68,-2180.51 69.16,-2171.47 67.84,-2181.98 74.68,-2180.51"/>
</g>
<!-- CB_PROBE -->
<g id="node6" class="node">
<title>CB_PROBE</title>
<path fill="#74b9ff" stroke="black" stroke-width="2" d="M130.25,-2053C130.25,-2053 88.75,-2053 88.75,-2053 82.75,-2053 76.75,-2047 76.75,-2041 76.75,-2041 76.75,-2029 76.75,-2029 76.75,-2023 82.75,-2017 88.75,-2017 88.75,-2017 130.25,-2017 130.25,-2017 136.25,-2017 142.25,-2023 142.25,-2029 142.25,-2029 142.25,-2041 142.25,-2041 142.25,-2047 136.25,-2053 130.25,-2053"/>
<text xml:space="preserve" text-anchor="middle" x="109.5" y="-2037.5" font-family="Helvetica Neue,Helvetica,Arial" font-size="10.00" fill="#ffffff">Allow 1 PR</text>
<text xml:space="preserve" text-anchor="middle" x="109.5" y="-2025.5" font-family="Helvetica Neue,Helvetica,Arial" font-size="10.00" fill="#ffffff">as probe</text>
</g>
<!-- CB_HALF&#45;&gt;CB_PROBE -->
<g id="edge6" class="edge">
<title>CB_HALF&#45;&gt;CB_PROBE</title>
<path fill="none" stroke="#00b894" stroke-width="1.5" d="M74.36,-2112.63C81.08,-2097.98 89.49,-2079.63 96.4,-2064.56"/>
<polygon fill="#00b894" stroke="#00b894" stroke-width="1.5" points="99.41,-2066.4 100.4,-2055.85 93.05,-2063.48 99.41,-2066.4"/>
<text xml:space="preserve" text-anchor="middle" x="117.84" y="-2077.9" font-family="Helvetica Neue,Helvetica,Arial" font-size="8.00" fill="#00b894">Yes (half&#45;open)</text>
</g>
<!-- NEXT -->
<g id="node31" class="node">
<title>NEXT</title>
<path fill="#74b9ff" stroke="black" stroke-width="2" d="M417.25,-36C417.25,-36 363.75,-36 363.75,-36 357.75,-36 351.75,-30 351.75,-24 351.75,-24 351.75,-12 351.75,-12 351.75,-6 357.75,0 363.75,0 363.75,0 417.25,0 417.25,0 423.25,0 429.25,-6 429.25,-12 429.25,-12 429.25,-24 429.25,-24 429.25,-30 423.25,-36 417.25,-36"/>
<text xml:space="preserve" text-anchor="middle" x="390.5" y="-20.5" font-family="Helvetica Neue,Helvetica,Arial" font-size="10.00" fill="#ffffff">Next stale PR</text>
<text xml:space="preserve" text-anchor="middle" x="390.5" y="-8.5" font-family="Helvetica Neue,Helvetica,Arial" font-size="10.00" fill="#ffffff">(or end run)</text>
</g>
<!-- CB_HALF&#45;&gt;NEXT -->
<g id="edge5" class="edge">
<title>CB_HALF&#45;&gt;NEXT</title>
<path fill="none" stroke="#d63031" stroke-width="1.5" d="M47,-2114.72C35.39,-2094.6 21.5,-2064.56 21.5,-2036 21.5,-2036 21.5,-2036 21.5,-98 21.5,-33.85 237.43,-21.62 338.93,-19.41"/>
<polygon fill="#d63031" stroke="#d63031" stroke-width="1.5" points="338.81,-22.91 348.74,-19.23 338.68,-15.91 338.81,-22.91"/>
<text xml:space="preserve" text-anchor="middle" x="26.75" y="-1100.15" font-family="Helvetica Neue,Helvetica,Arial" font-size="8.00" fill="#d63031">No</text>
</g>
<!-- CB_PROBE&#45;&gt;POLL -->
<g id="edge7" class="edge">
<title>CB_PROBE&#45;&gt;POLL</title>
<path fill="none" stroke="#2d3436" stroke-width="1.5" d="M127.2,-2016.07C137.27,-2005.87 150.08,-1992.9 161.3,-1981.54"/>
<polygon fill="#2d3436" stroke="#2d3436" stroke-width="1.5" points="163.74,-1984.05 168.28,-1974.47 158.76,-1979.13 163.74,-1984.05"/>
</g>
<!-- DRIFT -->
<g id="node8" class="node">
<title>DRIFT</title>
<polygon fill="#ffeaa7" stroke="black" stroke-width="2" points="187.5,-1891 127.25,-1859 187.5,-1827 247.75,-1859 187.5,-1891"/>
<text xml:space="preserve" text-anchor="middle" x="187.5" y="-1861.5" font-family="Helvetica Neue,Helvetica,Arial" font-size="10.00" fill="#2d3436">State drift</text>
<text xml:space="preserve" text-anchor="middle" x="187.5" y="-1849.5" font-family="Helvetica Neue,Helvetica,Arial" font-size="10.00" fill="#2d3436">detected?</text>
</g>
<!-- POLL&#45;&gt;DRIFT -->
<g id="edge9" class="edge">
<title>POLL&#45;&gt;DRIFT</title>
<path fill="none" stroke="#2d3436" stroke-width="1.5" d="M187.5,-1935.07C187.5,-1926.17 187.5,-1915 187.5,-1904.01"/>
<polygon fill="#2d3436" stroke="#2d3436" stroke-width="1.5" points="191,-1904.08 187.5,-1894.08 184,-1904.08 191,-1904.08"/>
</g>
<!-- DRIFT_FIX -->
<g id="node9" class="node">
<title>DRIFT_FIX</title>
<path fill="#74b9ff" stroke="black" stroke-width="2" d="M230.88,-1772.5C230.88,-1772.5 88.12,-1772.5 88.12,-1772.5 82.13,-1772.5 76.12,-1766.5 76.12,-1760.5 76.12,-1760.5 76.12,-1748.5 76.12,-1748.5 76.12,-1742.5 82.12,-1736.5 88.12,-1736.5 88.12,-1736.5 230.88,-1736.5 230.88,-1736.5 236.88,-1736.5 242.88,-1742.5 242.88,-1748.5 242.88,-1748.5 242.88,-1760.5 242.88,-1760.5 242.88,-1766.5 236.88,-1772.5 230.88,-1772.5"/>
<text xml:space="preserve" text-anchor="middle" x="159.5" y="-1757" font-family="Helvetica Neue,Helvetica,Arial" font-size="10.00" fill="#ffffff">Update State Table</text>
<text xml:space="preserve" text-anchor="middle" x="159.5" y="-1745" font-family="Helvetica Neue,Helvetica,Arial" font-size="10.00" fill="#ffffff">Log: STATE_DRIFT_CORRECTED</text>
</g>
<!-- DRIFT&#45;&gt;DRIFT_FIX -->
<g id="edge10" class="edge">
<title>DRIFT&#45;&gt;DRIFT_FIX</title>
<path fill="none" stroke="#00b894" stroke-width="1.5" d="M179.85,-1829.99C176.04,-1816.05 171.44,-1799.21 167.58,-1785.06"/>
<polygon fill="#00b894" stroke="#00b894" stroke-width="1.5" points="171.02,-1784.39 165.01,-1775.66 164.27,-1786.23 171.02,-1784.39"/>
<text xml:space="preserve" text-anchor="middle" x="178.66" y="-1797.4" font-family="Helvetica Neue,Helvetica,Arial" font-size="8.00" fill="#00b894">Yes</text>
</g>
<!-- CLASSIFY -->
<g id="node11" class="node">
<title>CLASSIFY</title>
<path fill="#fd79a8" stroke="black" stroke-width="2" d="M285,-1563.5C285,-1563.5 200,-1563.5 200,-1563.5 194,-1563.5 188,-1557.5 188,-1551.5 188,-1551.5 188,-1539.5 188,-1539.5 188,-1533.5 194,-1527.5 200,-1527.5 200,-1527.5 285,-1527.5 285,-1527.5 291,-1527.5 297,-1533.5 297,-1539.5 297,-1539.5 297,-1551.5 297,-1551.5 297,-1557.5 291,-1563.5 285,-1563.5"/>
<text xml:space="preserve" text-anchor="middle" x="242.5" y="-1548" font-family="Helvetica Neue,Helvetica,Arial" font-size="10.00" fill="#ffffff">Classification Engine</text>
<text xml:space="preserve" text-anchor="middle" x="242.5" y="-1536" font-family="Helvetica Neue,Helvetica,Arial" font-size="10.00" fill="#ffffff">(priority order)</text>
</g>
<!-- DRIFT&#45;&gt;CLASSIFY -->
<g id="edge14" class="edge">
<title>DRIFT&#45;&gt;CLASSIFY</title>
<path fill="none" stroke="#2d3436" stroke-width="1.5" d="M211.25,-1838.69C228.59,-1822.96 250.71,-1799.05 260.5,-1772.5 285.16,-1705.64 265.94,-1620.31 252.57,-1576.08"/>
<polygon fill="#2d3436" stroke="#2d3436" stroke-width="1.5" points="255.94,-1575.14 249.59,-1566.65 249.26,-1577.24 255.94,-1575.14"/>
<text xml:space="preserve" text-anchor="middle" x="277.55" y="-1706.9" font-family="Helvetica Neue,Helvetica,Arial" font-size="8.00">No</text>
</g>
<!-- STILL_STALE -->
<g id="node10" class="node">
<title>STILL_STALE</title>
<polygon fill="#ffeaa7" stroke="black" stroke-width="2" points="159.5,-1682 80.5,-1650 159.5,-1618 238.5,-1650 159.5,-1682"/>
<text xml:space="preserve" text-anchor="middle" x="159.5" y="-1652.5" font-family="Helvetica Neue,Helvetica,Arial" font-size="10.00" fill="#2d3436">Still stale after</text>
<text xml:space="preserve" text-anchor="middle" x="159.5" y="-1640.5" font-family="Helvetica Neue,Helvetica,Arial" font-size="10.00" fill="#2d3436">correction?</text>
</g>
<!-- DRIFT_FIX&#45;&gt;STILL_STALE -->
<g id="edge11" class="edge">
<title>DRIFT_FIX&#45;&gt;STILL_STALE</title>
<path fill="none" stroke="#2d3436" stroke-width="1.5" d="M159.5,-1735.65C159.5,-1724.38 159.5,-1709.29 159.5,-1694.98"/>
<polygon fill="#2d3436" stroke="#2d3436" stroke-width="1.5" points="163,-1694.99 159.5,-1684.99 156,-1694.99 163,-1694.99"/>
</g>
<!-- STILL_STALE&#45;&gt;CLASSIFY -->
<g id="edge13" class="edge">
<title>STILL_STALE&#45;&gt;CLASSIFY</title>
<path fill="none" stroke="#00b894" stroke-width="1.5" d="M178.96,-1624.97C191.42,-1609.58 207.61,-1589.58 220.53,-1573.63"/>
<polygon fill="#00b894" stroke="#00b894" stroke-width="1.5" points="223.09,-1576.03 226.66,-1566.06 217.65,-1571.63 223.09,-1576.03"/>
<text xml:space="preserve" text-anchor="middle" x="216.88" y="-1588.4" font-family="Helvetica Neue,Helvetica,Arial" font-size="8.00" fill="#00b894">Yes</text>
</g>
<!-- STILL_STALE&#45;&gt;NEXT -->
<g id="edge12" class="edge">
<title>STILL_STALE&#45;&gt;NEXT</title>
<path fill="none" stroke="#d63031" stroke-width="1.5" d="M141.71,-1624.21C129.14,-1604.22 114.5,-1574.87 114.5,-1546.5 114.5,-1546.5 114.5,-1546.5 114.5,-98 114.5,-51.78 259.38,-31.06 339.21,-23.16"/>
<polygon fill="#d63031" stroke="#d63031" stroke-width="1.5" points="339.07,-26.69 348.7,-22.26 338.41,-19.72 339.07,-26.69"/>
<text xml:space="preserve" text-anchor="middle" x="133.25" y="-857.9" font-family="Helvetica Neue,Helvetica,Arial" font-size="8.00" fill="#d63031">No — skip</text>
</g>
<!-- C1 -->
<g id="node12" class="node">
<title>C1</title>
<path fill="#dfe6e9" stroke="black" d="M297.38,-1482.5C297.38,-1482.5 187.62,-1482.5 187.62,-1482.5 181.62,-1482.5 175.62,-1476.5 175.62,-1470.5 175.62,-1470.5 175.62,-1458.5 175.62,-1458.5 175.62,-1452.5 181.62,-1446.5 187.62,-1446.5 187.62,-1446.5 297.38,-1446.5 297.38,-1446.5 303.38,-1446.5 309.38,-1452.5 309.38,-1458.5 309.38,-1458.5 309.38,-1470.5 309.38,-1470.5 309.38,-1476.5 303.38,-1482.5 297.38,-1482.5"/>
<text xml:space="preserve" text-anchor="middle" x="242.5" y="-1467" font-family="Helvetica Neue,Helvetica,Arial" font-size="10.00" fill="#2d3436">1. Merge conflict?</text>
<text xml:space="preserve" text-anchor="middle" x="242.5" y="-1455" font-family="Helvetica Neue,Helvetica,Arial" font-size="10.00" fill="#2d3436">→ CLOSE_AND_REOPEN</text>
</g>
<!-- CLASSIFY&#45;&gt;C1 -->
<g id="edge15" class="edge">
<title>CLASSIFY&#45;&gt;C1</title>
<path fill="none" stroke="#2d3436" stroke-width="1.5" d="M242.5,-1526.57C242.5,-1517.25 242.5,-1505.62 242.5,-1495.01"/>
<polygon fill="#2d3436" stroke="#2d3436" stroke-width="1.5" points="246,-1495.08 242.5,-1485.08 239,-1495.08 246,-1495.08"/>
</g>
<!-- C2 -->
<g id="node13" class="node">
<title>C2</title>
<path fill="#dfe6e9" stroke="black" d="M815,-1392C815,-1392 724,-1392 724,-1392 718,-1392 712,-1386 712,-1380 712,-1380 712,-1368 712,-1368 712,-1362 718,-1356 724,-1356 724,-1356 815,-1356 815,-1356 821,-1356 827,-1362 827,-1368 827,-1368 827,-1380 827,-1380 827,-1386 821,-1392 815,-1392"/>
<text xml:space="preserve" text-anchor="middle" x="769.5" y="-1376.5" font-family="Helvetica Neue,Helvetica,Arial" font-size="10.00" fill="#2d3436">2. Branch behind?</text>
<text xml:space="preserve" text-anchor="middle" x="769.5" y="-1364.5" font-family="Helvetica Neue,Helvetica,Arial" font-size="10.00" fill="#2d3436">→ UPDATE_BRANCH</text>
</g>
<!-- C1&#45;&gt;C2 -->
<g id="edge16" class="edge">
<title>C1&#45;&gt;C2</title>
<path fill="none" stroke="#636e72" d="M309.78,-1452.2C410.34,-1435.31 598.88,-1403.65 700.46,-1386.59"/>
<polygon fill="#636e72" stroke="#636e72" points="700.73,-1390.1 710.01,-1384.99 699.57,-1383.19 700.73,-1390.1"/>
<text xml:space="preserve" text-anchor="middle" x="526.3" y="-1416.9" font-family="Helvetica Neue,Helvetica,Arial" font-size="8.00" fill="#636e72">no</text>
</g>
<!-- BUDGET -->
<g id="node23" class="node">
<title>BUDGET</title>
<polygon fill="#ffeaa7" stroke="black" stroke-width="2" points="602.5,-652 528.75,-620 602.5,-588 676.25,-620 602.5,-652"/>
<text xml:space="preserve" text-anchor="middle" x="602.5" y="-622.5" font-family="Helvetica Neue,Helvetica,Arial" font-size="10.00" fill="#2d3436">Retry budget</text>
<text xml:space="preserve" text-anchor="middle" x="602.5" y="-610.5" font-family="Helvetica Neue,Helvetica,Arial" font-size="10.00" fill="#2d3436">exhausted?</text>
</g>
<!-- C1&#45;&gt;BUDGET -->
<g id="edge26" class="edge">
<title>C1&#45;&gt;BUDGET</title>
<path fill="none" stroke="#00b894" stroke-width="1.5" d="M223.92,-1446.07C208.3,-1429.46 188.5,-1402.9 188.5,-1375 188.5,-1375 188.5,-1375 188.5,-768.75 188.5,-712.19 249.08,-732.13 299.5,-706.5 330.44,-690.78 337.63,-685.15 370.5,-674 401.46,-663.5 482.79,-645.73 540.39,-633.69"/>
<polygon fill="#00b894" stroke="#00b894" stroke-width="1.5" points="541,-637.14 550.07,-631.68 539.57,-630.29 541,-637.14"/>
<text xml:space="preserve" text-anchor="middle" x="194.5" y="-1054.9" font-family="Helvetica Neue,Helvetica,Arial" font-size="8.00" fill="#00b894">yes</text>
</g>
<!-- C3 -->
<g id="node14" class="node">
<title>C3</title>
<path fill="#dfe6e9" stroke="black" d="M826.62,-1301.5C826.62,-1301.5 712.38,-1301.5 712.38,-1301.5 706.38,-1301.5 700.38,-1295.5 700.38,-1289.5 700.38,-1289.5 700.38,-1277.5 700.38,-1277.5 700.38,-1271.5 706.38,-1265.5 712.38,-1265.5 712.38,-1265.5 826.62,-1265.5 826.62,-1265.5 832.62,-1265.5 838.62,-1271.5 838.62,-1277.5 838.62,-1277.5 838.62,-1289.5 838.62,-1289.5 838.62,-1295.5 832.62,-1301.5 826.62,-1301.5"/>
<text xml:space="preserve" text-anchor="middle" x="769.5" y="-1286" font-family="Helvetica Neue,Helvetica,Arial" font-size="10.00" fill="#2d3436">3. Checks failed (transient)?</text>
<text xml:space="preserve" text-anchor="middle" x="769.5" y="-1274" font-family="Helvetica Neue,Helvetica,Arial" font-size="10.00" fill="#2d3436">→ RETRY_CHECKS</text>
</g>
<!-- C2&#45;&gt;C3 -->
<g id="edge17" class="edge">
<title>C2&#45;&gt;C3</title>
<path fill="none" stroke="#636e72" d="M769.5,-1355.52C769.5,-1343.52 769.5,-1327.31 769.5,-1313.41"/>
<polygon fill="#636e72" stroke="#636e72" points="773,-1313.46 769.5,-1303.46 766,-1313.46 773,-1313.46"/>
<text xml:space="preserve" text-anchor="middle" x="774" y="-1326.4" font-family="Helvetica Neue,Helvetica,Arial" font-size="8.00" fill="#636e72">no</text>
</g>
<!-- C2&#45;&gt;BUDGET -->
<g id="edge27" class="edge">
<title>C2&#45;&gt;BUDGET</title>
<path fill="none" stroke="#00b894" stroke-width="1.5" d="M827.14,-1356.01C859.53,-1342.53 893.5,-1319.94 893.5,-1284.5 893.5,-1284.5 893.5,-1284.5 893.5,-723.5 893.5,-676.36 755.91,-645.58 669.95,-630.96"/>
<polygon fill="#00b894" stroke="#00b894" stroke-width="1.5" points="670.6,-627.52 660.16,-629.33 669.45,-634.42 670.6,-627.52"/>
<text xml:space="preserve" text-anchor="middle" x="899.5" y="-1005.65" font-family="Helvetica Neue,Helvetica,Arial" font-size="8.00" fill="#00b894">yes</text>
</g>
<!-- C4 -->
<g id="node15" class="node">
<title>C4</title>
<path fill="#dfe6e9" stroke="black" d="M699.62,-1211C699.62,-1211 579.38,-1211 579.38,-1211 573.38,-1211 567.38,-1205 567.38,-1199 567.38,-1199 567.38,-1187 567.38,-1187 567.38,-1181 573.38,-1175 579.38,-1175 579.38,-1175 699.62,-1175 699.62,-1175 705.62,-1175 711.62,-1181 711.62,-1187 711.62,-1187 711.62,-1199 711.62,-1199 711.62,-1205 705.62,-1211 699.62,-1211"/>
<text xml:space="preserve" text-anchor="middle" x="639.5" y="-1195.5" font-family="Helvetica Neue,Helvetica,Arial" font-size="10.00" fill="#2d3436">4. Checks failed (persistent)?</text>
<text xml:space="preserve" text-anchor="middle" x="639.5" y="-1183.5" font-family="Helvetica Neue,Helvetica,Arial" font-size="10.00" fill="#2d3436">→ NEEDS_INTERVENTION</text>
</g>
<!-- C3&#45;&gt;C4 -->
<g id="edge18" class="edge">
<title>C3&#45;&gt;C4</title>
<path fill="none" stroke="#636e72" d="M743.82,-1265.02C723.96,-1251.5 696.27,-1232.65 674.41,-1217.77"/>
<polygon fill="#636e72" stroke="#636e72" points="676.62,-1215.03 666.38,-1212.3 672.68,-1220.82 676.62,-1215.03"/>
<text xml:space="preserve" text-anchor="middle" x="712.9" y="-1235.9" font-family="Helvetica Neue,Helvetica,Arial" font-size="8.00" fill="#636e72">no</text>
</g>
<!-- C3&#45;&gt;BUDGET -->
<g id="edge28" class="edge">
<title>C3&#45;&gt;BUDGET</title>
<path fill="none" stroke="#00b894" stroke-width="1.5" d="M780.12,-1265.24C789.77,-1247.9 802.5,-1220.07 802.5,-1194 802.5,-1194 802.5,-1194 802.5,-723.5 802.5,-664.31 732.26,-639.28 675.03,-628.7"/>
<polygon fill="#00b894" stroke="#00b894" stroke-width="1.5" points="675.73,-625.27 665.29,-627.04 674.56,-632.17 675.73,-625.27"/>
<text xml:space="preserve" text-anchor="middle" x="808.5" y="-956.4" font-family="Helvetica Neue,Helvetica,Arial" font-size="8.00" fill="#00b894">yes</text>
</g>
<!-- C5 -->
<g id="node16" class="node">
<title>C5</title>
<path fill="#dfe6e9" stroke="black" d="M690.25,-1120.5C690.25,-1120.5 588.75,-1120.5 588.75,-1120.5 582.75,-1120.5 576.75,-1114.5 576.75,-1108.5 576.75,-1108.5 576.75,-1096.5 576.75,-1096.5 576.75,-1090.5 582.75,-1084.5 588.75,-1084.5 588.75,-1084.5 690.25,-1084.5 690.25,-1084.5 696.25,-1084.5 702.25,-1090.5 702.25,-1096.5 702.25,-1096.5 702.25,-1108.5 702.25,-1108.5 702.25,-1114.5 696.25,-1120.5 690.25,-1120.5"/>
<text xml:space="preserve" text-anchor="middle" x="639.5" y="-1105" font-family="Helvetica Neue,Helvetica,Arial" font-size="10.00" fill="#2d3436">5. Policy Bot stale?</text>
<text xml:space="preserve" text-anchor="middle" x="639.5" y="-1093" font-family="Helvetica Neue,Helvetica,Arial" font-size="10.00" fill="#2d3436">→ RETRIGGER_POLICY</text>
</g>
<!-- C4&#45;&gt;C5 -->
<g id="edge19" class="edge">
<title>C4&#45;&gt;C5</title>
<path fill="none" stroke="#636e72" d="M639.5,-1174.52C639.5,-1162.52 639.5,-1146.31 639.5,-1132.41"/>
<polygon fill="#636e72" stroke="#636e72" points="643,-1132.46 639.5,-1122.46 636,-1132.46 643,-1132.46"/>
<text xml:space="preserve" text-anchor="middle" x="644" y="-1145.4" font-family="Helvetica Neue,Helvetica,Arial" font-size="8.00" fill="#636e72">no</text>
</g>
<!-- ESCALATE -->
<g id="node24" class="node">
<title>ESCALATE</title>
<path fill="#d63031" stroke="black" stroke-width="2" d="M369,-421C369,-421 254,-421 254,-421 248,-421 242,-415 242,-409 242,-409 242,-397 242,-397 242,-391 248,-385 254,-385 254,-385 369,-385 369,-385 375,-385 381,-391 381,-397 381,-397 381,-409 381,-409 381,-415 375,-421 369,-421"/>
<text xml:space="preserve" text-anchor="middle" x="311.5" y="-405.5" font-family="Helvetica Neue,Helvetica,Arial" font-size="10.00" fill="#ffffff">→ NEEDS_INTERVENTION</text>
<text xml:space="preserve" text-anchor="middle" x="311.5" y="-393.5" font-family="Helvetica Neue,Helvetica,Arial" font-size="10.00" fill="#ffffff">Send escalation notification</text>
</g>
<!-- C4&#45;&gt;ESCALATE -->
<g id="edge34" class="edge">
<title>C4&#45;&gt;ESCALATE</title>
<path fill="none" stroke="#d63031" stroke-width="1.5" d="M567.08,-1188.8C461.96,-1182.15 279.5,-1162.15 279.5,-1103.5 279.5,-1103.5 279.5,-1103.5 279.5,-859.25 279.5,-693.17 161.72,-642.84 225.5,-489.5 235.62,-465.17 256.41,-444.19 275.01,-429.1"/>
<polygon fill="#d63031" stroke="#d63031" stroke-width="1.5" points="276.92,-432.05 282.67,-423.15 272.63,-426.52 276.92,-432.05"/>
<text xml:space="preserve" text-anchor="middle" x="284.37" y="-812.65" font-family="Helvetica Neue,Helvetica,Arial" font-size="8.00" fill="#d63031">yes</text>
</g>
<!-- C6 -->
<g id="node17" class="node">
<title>C6</title>
<path fill="#dfe6e9" stroke="black" d="M661.5,-1030C661.5,-1030 543.5,-1030 543.5,-1030 537.5,-1030 531.5,-1024 531.5,-1018 531.5,-1018 531.5,-998 531.5,-998 531.5,-992 537.5,-986 543.5,-986 543.5,-986 661.5,-986 661.5,-986 667.5,-986 673.5,-992 673.5,-998 673.5,-998 673.5,-1018 673.5,-1018 673.5,-1024 667.5,-1030 661.5,-1030"/>
<text xml:space="preserve" text-anchor="middle" x="602.5" y="-1016.5" font-family="Helvetica Neue,Helvetica,Arial" font-size="10.00" fill="#2d3436">6. SOD failure?</text>
<text xml:space="preserve" text-anchor="middle" x="602.5" y="-1004.5" font-family="Helvetica Neue,Helvetica,Arial" font-size="10.00" fill="#2d3436">(Policy Bot or Approver Bot)</text>
<text xml:space="preserve" text-anchor="middle" x="602.5" y="-992.5" font-family="Helvetica Neue,Helvetica,Arial" font-size="10.00" fill="#2d3436">→ RETRIGGER_SOD</text>
</g>
<!-- C5&#45;&gt;C6 -->
<g id="edge20" class="edge">
<title>C5&#45;&gt;C6</title>
<path fill="none" stroke="#636e72" d="M632.54,-1084.1C627.67,-1071.92 621.02,-1055.3 615.22,-1040.79"/>
<polygon fill="#636e72" stroke="#636e72" points="618.51,-1039.61 611.55,-1031.62 612.01,-1042.21 618.51,-1039.61"/>
<text xml:space="preserve" text-anchor="middle" x="627.72" y="-1054.9" font-family="Helvetica Neue,Helvetica,Arial" font-size="8.00" fill="#636e72">no</text>
</g>
<!-- C5&#45;&gt;BUDGET -->
<g id="edge29" class="edge">
<title>C5&#45;&gt;BUDGET</title>
<path fill="none" stroke="#00b894" stroke-width="1.5" d="M672.89,-1084.09C698.15,-1068.27 728.5,-1042.32 728.5,-1009 728.5,-1009 728.5,-1009 728.5,-723.5 728.5,-683.3 689.42,-656.08 654.79,-639.86"/>
<polygon fill="#00b894" stroke="#00b894" stroke-width="1.5" points="656.39,-636.74 645.83,-635.89 653.56,-643.14 656.39,-636.74"/>
<text xml:space="preserve" text-anchor="middle" x="734.5" y="-857.9" font-family="Helvetica Neue,Helvetica,Arial" font-size="8.00" fill="#00b894">yes</text>
</g>
<!-- C7 -->
<g id="node18" class="node">
<title>C7</title>
<path fill="#dfe6e9" stroke="black" d="M587.75,-931.5C587.75,-931.5 471.25,-931.5 471.25,-931.5 465.25,-931.5 459.25,-925.5 459.25,-919.5 459.25,-919.5 459.25,-899.5 459.25,-899.5 459.25,-893.5 465.25,-887.5 471.25,-887.5 471.25,-887.5 587.75,-887.5 587.75,-887.5 593.75,-887.5 599.75,-893.5 599.75,-899.5 599.75,-899.5 599.75,-919.5 599.75,-919.5 599.75,-925.5 593.75,-931.5 587.75,-931.5"/>
<text xml:space="preserve" text-anchor="middle" x="529.5" y="-918" font-family="Helvetica Neue,Helvetica,Arial" font-size="10.00" fill="#2d3436">7. Permanent policy failure?</text>
<text xml:space="preserve" text-anchor="middle" x="529.5" y="-906" font-family="Helvetica Neue,Helvetica,Arial" font-size="10.00" fill="#2d3436">(foreign commit · invalid file)</text>
<text xml:space="preserve" text-anchor="middle" x="529.5" y="-894" font-family="Helvetica Neue,Helvetica,Arial" font-size="10.00" fill="#2d3436">→ CLOSE_PR</text>
</g>
<!-- C6&#45;&gt;C7 -->
<g id="edge21" class="edge">
<title>C6&#45;&gt;C7</title>
<path fill="none" stroke="#636e72" d="M586.3,-985.58C576.38,-972.47 563.52,-955.47 552.54,-940.96"/>
<polygon fill="#636e72" stroke="#636e72" points="555.39,-938.93 546.57,-933.06 549.81,-943.15 555.39,-938.93"/>
<text xml:space="preserve" text-anchor="middle" x="572.69" y="-956.4" font-family="Helvetica Neue,Helvetica,Arial" font-size="8.00" fill="#636e72">no</text>
</g>
<!-- C6&#45;&gt;BUDGET -->
<g id="edge30" class="edge">
<title>C6&#45;&gt;BUDGET</title>
<path fill="none" stroke="#00b894" stroke-width="1.5" d="M621.86,-985.75C636.65,-967.27 654.5,-939.05 654.5,-910.5 654.5,-910.5 654.5,-910.5 654.5,-723.5 654.5,-698.41 641.96,-673.25 629.19,-654.13"/>
<polygon fill="#00b894" stroke="#00b894" stroke-width="1.5" points="632.1,-652.17 623.47,-646.02 626.38,-656.21 632.1,-652.17"/>
<text xml:space="preserve" text-anchor="middle" x="660.5" y="-812.65" font-family="Helvetica Neue,Helvetica,Arial" font-size="8.00" fill="#00b894">yes</text>
</g>
<!-- C8 -->
<g id="node19" class="node">
<title>C8</title>
<path fill="#dfe6e9" stroke="black" d="M496.88,-833C496.88,-833 378.12,-833 378.12,-833 372.12,-833 366.12,-827 366.12,-821 366.12,-821 366.12,-809 366.12,-809 366.12,-803 372.12,-797 378.12,-797 378.12,-797 496.88,-797 496.88,-797 502.88,-797 508.88,-803 508.88,-809 508.88,-809 508.88,-821 508.88,-821 508.88,-827 502.88,-833 496.88,-833"/>
<text xml:space="preserve" text-anchor="middle" x="437.5" y="-817.5" font-family="Helvetica Neue,Helvetica,Arial" font-size="10.00" fill="#2d3436">8. Approver Bot stale?</text>
<text xml:space="preserve" text-anchor="middle" x="437.5" y="-805.5" font-family="Helvetica Neue,Helvetica,Arial" font-size="10.00" fill="#2d3436">→ RETRIGGER_APPROVER</text>
</g>
<!-- C7&#45;&gt;C8 -->
<g id="edge22" class="edge">
<title>C7&#45;&gt;C8</title>
<path fill="none" stroke="#636e72" d="M508.16,-887.05C494.58,-873.39 476.94,-855.65 462.67,-841.31"/>
<polygon fill="#636e72" stroke="#636e72" points="465.32,-839.01 455.79,-834.39 460.36,-843.95 465.32,-839.01"/>
<text xml:space="preserve" text-anchor="middle" x="490.76" y="-857.9" font-family="Helvetica Neue,Helvetica,Arial" font-size="8.00" fill="#636e72">no</text>
</g>
<!-- C7&#45;&gt;BUDGET -->
<g id="edge31" class="edge">
<title>C7&#45;&gt;BUDGET</title>
<path fill="none" stroke="#00b894" stroke-width="1.5" d="M534.87,-887.36C546.97,-839.7 576.54,-723.23 592.27,-661.28"/>
<polygon fill="#00b894" stroke="#00b894" stroke-width="1.5" points="595.6,-662.41 594.66,-651.86 588.81,-660.69 595.6,-662.41"/>
<text xml:space="preserve" text-anchor="middle" x="572" y="-767.4" font-family="Helvetica Neue,Helvetica,Arial" font-size="8.00" fill="#00b894">yes</text>
</g>
<!-- C9 -->
<g id="node20" class="node">
<title>C9</title>
<path fill="#dfe6e9" stroke="black" d="M429.88,-742.5C429.88,-742.5 329.12,-742.5 329.12,-742.5 323.12,-742.5 317.12,-736.5 317.12,-730.5 317.12,-730.5 317.12,-718.5 317.12,-718.5 317.12,-712.5 323.12,-706.5 329.12,-706.5 329.12,-706.5 429.88,-706.5 429.88,-706.5 435.88,-706.5 441.88,-712.5 441.88,-718.5 441.88,-718.5 441.88,-730.5 441.88,-730.5 441.88,-736.5 435.88,-742.5 429.88,-742.5"/>
<text xml:space="preserve" text-anchor="middle" x="379.5" y="-727" font-family="Helvetica Neue,Helvetica,Arial" font-size="10.00" fill="#2d3436">9. Automerge stale?</text>
<text xml:space="preserve" text-anchor="middle" x="379.5" y="-715" font-family="Helvetica Neue,Helvetica,Arial" font-size="10.00" fill="#2d3436">→ RETRIGGER_MERGE</text>
</g>
<!-- C8&#45;&gt;C9 -->
<g id="edge23" class="edge">
<title>C8&#45;&gt;C9</title>
<path fill="none" stroke="#636e72" d="M426.04,-796.52C417.78,-783.91 406.48,-766.66 397.08,-752.32"/>
<polygon fill="#636e72" stroke="#636e72" points="400.17,-750.66 391.76,-744.21 394.32,-754.5 400.17,-750.66"/>
<text xml:space="preserve" text-anchor="middle" x="414.74" y="-767.4" font-family="Helvetica Neue,Helvetica,Arial" font-size="8.00" fill="#636e72">no</text>
</g>
<!-- C8&#45;&gt;BUDGET -->
<g id="edge32" class="edge">
<title>C8&#45;&gt;BUDGET</title>
<path fill="none" stroke="#00b894" stroke-width="1.5" d="M450.94,-796.88C472.04,-770.18 514.46,-717.2 552.5,-674 558.85,-666.79 565.83,-659.19 572.51,-652.08"/>
<polygon fill="#00b894" stroke="#00b894" stroke-width="1.5" points="574.85,-654.7 579.18,-645.03 569.76,-649.89 574.85,-654.7"/>
<text xml:space="preserve" text-anchor="middle" x="529.7" y="-722.15" font-family="Helvetica Neue,Helvetica,Arial" font-size="8.00" fill="#00b894">yes</text>
</g>
<!-- C10 -->
<g id="node21" class="node">
<title>C10</title>
<path fill="#b2bec3" stroke="black" d="M422,-638C422,-638 337,-638 337,-638 331,-638 325,-632 325,-626 325,-626 325,-614 325,-614 325,-608 331,-602 337,-602 337,-602 422,-602 422,-602 428,-602 434,-608 434,-614 434,-614 434,-626 434,-626 434,-632 428,-638 422,-638"/>
<text xml:space="preserve" text-anchor="middle" x="379.5" y="-622.5" font-family="Helvetica Neue,Helvetica,Arial" font-size="10.00" fill="#2d3436">10. Within threshold?</text>
<text xml:space="preserve" text-anchor="middle" x="379.5" y="-610.5" font-family="Helvetica Neue,Helvetica,Arial" font-size="10.00" fill="#2d3436">→ NO_ACTION</text>
</g>
<!-- C9&#45;&gt;C10 -->
<g id="edge24" class="edge">
<title>C9&#45;&gt;C10</title>
<path fill="none" stroke="#636e72" d="M379.5,-706.11C379.5,-690.72 379.5,-667.96 379.5,-649.85"/>
<polygon fill="#636e72" stroke="#636e72" points="383,-649.99 379.5,-639.99 376,-649.99 383,-649.99"/>
<text xml:space="preserve" text-anchor="middle" x="384" y="-676.9" font-family="Helvetica Neue,Helvetica,Arial" font-size="8.00" fill="#636e72">no</text>
</g>
<!-- C9&#45;&gt;BUDGET -->
<g id="edge33" class="edge">
<title>C9&#45;&gt;BUDGET</title>
<path fill="none" stroke="#00b894" stroke-width="1.5" d="M410.89,-706.02C428.98,-696.18 452.28,-683.92 473.5,-674 499.04,-662.06 528.04,-650.02 552.06,-640.43"/>
<polygon fill="#00b894" stroke="#00b894" stroke-width="1.5" points="553.3,-643.71 561.31,-636.77 550.72,-637.2 553.3,-643.71"/>
<text xml:space="preserve" text-anchor="middle" x="479.5" y="-676.9" font-family="Helvetica Neue,Helvetica,Arial" font-size="8.00" fill="#00b894">yes</text>
</g>
<!-- C11 -->
<g id="node22" class="node">
<title>C11</title>
<path fill="#dfe6e9" stroke="black" d="M369.62,-529.5C369.62,-529.5 255.38,-529.5 255.38,-529.5 249.38,-529.5 243.38,-523.5 243.38,-517.5 243.38,-517.5 243.38,-505.5 243.38,-505.5 243.38,-499.5 249.38,-493.5 255.38,-493.5 255.38,-493.5 369.62,-493.5 369.62,-493.5 375.62,-493.5 381.62,-499.5 381.62,-505.5 381.62,-505.5 381.62,-517.5 381.62,-517.5 381.62,-523.5 375.62,-529.5 369.62,-529.5"/>
<text xml:space="preserve" text-anchor="middle" x="312.5" y="-514" font-family="Helvetica Neue,Helvetica,Arial" font-size="10.00" fill="#2d3436">11. Fallthrough</text>
<text xml:space="preserve" text-anchor="middle" x="312.5" y="-502" font-family="Helvetica Neue,Helvetica,Arial" font-size="10.00" fill="#2d3436">→ NEEDS_INTERVENTION</text>
</g>
<!-- C10&#45;&gt;C11 -->
<g id="edge25" class="edge">
<title>C10&#45;&gt;C11</title>
<path fill="none" stroke="#636e72" d="M368.74,-601.89C358.15,-585.07 341.83,-559.13 329.5,-539.52"/>
<polygon fill="#636e72" stroke="#636e72" points="332.55,-537.8 324.27,-531.2 326.63,-541.53 332.55,-537.8"/>
<text xml:space="preserve" text-anchor="middle" x="350.5" y="-558.4" font-family="Helvetica Neue,Helvetica,Arial" font-size="8.00" fill="#636e72">no</text>
</g>
<!-- C10&#45;&gt;NEXT -->
<g id="edge36" class="edge">
<title>C10&#45;&gt;NEXT</title>
<path fill="none" stroke="#636e72" d="M395.68,-601.67C412.53,-581.76 436.5,-547.31 436.5,-512.5 436.5,-512.5 436.5,-512.5 436.5,-98 436.5,-78.73 426.15,-59.97 415.28,-45.57"/>
<polygon fill="#636e72" stroke="#636e72" points="418.12,-43.52 409.11,-37.95 412.68,-47.93 418.12,-43.52"/>
<text xml:space="preserve" text-anchor="middle" x="442.5" y="-296.15" font-family="Helvetica Neue,Helvetica,Arial" font-size="8.00" fill="#636e72">yes</text>
</g>
<!-- C11&#45;&gt;ESCALATE -->
<g id="edge35" class="edge">
<title>C11&#45;&gt;ESCALATE</title>
<path fill="none" stroke="#d63031" stroke-width="1.5" d="M312.34,-493.39C312.19,-477.36 311.96,-453.05 311.78,-433.82"/>
<polygon fill="#d63031" stroke="#d63031" stroke-width="1.5" points="315.28,-434.02 311.69,-424.05 308.28,-434.08 315.28,-434.02"/>
<text xml:space="preserve" text-anchor="middle" x="327.84" y="-459.9" font-family="Helvetica Neue,Helvetica,Arial" font-size="8.00" fill="#d63031">matched</text>
</g>
<!-- BUDGET&#45;&gt;ESCALATE -->
<g id="edge37" class="edge">
<title>BUDGET&#45;&gt;ESCALATE</title>
<path fill="none" stroke="#d63031" stroke-width="1.5" d="M575.38,-598.97C522.14,-559.63 404.05,-472.38 345.61,-429.2"/>
<polygon fill="#d63031" stroke="#d63031" stroke-width="1.5" points="347.7,-426.4 337.58,-423.27 343.54,-432.03 347.7,-426.4"/>
<text xml:space="preserve" text-anchor="middle" x="505.05" y="-509.15" font-family="Helvetica Neue,Helvetica,Arial" font-size="8.00" fill="#d63031">Exhausted</text>
</g>
<!-- DISPATCH -->
<g id="node25" class="node">
<title>DISPATCH</title>
<path fill="#55efc4" stroke="black" stroke-width="2" d="M714.88,-533.5C714.88,-533.5 614.12,-533.5 614.12,-533.5 608.12,-533.5 602.12,-527.5 602.12,-521.5 602.12,-521.5 602.12,-501.5 602.12,-501.5 602.12,-495.5 608.12,-489.5 614.12,-489.5 614.12,-489.5 714.88,-489.5 714.88,-489.5 720.88,-489.5 726.88,-495.5 726.88,-501.5 726.88,-501.5 726.88,-521.5 726.88,-521.5 726.88,-527.5 720.88,-533.5 714.88,-533.5"/>
<text xml:space="preserve" text-anchor="middle" x="664.5" y="-520" font-family="Helvetica Neue,Helvetica,Arial" font-size="10.00" fill="#2d3436">Execute remediation</text>
<text xml:space="preserve" text-anchor="middle" x="664.5" y="-508" font-family="Helvetica Neue,Helvetica,Arial" font-size="10.00" fill="#2d3436">Emit command to queue</text>
<text xml:space="preserve" text-anchor="middle" x="664.5" y="-496" font-family="Helvetica Neue,Helvetica,Arial" font-size="10.00" fill="#2d3436">Increment retry count</text>
</g>
<!-- BUDGET&#45;&gt;DISPATCH -->
<g id="edge38" class="edge">
<title>BUDGET&#45;&gt;DISPATCH</title>
<path fill="none" stroke="#00b894" stroke-width="1.5" d="M617.35,-593.49C625.91,-578.79 636.74,-560.18 645.87,-544.5"/>
<polygon fill="#00b894" stroke="#00b894" stroke-width="1.5" points="648.72,-546.57 650.72,-536.17 642.67,-543.05 648.72,-546.57"/>
<text xml:space="preserve" text-anchor="middle" x="644.68" y="-558.4" font-family="Helvetica Neue,Helvetica,Arial" font-size="8.00" fill="#00b894">OK</text>
</g>
<!-- ESCALATE&#45;&gt;NEXT -->
<g id="edge39" class="edge">
<title>ESCALATE&#45;&gt;NEXT</title>
<path fill="none" stroke="#2d3436" stroke-width="1.5" d="M316.33,-384C321.35,-363.65 328.5,-329.44 328.5,-299.5 328.5,-299.5 328.5,-299.5 328.5,-98 328.5,-77.21 341.95,-58.65 356.33,-44.75"/>
<polygon fill="#2d3436" stroke="#2d3436" stroke-width="1.5" points="358.48,-47.51 363.59,-38.23 353.81,-42.3 358.48,-47.51"/>
</g>
<!-- OUTCOME -->
<g id="node26" class="node">
<title>OUTCOME</title>
<polygon fill="#ffeaa7" stroke="black" stroke-width="2" points="664.5,-435 593,-403 664.5,-371 736,-403 664.5,-435"/>
<text xml:space="preserve" text-anchor="middle" x="664.5" y="-405.5" font-family="Helvetica Neue,Helvetica,Arial" font-size="10.00" fill="#2d3436">Remediation</text>
<text xml:space="preserve" text-anchor="middle" x="664.5" y="-393.5" font-family="Helvetica Neue,Helvetica,Arial" font-size="10.00" fill="#2d3436">succeeded?</text>
</g>
<!-- DISPATCH&#45;&gt;OUTCOME -->
<g id="edge40" class="edge">
<title>DISPATCH&#45;&gt;OUTCOME</title>
<path fill="none" stroke="#2d3436" stroke-width="1.5" d="M664.5,-488.69C664.5,-476.92 664.5,-461.97 664.5,-447.91"/>
<polygon fill="#2d3436" stroke="#2d3436" stroke-width="1.5" points="668,-448.15 664.5,-438.15 661,-448.15 668,-448.15"/>
</g>
<!-- SUCCESS -->
<g id="node27" class="node">
<title>SUCCESS</title>
<path fill="#00b894" stroke="black" stroke-width="2" d="M589.25,-316.5C589.25,-316.5 511.75,-316.5 511.75,-316.5 505.75,-316.5 499.75,-310.5 499.75,-304.5 499.75,-304.5 499.75,-292.5 499.75,-292.5 499.75,-286.5 505.75,-280.5 511.75,-280.5 511.75,-280.5 589.25,-280.5 589.25,-280.5 595.25,-280.5 601.25,-286.5 601.25,-292.5 601.25,-292.5 601.25,-304.5 601.25,-304.5 601.25,-310.5 595.25,-316.5 589.25,-316.5"/>
<text xml:space="preserve" text-anchor="middle" x="550.5" y="-301" font-family="Helvetica Neue,Helvetica,Arial" font-size="10.00" fill="#ffffff">Update State Table</text>
<text xml:space="preserve" text-anchor="middle" x="550.5" y="-289" font-family="Helvetica Neue,Helvetica,Arial" font-size="10.00" fill="#ffffff">Log success</text>
</g>
<!-- OUTCOME&#45;&gt;SUCCESS -->
<g id="edge41" class="edge">
<title>OUTCOME&#45;&gt;SUCCESS</title>
<path fill="none" stroke="#00b894" stroke-width="1.5" d="M640.88,-380.76C623.03,-364.71 598.43,-342.59 579.4,-325.48"/>
<polygon fill="#00b894" stroke="#00b894" stroke-width="1.5" points="581.76,-322.9 571.98,-318.81 577.08,-328.1 581.76,-322.9"/>
<text xml:space="preserve" text-anchor="middle" x="610.08" y="-341.4" font-family="Helvetica Neue,Helvetica,Arial" font-size="8.00" fill="#00b894">Yes</text>
</g>
<!-- FAILURE -->
<g id="node28" class="node">
<title>FAILURE</title>
<path fill="#ff7675" stroke="black" stroke-width="2" d="M766.12,-316.5C766.12,-316.5 648.88,-316.5 648.88,-316.5 642.88,-316.5 636.88,-310.5 636.88,-304.5 636.88,-304.5 636.88,-292.5 636.88,-292.5 636.88,-286.5 642.88,-280.5 648.88,-280.5 648.88,-280.5 766.12,-280.5 766.12,-280.5 772.12,-280.5 778.12,-286.5 778.12,-292.5 778.12,-292.5 778.12,-304.5 778.12,-304.5 778.12,-310.5 772.12,-316.5 766.12,-316.5"/>
<text xml:space="preserve" text-anchor="middle" x="707.5" y="-301" font-family="Helvetica Neue,Helvetica,Arial" font-size="10.00" fill="#ffffff">Log failure details</text>
<text xml:space="preserve" text-anchor="middle" x="707.5" y="-289" font-family="Helvetica Neue,Helvetica,Arial" font-size="10.00" fill="#ffffff">Increment CB failure counter</text>
</g>
<!-- OUTCOME&#45;&gt;FAILURE -->
<g id="edge42" class="edge">
<title>OUTCOME&#45;&gt;FAILURE</title>
<path fill="none" stroke="#d63031" stroke-width="1.5" d="M675.8,-375.07C681.85,-360.65 689.29,-342.9 695.45,-328.22"/>
<polygon fill="#d63031" stroke="#d63031" stroke-width="1.5" points="698.54,-329.9 699.18,-319.32 692.09,-327.19 698.54,-329.9"/>
<text xml:space="preserve" text-anchor="middle" x="696.37" y="-341.4" font-family="Helvetica Neue,Helvetica,Arial" font-size="8.00" fill="#d63031">No</text>
</g>
<!-- CB_UPDATE -->
<g id="node29" class="node">
<title>CB_UPDATE</title>
<polygon fill="#ffeaa7" stroke="black" stroke-width="2" points="576.5,-235.5 502.75,-203.5 576.5,-171.5 650.25,-203.5 576.5,-235.5"/>
<text xml:space="preserve" text-anchor="middle" x="576.5" y="-206" font-family="Helvetica Neue,Helvetica,Arial" font-size="10.00" fill="#2d3436">Failure rate &gt;</text>
<text xml:space="preserve" text-anchor="middle" x="576.5" y="-194" font-family="Helvetica Neue,Helvetica,Arial" font-size="10.00" fill="#2d3436">threshold?</text>
</g>
<!-- SUCCESS&#45;&gt;CB_UPDATE -->
<g id="edge43" class="edge">
<title>SUCCESS&#45;&gt;CB_UPDATE</title>
<path fill="none" stroke="#2d3436" stroke-width="1.5" d="M555.51,-279.57C558.31,-269.57 561.91,-256.69 565.34,-244.43"/>
<polygon fill="#2d3436" stroke="#2d3436" stroke-width="1.5" points="568.6,-245.75 567.92,-235.17 561.86,-243.86 568.6,-245.75"/>
</g>
<!-- FAILURE&#45;&gt;CB_UPDATE -->
<g id="edge44" class="edge">
<title>FAILURE&#45;&gt;CB_UPDATE</title>
<path fill="none" stroke="#2d3436" stroke-width="1.5" d="M682.24,-279.57C662.99,-265.9 636.16,-246.85 614.34,-231.36"/>
<polygon fill="#2d3436" stroke="#2d3436" stroke-width="1.5" points="616.43,-228.56 606.25,-225.62 612.38,-234.27 616.43,-228.56"/>
</g>
<!-- CB_TRIP -->
<g id="node30" class="node">
<title>CB_TRIP</title>
<path fill="#d63031" stroke="black" stroke-width="2" d="M703.12,-117C703.12,-117 585.88,-117 585.88,-117 579.88,-117 573.88,-111 573.88,-105 573.88,-105 573.88,-93 573.88,-93 573.88,-87 579.88,-81 585.88,-81 585.88,-81 703.12,-81 703.12,-81 709.12,-81 715.12,-87 715.12,-93 715.12,-93 715.12,-105 715.12,-105 715.12,-111 709.12,-117 703.12,-117"/>
<text xml:space="preserve" text-anchor="middle" x="644.5" y="-101.5" font-family="Helvetica Neue,Helvetica,Arial" font-size="10.00" fill="#ffffff">Trip circuit breaker → OPEN</text>
<text xml:space="preserve" text-anchor="middle" x="644.5" y="-89.5" font-family="Helvetica Neue,Helvetica,Arial" font-size="10.00" fill="#ffffff">Send notification</text>
</g>
<!-- CB_UPDATE&#45;&gt;CB_TRIP -->
<g id="edge45" class="edge">
<title>CB_UPDATE&#45;&gt;CB_TRIP</title>
<path fill="none" stroke="#d63031" stroke-width="1.5" d="M592.96,-177.69C602.93,-162.67 615.66,-143.48 625.97,-127.93"/>
<polygon fill="#d63031" stroke="#d63031" stroke-width="1.5" points="628.8,-130 631.41,-119.73 622.97,-126.13 628.8,-130"/>
<text xml:space="preserve" text-anchor="middle" x="624.59" y="-141.9" font-family="Helvetica Neue,Helvetica,Arial" font-size="8.00" fill="#d63031">Yes</text>
</g>
<!-- CB_UPDATE&#45;&gt;NEXT -->
<g id="edge46" class="edge">
<title>CB_UPDATE&#45;&gt;NEXT</title>
<path fill="none" stroke="#00b894" stroke-width="1.5" d="M561.58,-177.1C542.29,-145.95 506.2,-92.99 464.5,-58 457.3,-51.96 449.02,-46.48 440.66,-41.67"/>
<polygon fill="#00b894" stroke="#00b894" stroke-width="1.5" points="442.55,-38.72 432.09,-37.02 439.21,-44.87 442.55,-38.72"/>
<text xml:space="preserve" text-anchor="middle" x="524.78" y="-96.65" font-family="Helvetica Neue,Helvetica,Arial" font-size="8.00" fill="#00b894">No</text>
</g>
<!-- CB_TRIP&#45;&gt;NEXT -->
<g id="edge47" class="edge">
<title>CB_TRIP&#45;&gt;NEXT</title>
<path fill="none" stroke="#2d3436" stroke-width="1.5" d="M608.75,-80.06C592.75,-72.52 573.47,-64.1 555.5,-58 518.14,-45.32 474.67,-35.22 441.73,-28.49"/>
<polygon fill="#2d3436" stroke="#2d3436" stroke-width="1.5" points="442.82,-25.13 432.32,-26.6 441.44,-32 442.82,-25.13"/>
</g>
</g>
</svg>
