<?xml version="1.0" encoding="UTF-8" standalone="no"?>
<!DOCTYPE svg PUBLIC "-//W3C//DTD SVG 1.1//EN"
 "http://www.w3.org/Graphics/SVG/1.1/DTD/svg11.dtd">
<!-- Generated by graphviz version 14.1.2 (20260124.0452)
 -->
<!-- Title: reconciler_flow Pages: 1 -->
<svg width="1881pt" height="5319pt"
 viewBox="0.00 0.00 1881.00 5319.00" xmlns="http://www.w3.org/2000/svg" xmlns:xlink="http://www.w3.org/1999/xlink">
<g id="graph0" class="graph" transform="scale(2.08333 2.08333) rotate(0) translate(43.2 2509.7)">
<title>reconciler_flow</title>
<polygon fill="#ffffff" stroke="none" points="-43.2,43.2 -43.2,-2509.7 859.7,-2509.7 859.7,43.2 -43.2,43.2"/>
<text xml:space="preserve" text-anchor="middle" x="408.25" y="-2443.5" font-family="Helvetica Neue,Helvetica,Arial" font-size="20.00">Reconciler Decision Flow</text>
<!-- START -->
<g id="node1" class="node">
<title>START</title>
<path fill="#a29bfe" stroke="black" stroke-width="2" d="M275.5,-2434.5C275.5,-2434.5 202.5,-2434.5 202.5,-2434.5 196.5,-2434.5 190.5,-2428.5 190.5,-2422.5 190.5,-2422.5 190.5,-2410.5 190.5,-2410.5 190.5,-2404.5 196.5,-2398.5 202.5,-2398.5 202.5,-2398.5 275.5,-2398.5 275.5,-2398.5 281.5,-2398.5 287.5,-2404.5 287.5,-2410.5 287.5,-2410.5 287.5,-2422.5 287.5,-2422.5 287.5,-2428.5 281.5,-2434.5 275.5,-2434.5"/>
<text xml:space="preserve" text-anchor="middle" x="239" y="-2419" font-family="Helvetica Neue,Helvetica,Arial" font-size="10.00" fill="#ffffff">Scheduler triggers</text>
<text xml:space="preserve" text-anchor="middle" x="239" y="-2407" font-family="Helvetica Neue,Helvetica,Arial" font-size="10.00" fill="#ffffff">Reconciler run</text>
</g>
<!-- QUERY -->
<g id="node2" class="node">
<title>QUERY</title>
<path fill="#74b9ff" stroke="black" stroke-width="2" d="M294.25,-2353.5C294.25,-2353.5 183.75,-2353.5 183.75,-2353.5 177.75,-2353.5 171.75,-2347.5 171.75,-2341.5 171.75,-2341.5 171.75,-2329.5 171.75,-2329.5 171.75,-2323.5 177.75,-2317.5 183.75,-2317.5 183.75,-2317.5 294.25,-2317.5 294.25,-2317.5 300.25,-2317.5 306.25,-2323.5 306.25,-2329.5 306.25,-2329.5 306.25,-2341.5 306.25,-2341.5 306.25,-2347.5 300.25,-2353.5 294.25,-2353.5"/>
<text xml:space="preserve" text-anchor="middle" x="239" y="-2338" font-family="Helvetica Neue,Helvetica,Arial" font-size="10.00" fill="#ffffff">Step 1: Query State Table</text>
<text xml:space="preserve" text-anchor="middle" x="239" y="-2326" font-family="Helvetica Neue,Helvetica,Arial" font-size="10.00" fill="#ffffff">for stale, non&#45;terminal PRs</text>
</g>
<!-- START&#45;&gt;QUERY -->
<g id="edge1" class="edge">
<title>START&#45;&gt;QUERY</title>
<path fill="none" stroke="#2d3436" stroke-width="1.5" d="M239,-2397.57C239,-2388.38 239,-2376.94 239,-2366.46"/>
<polygon fill="#2d3436" stroke="#2d3436" stroke-width="1.5" points="242.5,-2366.63 239,-2356.63 235.5,-2366.63 242.5,-2366.63"/>
</g>
<!-- CB_CHECK -->
<g id="node3" class="node">
<title>CB_CHECK</title>
<polygon fill="#ffeaa7" stroke="black" stroke-width="2" points="239,-2272.5 157.75,-2240.5 239,-2208.5 320.25,-2240.5 239,-2272.5"/>
<text xml:space="preserve" text-anchor="middle" x="239" y="-2243" font-family="Helvetica Neue,Helvetica,Arial" font-size="10.00" fill="#2d3436">Circuit Breaker</text>
<text xml:space="preserve" text-anchor="middle" x="239" y="-2231" font-family="Helvetica Neue,Helvetica,Arial" font-size="10.00" fill="#2d3436">status?</text>
</g>
<!-- QUERY&#45;&gt;CB_CHECK -->
<g id="edge2" class="edge">
<title>QUERY&#45;&gt;CB_CHECK</title>
<path fill="none" stroke="#2d3436" stroke-width="1.5" d="M239,-2316.57C239,-2307.67 239,-2296.5 239,-2285.51"/>
<polygon fill="#2d3436" stroke="#2d3436" stroke-width="1.5" points="242.5,-2285.58 239,-2275.58 235.5,-2285.58 242.5,-2285.58"/>
</g>
<!-- CB_OPEN -->
<g id="node4" class="node">
<title>CB_OPEN</title>
<path fill="#636e72" stroke="black" d="M210.75,-2154C210.75,-2154 127.25,-2154 127.25,-2154 121.25,-2154 115.25,-2148 115.25,-2142 115.25,-2142 115.25,-2130 115.25,-2130 115.25,-2124 121.25,-2118 127.25,-2118 127.25,-2118 210.75,-2118 210.75,-2118 216.75,-2118 222.75,-2124 222.75,-2130 222.75,-2130 222.75,-2142 222.75,-2142 222.75,-2148 216.75,-2154 210.75,-2154"/>
<text xml:space="preserve" text-anchor="middle" x="169" y="-2138.5" font-family="Helvetica Neue,Helvetica,Arial" font-size="10.00" fill="#ffffff">Remediation paused</text>
<text xml:space="preserve" text-anchor="middle" x="169" y="-2126.5" font-family="Helvetica Neue,Helvetica,Arial" font-size="10.00" fill="#ffffff">Skip all PRs</text>
</g>
<!-- CB_CHECK&#45;&gt;CB_OPEN -->
<g id="edge3" class="edge">
<title>CB_CHECK&#45;&gt;CB_OPEN</title>
<path fill="none" stroke="#d63031" stroke-width="1.5" d="M221.88,-2214.43C211.55,-2199.31 198.39,-2180.03 187.78,-2164.49"/>
<polygon fill="#d63031" stroke="#d63031" stroke-width="1.5" points="190.72,-2162.59 182.19,-2156.31 184.93,-2166.54 190.72,-2162.59"/>
<text xml:space="preserve" text-anchor="middle" x="213.15" y="-2178.9" font-family="Helvetica Neue,Helvetica,Arial" font-size="8.00" fill="#d63031">OPEN</text>
</g>
<!-- POLL -->
<g id="node7" class="node">
<title>POLL</title>
<path fill="#74b9ff" stroke="black" stroke-width="2" d="M335.5,-1873.5C335.5,-1873.5 232.5,-1873.5 232.5,-1873.5 226.5,-1873.5 220.5,-1867.5 220.5,-1861.5 220.5,-1861.5 220.5,-1849.5 220.5,-1849.5 220.5,-1843.5 226.5,-1837.5 232.5,-1837.5 232.5,-1837.5 335.5,-1837.5 335.5,-1837.5 341.5,-1837.5 347.5,-1843.5 347.5,-1849.5 347.5,-1849.5 347.5,-1861.5 347.5,-1861.5 347.5,-1867.5 341.5,-1873.5 335.5,-1873.5"/>
<text xml:space="preserve" text-anchor="middle" x="284" y="-1858" font-family="Helvetica Neue,Helvetica,Arial" font-size="10.00" fill="#ffffff">Step 3a: Poll GitHub API</text>
<text xml:space="preserve" text-anchor="middle" x="284" y="-1846" font-family="Helvetica Neue,Helvetica,Arial" font-size="10.00" fill="#ffffff">(trust but verify)</text>
</g>
<!-- CB_CHECK&#45;&gt;POLL -->
<g id="edge8" class="edge">
<title>CB_CHECK&#45;&gt;POLL</title>
<path fill="none" stroke="#00b894" stroke-width="1.5" d="M256.79,-2214.71C269.36,-2194.72 284,-2165.37 284,-2137 284,-2137 284,-2137 284,-1935.5 284,-1919.27 284,-1901.16 284,-1886.38"/>
<polygon fill="#00b894" stroke="#00b894" stroke-width="1.5" points="287.5,-1886.65 284,-1876.65 280.5,-1886.65 287.5,-1886.65"/>
<text xml:space="preserve" text-anchor="middle" x="300.5" y="-2038.65" font-family="Helvetica Neue,Helvetica,Arial" font-size="8.00" fill="#00b894">CLOSED</text>
</g>
<!-- CB_HALF -->
<g id="node5" class="node">
<title>CB_HALF</title>
<polygon fill="#ffeaa7" stroke="black" stroke-width="2" points="149,-2073 86.5,-2041 149,-2009 211.5,-2041 149,-2073"/>
<text xml:space="preserve" text-anchor="middle" x="149" y="-2043.5" font-family="Helvetica Neue,Helvetica,Arial" font-size="10.00" fill="#2d3436">Cooldown</text>
<text xml:space="preserve" text-anchor="middle" x="149" y="-2031.5" font-family="Helvetica Neue,Helvetica,Arial" font-size="10.00" fill="#2d3436">elapsed?</text>
</g>
<!-- CB_OPEN&#45;&gt;CB_HALF -->
<g id="edge4" class="edge">
<title>CB_OPEN&#45;&gt;CB_HALF</title>
<path fill="none" stroke="#2d3436" stroke-width="1.5" d="M165.24,-2117.51C163.12,-2107.64 160.37,-2094.88 157.74,-2082.66"/>
<polygon fill="#2d3436" stroke="#2d3436" stroke-width="1.5" points="161.18,-2082.01 155.66,-2072.97 154.34,-2083.48 161.18,-2082.01"/>
</g>
<!-- CB_PROBE -->
<g id="node6" class="node">
<title>CB_PROBE</title>
<path fill="#74b9ff" stroke="black" stroke-width="2" d="M204.75,-1954.5C204.75,-1954.5 163.25,-1954.5 163.25,-1954.5 157.25,-1954.5 151.25,-1948.5 151.25,-1942.5 151.25,-1942.5 151.25,-1930.5 151.25,-1930.5 151.25,-1924.5 157.25,-1918.5 163.25,-1918.5 163.25,-1918.5 204.75,-1918.5 204.75,-1918.5 210.75,-1918.5 216.75,-1924.5 216.75,-1930.5 216.75,-1930.5 216.75,-1942.5 216.75,-1942.5 216.75,-1948.5 210.75,-1954.5 204.75,-1954.5"/>
<text xml:space="preserve" text-anchor="middle" x="184" y="-1939" font-family="Helvetica Neue,Helvetica,Arial" font-size="10.00" fill="#ffffff">Allow 1 PR</text>
<text xml:space="preserve" text-anchor="middle" x="184" y="-1927" font-family="Helvetica Neue,Helvetica,Arial" font-size="10.00" fill="#ffffff">as probe</text>
</g>
<!-- CB_HALF&#45;&gt;CB_PROBE -->
<g id="edge6" class="edge">
<title>CB_HALF&#45;&gt;CB_PROBE</title>
<path fill="none" stroke="#00b894" stroke-width="1.5" d="M158.29,-2012.8C163.13,-1998.62 169.05,-1981.27 174,-1966.79"/>
<polygon fill="#00b894" stroke="#00b894" stroke-width="1.5" points="177.22,-1968.19 177.14,-1957.6 170.59,-1965.93 177.22,-1968.19"/>
<text xml:space="preserve" text-anchor="middle" x="196.91" y="-1979.4" font-family="Helvetica Neue,Helvetica,Arial" font-size="8.00" fill="#00b894">Yes (half&#45;open)</text>
</g>
<!-- NEXT -->
<g id="node30" class="node">
<title>NEXT</title>
<path fill="#74b9ff" stroke="black" stroke-width="2" d="M435.75,-36C435.75,-36 382.25,-36 382.25,-36 376.25,-36 370.25,-30 370.25,-24 370.25,-24 370.25,-12 370.25,-12 370.25,-6 376.25,0 382.25,0 382.25,0 435.75,0 435.75,0 441.75,0 447.75,-6 447.75,-12 447.75,-12 447.75,-24 447.75,-24 447.75,-30 441.75,-36 435.75,-36"/>
<text xml:space="preserve" text-anchor="middle" x="409" y="-20.5" font-family="Helvetica Neue,Helvetica,Arial" font-size="10.00" fill="#ffffff">Next stale PR</text>
<text xml:space="preserve" text-anchor="middle" x="409" y="-8.5" font-family="Helvetica Neue,Helvetica,Arial" font-size="10.00" fill="#ffffff">(or end run)</text>
</g>
<!-- CB_HALF&#45;&gt;NEXT -->
<g id="edge5" class="edge">
<title>CB_HALF&#45;&gt;NEXT</title>
<path fill="none" stroke="#d63031" stroke-width="1.5" d="M105.9,-2029.99C61.9,-2016.91 0,-1989.31 0,-1937.5 0,-1937.5 0,-1937.5 0,-98 0,-26.01 247.34,-18.21 357.33,-18.3"/>
<polygon fill="#d63031" stroke="#d63031" stroke-width="1.5" points="357.13,-21.8 367.14,-18.34 357.15,-14.8 357.13,-21.8"/>
<text xml:space="preserve" text-anchor="middle" x="5.25" y="-1046.9" font-family="Helvetica Neue,Helvetica,Arial" font-size="8.00" fill="#d63031">No</text>
</g>
<!-- CB_PROBE&#45;&gt;POLL -->
<g id="edge7" class="edge">
<title>CB_PROBE&#45;&gt;POLL</title>
<path fill="none" stroke="#2d3436" stroke-width="1.5" d="M206.69,-1917.57C220.12,-1906.97 237.33,-1893.37 252.11,-1881.7"/>
<polygon fill="#2d3436" stroke="#2d3436" stroke-width="1.5" points="253.94,-1884.71 259.62,-1875.76 249.6,-1879.22 253.94,-1884.71"/>
</g>
<!-- DRIFT -->
<g id="node8" class="node">
<title>DRIFT</title>
<polygon fill="#ffeaa7" stroke="black" stroke-width="2" points="515,-1792.5 454.75,-1760.5 515,-1728.5 575.25,-1760.5 515,-1792.5"/>
<text xml:space="preserve" text-anchor="middle" x="515" y="-1763" font-family="Helvetica Neue,Helvetica,Arial" font-size="10.00" fill="#2d3436">State drift</text>
<text xml:space="preserve" text-anchor="middle" x="515" y="-1751" font-family="Helvetica Neue,Helvetica,Arial" font-size="10.00" fill="#2d3436">detected?</text>
</g>
<!-- POLL&#45;&gt;DRIFT -->
<g id="edge9" class="edge">
<title>POLL&#45;&gt;DRIFT</title>
<path fill="none" stroke="#2d3436" stroke-width="1.5" d="M328.54,-1836.57C369.08,-1820.25 428.66,-1796.26 469.49,-1779.82"/>
<polygon fill="#2d3436" stroke="#2d3436" stroke-width="1.5" points="470.67,-1783.12 478.64,-1776.14 468.05,-1776.63 470.67,-1783.12"/>
</g>
<!-- DRIFT_FIX -->
<g id="node9" class="node">
<title>DRIFT_FIX</title>
<path fill="#74b9ff" stroke="black" stroke-width="2" d="M724.38,-1674C724.38,-1674 581.62,-1674 581.62,-1674 575.62,-1674 569.62,-1668 569.62,-1662 569.62,-1662 569.62,-1650 569.62,-1650 569.62,-1644 575.62,-1638 581.62,-1638 581.62,-1638 724.38,-1638 724.38,-1638 730.38,-1638 736.38,-1644 736.38,-1650 736.38,-1650 736.38,-1662 736.38,-1662 736.38,-1668 730.38,-1674 724.38,-1674"/>
<text xml:space="preserve" text-anchor="middle" x="653" y="-1658.5" font-family="Helvetica Neue,Helvetica,Arial" font-size="10.00" fill="#ffffff">Update State Table</text>
<text xml:space="preserve" text-anchor="middle" x="653" y="-1646.5" font-family="Helvetica Neue,Helvetica,Arial" font-size="10.00" fill="#ffffff">Log: STATE_DRIFT_CORRECTED</text>
</g>
<!-- DRIFT&#45;&gt;DRIFT_FIX -->
<g id="edge10" class="edge">
<title>DRIFT&#45;&gt;DRIFT_FIX</title>
<path fill="none" stroke="#00b894" stroke-width="1.5" d="M539.99,-1740.94C562.25,-1724.41 594.98,-1700.09 619.5,-1681.88"/>
<polygon fill="#00b894" stroke="#00b894" stroke-width="1.5" points="621.36,-1684.86 627.3,-1676.09 617.18,-1679.24 621.36,-1684.86"/>
<text xml:space="preserve" text-anchor="middle" x="606.42" y="-1698.9" font-family="Helvetica Neue,Helvetica,Arial" font-size="8.00" fill="#00b894">Yes</text>
</g>
<!-- CLASSIFY -->
<g id="node11" class="node">
<title>CLASSIFY</title>
<path fill="#fd79a8" stroke="black" stroke-width="2" d="M607.5,-1465C607.5,-1465 522.5,-1465 522.5,-1465 516.5,-1465 510.5,-1459 510.5,-1453 510.5,-1453 510.5,-1441 510.5,-1441 510.5,-1435 516.5,-1429 522.5,-1429 522.5,-1429 607.5,-1429 607.5,-1429 613.5,-1429 619.5,-1435 619.5,-1441 619.5,-1441 619.5,-1453 619.5,-1453 619.5,-1459 613.5,-1465 607.5,-1465"/>
<text xml:space="preserve" text-anchor="middle" x="565" y="-1449.5" font-family="Helvetica Neue,Helvetica,Arial" font-size="10.00" fill="#ffffff">Classification Engine</text>
<text xml:space="preserve" text-anchor="middle" x="565" y="-1437.5" font-family="Helvetica Neue,Helvetica,Arial" font-size="10.00" fill="#ffffff">(priority order)</text>
</g>
<!-- DRIFT&#45;&gt;CLASSIFY -->
<g id="edge14" class="edge">
<title>DRIFT&#45;&gt;CLASSIFY</title>
<path fill="none" stroke="#2d3436" stroke-width="1.5" d="M519.75,-1729.91C529.29,-1670.49 550.68,-1537.24 560.23,-1477.71"/>
<polygon fill="#2d3436" stroke="#2d3436" stroke-width="1.5" points="563.64,-1478.53 561.77,-1468.1 556.73,-1477.42 563.64,-1478.53"/>
<text xml:space="preserve" text-anchor="middle" x="544.67" y="-1608.4" font-family="Helvetica Neue,Helvetica,Arial" font-size="8.00">No</text>
</g>
<!-- STILL_STALE -->
<g id="node10" class="node">
<title>STILL_STALE</title>
<polygon fill="#ffeaa7" stroke="black" stroke-width="2" points="653,-1583.5 574,-1551.5 653,-1519.5 732,-1551.5 653,-1583.5"/>
<text xml:space="preserve" text-anchor="middle" x="653" y="-1554" font-family="Helvetica Neue,Helvetica,Arial" font-size="10.00" fill="#2d3436">Still stale after</text>
<text xml:space="preserve" text-anchor="middle" x="653" y="-1542" font-family="Helvetica Neue,Helvetica,Arial" font-size="10.00" fill="#2d3436">correction?</text>
</g>
<!-- DRIFT_FIX&#45;&gt;STILL_STALE -->
<g id="edge11" class="edge">
<title>DRIFT_FIX&#45;&gt;STILL_STALE</title>
<path fill="none" stroke="#2d3436" stroke-width="1.5" d="M653,-1637.15C653,-1625.88 653,-1610.79 653,-1596.48"/>
<polygon fill="#2d3436" stroke="#2d3436" stroke-width="1.5" points="656.5,-1596.49 653,-1586.49 649.5,-1596.49 656.5,-1596.49"/>
</g>
<!-- STILL_STALE&#45;&gt;CLASSIFY -->
<g id="edge13" class="edge">
<title>STILL_STALE&#45;&gt;CLASSIFY</title>
<path fill="none" stroke="#00b894" stroke-width="1.5" d="M632.59,-1526.73C619.26,-1511.2 601.84,-1490.91 588.02,-1474.81"/>
<polygon fill="#00b894" stroke="#00b894" stroke-width="1.5" points="591,-1472.91 581.83,-1467.61 585.69,-1477.47 591,-1472.91"/>
<text xml:space="preserve" text-anchor="middle" x="612.36" y="-1489.9" font-family="Helvetica Neue,Helvetica,Arial" font-size="8.00" fill="#00b894">Yes</text>
</g>
<!-- STILL_STALE&#45;&gt;NEXT -->
<g id="edge12" class="edge">
<title>STILL_STALE&#45;&gt;NEXT</title>
<path fill="none" stroke="#d63031" stroke-width="1.5" d="M695.66,-1535.94C732.21,-1520.43 779,-1491.99 779,-1448 779,-1448 779,-1448 779,-98 779,-33.68 562.48,-21.54 460.71,-19.38"/>
<polygon fill="#d63031" stroke="#d63031" stroke-width="1.5" points="460.93,-15.89 450.87,-19.2 460.8,-22.88 460.93,-15.89"/>
<text xml:space="preserve" text-anchor="middle" x="797.75" y="-812.65" font-family="Helvetica Neue,Helvetica,Arial" font-size="8.00" fill="#d63031">No — skip</text>
</g>
<!-- C1 -->
<g id="node12" class="node">
<title>C1</title>
<path fill="#dfe6e9" stroke="black" d="M619.88,-1384C619.88,-1384 510.12,-1384 510.12,-1384 504.12,-1384 498.12,-1378 498.12,-1372 498.12,-1372 498.12,-1360 498.12,-1360 498.12,-1354 504.12,-1348 510.12,-1348 510.12,-1348 619.88,-1348 619.88,-1348 625.88,-1348 631.88,-1354 631.88,-1360 631.88,-1360 631.88,-1372 631.88,-1372 631.88,-1378 625.88,-1384 619.88,-1384"/>
<text xml:space="preserve" text-anchor="middle" x="565" y="-1368.5" font-family="Helvetica Neue,Helvetica,Arial" font-size="10.00" fill="#2d3436">1. Merge conflict?</text>
<text xml:space="preserve" text-anchor="middle" x="565" y="-1356.5" font-family="Helvetica Neue,Helvetica,Arial" font-size="10.00" fill="#2d3436">→ CLOSE_AND_REOPEN</text>
</g>
<!-- CLASSIFY&#45;&gt;C1 -->
<g id="edge15" class="edge">
<title>CLASSIFY&#45;&gt;C1</title>
<path fill="none" stroke="#2d3436" stroke-width="1.5" d="M565,-1428.07C565,-1418.75 565,-1407.12 565,-1396.51"/>
<polygon fill="#2d3436" stroke="#2d3436" stroke-width="1.5" points="568.5,-1396.58 565,-1386.58 561.5,-1396.58 568.5,-1396.58"/>
</g>
<!-- C2 -->
<g id="node13" class="node">
<title>C2</title>
<path fill="#dfe6e9" stroke="black" d="M304.5,-1293.5C304.5,-1293.5 213.5,-1293.5 213.5,-1293.5 207.5,-1293.5 201.5,-1287.5 201.5,-1281.5 201.5,-1281.5 201.5,-1269.5 201.5,-1269.5 201.5,-1263.5 207.5,-1257.5 213.5,-1257.5 213.5,-1257.5 304.5,-1257.5 304.5,-1257.5 310.5,-1257.5 316.5,-1263.5 316.5,-1269.5 316.5,-1269.5 316.5,-1281.5 316.5,-1281.5 316.5,-1287.5 310.5,-1293.5 304.5,-1293.5"/>
<text xml:space="preserve" text-anchor="middle" x="259" y="-1278" font-family="Helvetica Neue,Helvetica,Arial" font-size="10.00" fill="#2d3436">2. Branch behind?</text>
<text xml:space="preserve" text-anchor="middle" x="259" y="-1266" font-family="Helvetica Neue,Helvetica,Arial" font-size="10.00" fill="#2d3436">→ UPDATE_BRANCH</text>
</g>
<!-- C1&#45;&gt;C2 -->
<g id="edge16" class="edge">
<title>C1&#45;&gt;C2</title>
<path fill="none" stroke="#636e72" d="M504.54,-1347.52C453.73,-1332.82 381.1,-1311.81 328.01,-1296.46"/>
<polygon fill="#636e72" stroke="#636e72" points="329.03,-1293.11 318.45,-1293.69 327.08,-1299.83 329.03,-1293.11"/>
<text xml:space="preserve" text-anchor="middle" x="425.68" y="-1318.4" font-family="Helvetica Neue,Helvetica,Arial" font-size="8.00" fill="#636e72">no</text>
</g>
<!-- BUDGET -->
<g id="node22" class="node">
<title>BUDGET</title>
<polygon fill="#ffeaa7" stroke="black" stroke-width="2" points="280,-652 206.25,-620 280,-588 353.75,-620 280,-652"/>
<text xml:space="preserve" text-anchor="middle" x="280" y="-622.5" font-family="Helvetica Neue,Helvetica,Arial" font-size="10.00" fill="#2d3436">Retry budget</text>
<text xml:space="preserve" text-anchor="middle" x="280" y="-610.5" font-family="Helvetica Neue,Helvetica,Arial" font-size="10.00" fill="#2d3436">exhausted?</text>
</g>
<!-- C1&#45;&gt;BUDGET -->
<g id="edge25" class="edge">
<title>C1&#45;&gt;BUDGET</title>
<path fill="none" stroke="#00b894" stroke-width="1.5" d="M622.9,-1347.57C654.8,-1334.01 688,-1311.49 688,-1276.5 688,-1276.5 688,-1276.5 688,-768.75 688,-619.03 517.34,-687.98 372,-652 358.46,-648.65 344.06,-644.22 330.77,-639.77"/>
<polygon fill="#00b894" stroke="#00b894" stroke-width="1.5" points="332.17,-636.55 321.58,-636.61 329.9,-643.17 332.17,-636.55"/>
<text xml:space="preserve" text-anchor="middle" x="694" y="-1001.65" font-family="Helvetica Neue,Helvetica,Arial" font-size="8.00" fill="#00b894">yes</text>
</g>
<!-- C3 -->
<g id="node14" class="node">
<title>C3</title>
<path fill="#dfe6e9" stroke="black" d="M316.12,-1203C316.12,-1203 201.88,-1203 201.88,-1203 195.88,-1203 189.88,-1197 189.88,-1191 189.88,-1191 189.88,-1179 189.88,-1179 189.88,-1173 195.88,-1167 201.88,-1167 201.88,-1167 316.12,-1167 316.12,-1167 322.12,-1167 328.12,-1173 328.12,-1179 328.12,-1179 328.12,-1191 328.12,-1191 328.12,-1197 322.12,-1203 316.12,-1203"/>
<text xml:space="preserve" text-anchor="middle" x="259" y="-1187.5" font-family="Helvetica Neue,Helvetica,Arial" font-size="10.00" fill="#2d3436">3. Checks failed (transient)?</text>
<text xml:space="preserve" text-anchor="middle" x="259" y="-1175.5" font-family="Helvetica Neue,Helvetica,Arial" font-size="10.00" fill="#2d3436">→ RETRY_CHECKS</text>
</g>
<!-- C2&#45;&gt;C3 -->
<g id="edge17" class="edge">
<title>C2&#45;&gt;C3</title>
<path fill="none" stroke="#636e72" d="M259,-1257.02C259,-1245.02 259,-1228.81 259,-1214.91"/>
<polygon fill="#636e72" stroke="#636e72" points="262.5,-1214.96 259,-1204.96 255.5,-1214.96 262.5,-1214.96"/>
<text xml:space="preserve" text-anchor="middle" x="263.5" y="-1227.9" font-family="Helvetica Neue,Helvetica,Arial" font-size="8.00" fill="#636e72">no</text>
</g>
<!-- C2&#45;&gt;BUDGET -->
<g id="edge26" class="edge">
<title>C2&#45;&gt;BUDGET</title>
<path fill="none" stroke="#00b894" stroke-width="1.5" d="M201.23,-1270.63C146.94,-1263.48 74,-1243.23 74,-1186 74,-1186 74,-1186 74,-723.5 74,-662.68 146.87,-637.95 205.93,-627.89"/>
<polygon fill="#00b894" stroke="#00b894" stroke-width="1.5" points="206.33,-631.37 215.67,-626.37 205.25,-624.45 206.33,-631.37"/>
<text xml:space="preserve" text-anchor="middle" x="80" y="-956.4" font-family="Helvetica Neue,Helvetica,Arial" font-size="8.00" fill="#00b894">yes</text>
</g>
<!-- C4 -->
<g id="node15" class="node">
<title>C4</title>
<path fill="#dfe6e9" stroke="black" d="M391.12,-1112.5C391.12,-1112.5 270.88,-1112.5 270.88,-1112.5 264.88,-1112.5 258.88,-1106.5 258.88,-1100.5 258.88,-1100.5 258.88,-1088.5 258.88,-1088.5 258.88,-1082.5 264.88,-1076.5 270.88,-1076.5 270.88,-1076.5 391.12,-1076.5 391.12,-1076.5 397.12,-1076.5 403.12,-1082.5 403.12,-1088.5 403.12,-1088.5 403.12,-1100.5 403.12,-1100.5 403.12,-1106.5 397.12,-1112.5 391.12,-1112.5"/>
<text xml:space="preserve" text-anchor="middle" x="331" y="-1097" font-family="Helvetica Neue,Helvetica,Arial" font-size="10.00" fill="#2d3436">4. Checks failed (persistent)?</text>
<text xml:space="preserve" text-anchor="middle" x="331" y="-1085" font-family="Helvetica Neue,Helvetica,Arial" font-size="10.00" fill="#2d3436">→ NEEDS_INTERVENTION</text>
</g>
<!-- C3&#45;&gt;C4 -->
<g id="edge18" class="edge">
<title>C3&#45;&gt;C4</title>
<path fill="none" stroke="#636e72" d="M273.22,-1166.52C283.68,-1153.67 298.05,-1136 309.85,-1121.5"/>
<polygon fill="#636e72" stroke="#636e72" points="312.25,-1124.09 315.85,-1114.12 306.82,-1119.67 312.25,-1124.09"/>
<text xml:space="preserve" text-anchor="middle" x="301.66" y="-1137.4" font-family="Helvetica Neue,Helvetica,Arial" font-size="8.00" fill="#636e72">no</text>
</g>
<!-- C3&#45;&gt;BUDGET -->
<g id="edge27" class="edge">
<title>C3&#45;&gt;BUDGET</title>
<path fill="none" stroke="#00b894" stroke-width="1.5" d="M220.77,-1166.54C194.74,-1151.74 165,-1127.78 165,-1095.5 165,-1095.5 165,-1095.5 165,-957.75 165,-842.6 225.97,-716.6 259.12,-656.61"/>
<polygon fill="#00b894" stroke="#00b894" stroke-width="1.5" points="262.01,-658.6 263.85,-648.17 255.91,-655.18 262.01,-658.6"/>
<text xml:space="preserve" text-anchor="middle" x="177.13" y="-907.15" font-family="Helvetica Neue,Helvetica,Arial" font-size="8.00" fill="#00b894">yes</text>
</g>
<!-- C5 -->
<g id="node16" class="node">
<title>C5</title>
<path fill="#dfe6e9" stroke="black" d="M381.75,-1022C381.75,-1022 280.25,-1022 280.25,-1022 274.25,-1022 268.25,-1016 268.25,-1010 268.25,-1010 268.25,-998 268.25,-998 268.25,-992 274.25,-986 280.25,-986 280.25,-986 381.75,-986 381.75,-986 387.75,-986 393.75,-992 393.75,-998 393.75,-998 393.75,-1010 393.75,-1010 393.75,-1016 387.75,-1022 381.75,-1022"/>
<text xml:space="preserve" text-anchor="middle" x="331" y="-1006.5" font-family="Helvetica Neue,Helvetica,Arial" font-size="10.00" fill="#2d3436">5. Policy Bot stale?</text>
<text xml:space="preserve" text-anchor="middle" x="331" y="-994.5" font-family="Helvetica Neue,Helvetica,Arial" font-size="10.00" fill="#2d3436">→ RETRIGGER_POLICY</text>
</g>
<!-- C4&#45;&gt;C5 -->
<g id="edge19" class="edge">
<title>C4&#45;&gt;C5</title>
<path fill="none" stroke="#636e72" d="M331,-1076.02C331,-1064.02 331,-1047.81 331,-1033.91"/>
<polygon fill="#636e72" stroke="#636e72" points="334.5,-1033.96 331,-1023.96 327.5,-1033.96 334.5,-1033.96"/>
<text xml:space="preserve" text-anchor="middle" x="335.5" y="-1046.9" font-family="Helvetica Neue,Helvetica,Arial" font-size="8.00" fill="#636e72">no</text>
</g>
<!-- ESCALATE -->
<g id="node23" class="node">
<title>ESCALATE</title>
<path fill="#d63031" stroke="black" stroke-width="2" d="M484.5,-421C484.5,-421 369.5,-421 369.5,-421 363.5,-421 357.5,-415 357.5,-409 357.5,-409 357.5,-397 357.5,-397 357.5,-391 363.5,-385 369.5,-385 369.5,-385 484.5,-385 484.5,-385 490.5,-385 496.5,-391 496.5,-397 496.5,-397 496.5,-409 496.5,-409 496.5,-415 490.5,-421 484.5,-421"/>
<text xml:space="preserve" text-anchor="middle" x="427" y="-405.5" font-family="Helvetica Neue,Helvetica,Arial" font-size="10.00" fill="#ffffff">→ NEEDS_INTERVENTION</text>
<text xml:space="preserve" text-anchor="middle" x="427" y="-393.5" font-family="Helvetica Neue,Helvetica,Arial" font-size="10.00" fill="#ffffff">Send escalation notification</text>
</g>
<!-- C4&#45;&gt;ESCALATE -->
<g id="edge32" class="edge">
<title>C4&#45;&gt;ESCALATE</title>
<path fill="none" stroke="#d63031" stroke-width="1.5" d="M351.97,-1076.28C368.73,-1062.22 392.56,-1041.55 412,-1022 499.04,-934.47 527.45,-897.9 539,-775 550.92,-648.22 570.7,-604.01 515,-489.5 503.34,-465.52 482.04,-444.55 463.32,-429.38"/>
<polygon fill="#d63031" stroke="#d63031" stroke-width="1.5" points="465.66,-426.76 455.62,-423.38 461.36,-432.29 465.66,-426.76"/>
<text xml:space="preserve" text-anchor="middle" x="546" y="-767.4" font-family="Helvetica Neue,Helvetica,Arial" font-size="8.00" fill="#d63031">yes</text>
</g>
<!-- C6 -->
<g id="node17" class="node">
<title>C6</title>
<path fill="#dfe6e9" stroke="black" d="M461,-931.5C461,-931.5 343,-931.5 343,-931.5 337,-931.5 331,-925.5 331,-919.5 331,-919.5 331,-899.5 331,-899.5 331,-893.5 337,-887.5 343,-887.5 343,-887.5 461,-887.5 461,-887.5 467,-887.5 473,-893.5 473,-899.5 473,-899.5 473,-919.5 473,-919.5 473,-925.5 467,-931.5 461,-931.5"/>
<text xml:space="preserve" text-anchor="middle" x="402" y="-918" font-family="Helvetica Neue,Helvetica,Arial" font-size="10.00" fill="#2d3436">6. SOD failure?</text>
<text xml:space="preserve" text-anchor="middle" x="402" y="-906" font-family="Helvetica Neue,Helvetica,Arial" font-size="10.00" fill="#2d3436">(Policy Bot or Approver Bot)</text>
<text xml:space="preserve" text-anchor="middle" x="402" y="-894" font-family="Helvetica Neue,Helvetica,Arial" font-size="10.00" fill="#2d3436">→ RETRIGGER_SOD</text>
</g>
<!-- C5&#45;&gt;C6 -->
<g id="edge20" class="edge">
<title>C5&#45;&gt;C6</title>
<path fill="none" stroke="#636e72" d="M344.35,-985.6C354.07,-972.95 367.46,-955.49 378.9,-940.6"/>
<polygon fill="#636e72" stroke="#636e72" points="381.48,-942.98 384.79,-932.92 375.93,-938.72 381.48,-942.98"/>
<text xml:space="preserve" text-anchor="middle" x="373.13" y="-956.4" font-family="Helvetica Neue,Helvetica,Arial" font-size="8.00" fill="#636e72">no</text>
</g>
<!-- C5&#45;&gt;BUDGET -->
<g id="edge28" class="edge">
<title>C5&#45;&gt;BUDGET</title>
<path fill="none" stroke="#00b894" stroke-width="1.5" d="M325.94,-985.51C321.94,-971.11 316.46,-950.13 313,-931.5 295.41,-836.96 286.35,-724.36 282.45,-664.12"/>
<polygon fill="#00b894" stroke="#00b894" stroke-width="1.5" points="285.96,-664.11 281.84,-654.35 278.97,-664.55 285.96,-664.11"/>
<text xml:space="preserve" text-anchor="middle" x="303.9" y="-812.65" font-family="Helvetica Neue,Helvetica,Arial" font-size="8.00" fill="#00b894">yes</text>
</g>
<!-- C7 -->
<g id="node18" class="node">
<title>C7</title>
<path fill="#dfe6e9" stroke="black" d="M461.38,-833C461.38,-833 342.62,-833 342.62,-833 336.62,-833 330.62,-827 330.62,-821 330.62,-821 330.62,-809 330.62,-809 330.62,-803 336.62,-797 342.62,-797 342.62,-797 461.38,-797 461.38,-797 467.38,-797 473.38,-803 473.38,-809 473.38,-809 473.38,-821 473.38,-821 473.38,-827 467.38,-833 461.38,-833"/>
<text xml:space="preserve" text-anchor="middle" x="402" y="-817.5" font-family="Helvetica Neue,Helvetica,Arial" font-size="10.00" fill="#2d3436">7. Approver Bot stale?</text>
<text xml:space="preserve" text-anchor="middle" x="402" y="-805.5" font-family="Helvetica Neue,Helvetica,Arial" font-size="10.00" fill="#2d3436">→ RETRIGGER_APPROVER</text>
</g>
<!-- C6&#45;&gt;C7 -->
<g id="edge21" class="edge">
<title>C6&#45;&gt;C7</title>
<path fill="none" stroke="#636e72" d="M402,-887.05C402,-874.41 402,-858.28 402,-844.58"/>
<polygon fill="#636e72" stroke="#636e72" points="405.5,-844.83 402,-834.83 398.5,-844.83 405.5,-844.83"/>
<text xml:space="preserve" text-anchor="middle" x="406.5" y="-857.9" font-family="Helvetica Neue,Helvetica,Arial" font-size="8.00" fill="#636e72">no</text>
</g>
<!-- C6&#45;&gt;BUDGET -->
<g id="edge29" class="edge">
<title>C6&#45;&gt;BUDGET</title>
<path fill="none" stroke="#00b894" stroke-width="1.5" d="M438.08,-887.2C457.02,-874.05 478.77,-855.41 491,-833 518.05,-783.43 530.59,-755.78 503,-706.5 472.2,-651.48 432.24,-670.63 372,-652 359.06,-648 345.17,-643.45 332.21,-639.1"/>
<polygon fill="#00b894" stroke="#00b894" stroke-width="1.5" points="333.36,-635.79 322.77,-635.9 331.12,-642.42 333.36,-635.79"/>
<text xml:space="preserve" text-anchor="middle" x="524.08" y="-767.4" font-family="Helvetica Neue,Helvetica,Arial" font-size="8.00" fill="#00b894">yes</text>
</g>
<!-- C8 -->
<g id="node19" class="node">
<title>C8</title>
<path fill="#dfe6e9" stroke="black" d="M473.38,-742.5C473.38,-742.5 372.62,-742.5 372.62,-742.5 366.62,-742.5 360.62,-736.5 360.62,-730.5 360.62,-730.5 360.62,-718.5 360.62,-718.5 360.62,-712.5 366.62,-706.5 372.62,-706.5 372.62,-706.5 473.38,-706.5 473.38,-706.5 479.38,-706.5 485.38,-712.5 485.38,-718.5 485.38,-718.5 485.38,-730.5 485.38,-730.5 485.38,-736.5 479.38,-742.5 473.38,-742.5"/>
<text xml:space="preserve" text-anchor="middle" x="423" y="-727" font-family="Helvetica Neue,Helvetica,Arial" font-size="10.00" fill="#2d3436">8. Automerge stale?</text>
<text xml:space="preserve" text-anchor="middle" x="423" y="-715" font-family="Helvetica Neue,Helvetica,Arial" font-size="10.00" fill="#2d3436">→ RETRIGGER_MERGE</text>
</g>
<!-- C7&#45;&gt;C8 -->
<g id="edge22" class="edge">
<title>C7&#45;&gt;C8</title>
<path fill="none" stroke="#636e72" d="M406.15,-796.52C409.03,-784.39 412.92,-767.98 416.24,-753.99"/>
<polygon fill="#636e72" stroke="#636e72" points="419.61,-754.96 418.51,-744.42 412.8,-753.34 419.61,-754.96"/>
<text xml:space="preserve" text-anchor="middle" x="417.63" y="-767.4" font-family="Helvetica Neue,Helvetica,Arial" font-size="8.00" fill="#636e72">no</text>
</g>
<!-- C7&#45;&gt;BUDGET -->
<g id="edge30" class="edge">
<title>C7&#45;&gt;BUDGET</title>
<path fill="none" stroke="#00b894" stroke-width="1.5" d="M380.84,-796.66C365.43,-783.16 344.91,-763.29 331,-742.5 314.06,-717.17 300.94,-685.31 292.25,-660.57"/>
<polygon fill="#00b894" stroke="#00b894" stroke-width="1.5" points="295.6,-659.55 289.07,-651.2 288.97,-661.8 295.6,-659.55"/>
<text xml:space="preserve" text-anchor="middle" x="337" y="-722.15" font-family="Helvetica Neue,Helvetica,Arial" font-size="8.00" fill="#00b894">yes</text>
</g>
<!-- C9 -->
<g id="node20" class="node">
<title>C9</title>
<path fill="#b2bec3" stroke="black" d="M481.88,-638C481.88,-638 402.12,-638 402.12,-638 396.12,-638 390.12,-632 390.12,-626 390.12,-626 390.12,-614 390.12,-614 390.12,-608 396.12,-602 402.12,-602 402.12,-602 481.88,-602 481.88,-602 487.88,-602 493.88,-608 493.88,-614 493.88,-614 493.88,-626 493.88,-626 493.88,-632 487.88,-638 481.88,-638"/>
<text xml:space="preserve" text-anchor="middle" x="442" y="-622.5" font-family="Helvetica Neue,Helvetica,Arial" font-size="10.00" fill="#2d3436">9. Within threshold?</text>
<text xml:space="preserve" text-anchor="middle" x="442" y="-610.5" font-family="Helvetica Neue,Helvetica,Arial" font-size="10.00" fill="#2d3436">→ NO_ACTION</text>
</g>
<!-- C8&#45;&gt;C9 -->
<g id="edge23" class="edge">
<title>C8&#45;&gt;C9</title>
<path fill="none" stroke="#636e72" d="M426.22,-706.11C429.09,-690.65 433.33,-667.75 436.7,-649.59"/>
<polygon fill="#636e72" stroke="#636e72" points="440.1,-650.43 438.49,-639.96 433.22,-649.16 440.1,-650.43"/>
<text xml:space="preserve" text-anchor="middle" x="436.43" y="-676.9" font-family="Helvetica Neue,Helvetica,Arial" font-size="8.00" fill="#636e72">no</text>
</g>
<!-- C8&#45;&gt;BUDGET -->
<g id="edge31" class="edge">
<title>C8&#45;&gt;BUDGET</title>
<path fill="none" stroke="#00b894" stroke-width="1.5" d="M398.74,-706.11C376.51,-690.18 343.26,-666.34 317.59,-647.94"/>
<polygon fill="#00b894" stroke="#00b894" stroke-width="1.5" points="319.82,-645.24 309.66,-642.26 315.74,-650.93 319.82,-645.24"/>
<text xml:space="preserve" text-anchor="middle" x="374.51" y="-676.9" font-family="Helvetica Neue,Helvetica,Arial" font-size="8.00" fill="#00b894">yes</text>
</g>
<!-- C10 -->
<g id="node21" class="node">
<title>C10</title>
<path fill="#dfe6e9" stroke="black" d="M485.12,-529.5C485.12,-529.5 370.88,-529.5 370.88,-529.5 364.88,-529.5 358.88,-523.5 358.88,-517.5 358.88,-517.5 358.88,-505.5 358.88,-505.5 358.88,-499.5 364.88,-493.5 370.88,-493.5 370.88,-493.5 485.12,-493.5 485.12,-493.5 491.12,-493.5 497.12,-499.5 497.12,-505.5 497.12,-505.5 497.12,-517.5 497.12,-517.5 497.12,-523.5 491.12,-529.5 485.12,-529.5"/>
<text xml:space="preserve" text-anchor="middle" x="428" y="-514" font-family="Helvetica Neue,Helvetica,Arial" font-size="10.00" fill="#2d3436">10. Fallthrough</text>
<text xml:space="preserve" text-anchor="middle" x="428" y="-502" font-family="Helvetica Neue,Helvetica,Arial" font-size="10.00" fill="#2d3436">→ NEEDS_INTERVENTION</text>
</g>
<!-- C9&#45;&gt;C10 -->
<g id="edge24" class="edge">
<title>C9&#45;&gt;C10</title>
<path fill="none" stroke="#636e72" d="M439.75,-601.89C437.6,-585.53 434.32,-560.55 431.77,-541.15"/>
<polygon fill="#636e72" stroke="#636e72" points="435.26,-540.88 430.49,-531.42 428.32,-541.79 435.26,-540.88"/>
<text xml:space="preserve" text-anchor="middle" x="439.5" y="-558.4" font-family="Helvetica Neue,Helvetica,Arial" font-size="8.00" fill="#636e72">no</text>
</g>
<!-- C9&#45;&gt;NEXT -->
<g id="edge34" class="edge">
<title>C9&#45;&gt;NEXT</title>
<path fill="none" stroke="#636e72" d="M479.86,-601.59C511.67,-584.05 552,-553.7 552,-512.5 552,-512.5 552,-512.5 552,-98 552,-54.57 500.85,-34.83 459.73,-25.98"/>
<polygon fill="#636e72" stroke="#636e72" points="460.43,-22.55 449.94,-24.06 459.08,-29.42 460.43,-22.55"/>
<text xml:space="preserve" text-anchor="middle" x="558" y="-296.15" font-family="Helvetica Neue,Helvetica,Arial" font-size="8.00" fill="#636e72">yes</text>
</g>
<!-- C10&#45;&gt;ESCALATE -->
<g id="edge33" class="edge">
<title>C10&#45;&gt;ESCALATE</title>
<path fill="none" stroke="#d63031" stroke-width="1.5" d="M427.84,-493.39C427.69,-477.36 427.46,-453.05 427.28,-433.82"/>
<polygon fill="#d63031" stroke="#d63031" stroke-width="1.5" points="430.78,-434.02 427.19,-424.05 423.78,-434.08 430.78,-434.02"/>
<text xml:space="preserve" text-anchor="middle" x="443.34" y="-459.9" font-family="Helvetica Neue,Helvetica,Arial" font-size="8.00" fill="#d63031">matched</text>
</g>
<!-- BUDGET&#45;&gt;ESCALATE -->
<g id="edge35" class="edge">
<title>BUDGET&#45;&gt;ESCALATE</title>
<path fill="none" stroke="#d63031" stroke-width="1.5" d="M278.91,-587.52C279.41,-559.67 283.81,-518.98 302.75,-489.5 320.02,-462.61 349.07,-441.92 374.74,-427.64"/>
<polygon fill="#d63031" stroke="#d63031" stroke-width="1.5" points="376.31,-430.77 383.49,-422.98 373.02,-424.59 376.31,-430.77"/>
<text xml:space="preserve" text-anchor="middle" x="321.88" y="-509.15" font-family="Helvetica Neue,Helvetica,Arial" font-size="8.00" fill="#d63031">Exhausted</text>
</g>
<!-- DISPATCH -->
<g id="node24" class="node">
<title>DISPATCH</title>
<path fill="#55efc4" stroke="black" stroke-width="2" d="M201.38,-533.5C201.38,-533.5 100.62,-533.5 100.62,-533.5 94.62,-533.5 88.62,-527.5 88.62,-521.5 88.62,-521.5 88.62,-501.5 88.62,-501.5 88.62,-495.5 94.62,-489.5 100.62,-489.5 100.62,-489.5 201.38,-489.5 201.38,-489.5 207.38,-489.5 213.38,-495.5 213.38,-501.5 213.38,-501.5 213.38,-521.5 213.38,-521.5 213.38,-527.5 207.38,-533.5 201.38,-533.5"/>
<text xml:space="preserve" text-anchor="middle" x="151" y="-520" font-family="Helvetica Neue,Helvetica,Arial" font-size="10.00" fill="#2d3436">Execute remediation</text>
<text xml:space="preserve" text-anchor="middle" x="151" y="-508" font-family="Helvetica Neue,Helvetica,Arial" font-size="10.00" fill="#2d3436">Emit command to queue</text>
<text xml:space="preserve" text-anchor="middle" x="151" y="-496" font-family="Helvetica Neue,Helvetica,Arial" font-size="10.00" fill="#2d3436">Increment retry count</text>
</g>
<!-- BUDGET&#45;&gt;DISPATCH -->
<g id="edge36" class="edge">
<title>BUDGET&#45;&gt;DISPATCH</title>
<path fill="none" stroke="#00b894" stroke-width="1.5" d="M254.82,-598.21C235.4,-582.18 208.3,-559.81 186.65,-541.94"/>
<polygon fill="#00b894" stroke="#00b894" stroke-width="1.5" points="189.14,-539.45 179.2,-535.78 184.68,-544.84 189.14,-539.45"/>
<text xml:space="preserve" text-anchor="middle" x="221.12" y="-558.4" font-family="Helvetica Neue,Helvetica,Arial" font-size="8.00" fill="#00b894">OK</text>
</g>
<!-- ESCALATE&#45;&gt;NEXT -->
<g id="edge37" class="edge">
<title>ESCALATE&#45;&gt;NEXT</title>
<path fill="none" stroke="#2d3436" stroke-width="1.5" d="M431.18,-384.34C435.62,-364 442,-329.53 442,-299.5 442,-299.5 442,-299.5 442,-98 442,-80.23 434.81,-61.83 427.14,-47.27"/>
<polygon fill="#2d3436" stroke="#2d3436" stroke-width="1.5" points="430.38,-45.9 422.41,-38.92 424.29,-49.35 430.38,-45.9"/>
</g>
<!-- OUTCOME -->
<g id="node25" class="node">
<title>OUTCOME</title>
<polygon fill="#ffeaa7" stroke="black" stroke-width="2" points="151,-435 79.5,-403 151,-371 222.5,-403 151,-435"/>
<text xml:space="preserve" text-anchor="middle" x="151" y="-405.5" font-family="Helvetica Neue,Helvetica,Arial" font-size="10.00" fill="#2d3436">Remediation</text>
<text xml:space="preserve" text-anchor="middle" x="151" y="-393.5" font-family="Helvetica Neue,Helvetica,Arial" font-size="10.00" fill="#2d3436">succeeded?</text>
</g>
<!-- DISPATCH&#45;&gt;OUTCOME -->
<g id="edge38" class="edge">
<title>DISPATCH&#45;&gt;OUTCOME</title>
<path fill="none" stroke="#2d3436" stroke-width="1.5" d="M151,-488.69C151,-476.92 151,-461.97 151,-447.91"/>
<polygon fill="#2d3436" stroke="#2d3436" stroke-width="1.5" points="154.5,-448.15 151,-438.15 147.5,-448.15 154.5,-448.15"/>
</g>
<!-- SUCCESS -->
<g id="node26" class="node">
<title>SUCCESS</title>
<path fill="#00b894" stroke="black" stroke-width="2" d="M161.75,-316.5C161.75,-316.5 84.25,-316.5 84.25,-316.5 78.25,-316.5 72.25,-310.5 72.25,-304.5 72.25,-304.5 72.25,-292.5 72.25,-292.5 72.25,-286.5 78.25,-280.5 84.25,-280.5 84.25,-280.5 161.75,-280.5 161.75,-280.5 167.75,-280.5 173.75,-286.5 173.75,-292.5 173.75,-292.5 173.75,-304.5 173.75,-304.5 173.75,-310.5 167.75,-316.5 161.75,-316.5"/>
<text xml:space="preserve" text-anchor="middle" x="123" y="-301" font-family="Helvetica Neue,Helvetica,Arial" font-size="10.00" fill="#ffffff">Update State Table</text>
<text xml:space="preserve" text-anchor="middle" x="123" y="-289" font-family="Helvetica Neue,Helvetica,Arial" font-size="10.00" fill="#ffffff">Log success</text>
</g>
<!-- OUTCOME&#45;&gt;SUCCESS -->
<g id="edge39" class="edge">
<title>OUTCOME&#45;&gt;SUCCESS</title>
<path fill="none" stroke="#00b894" stroke-width="1.5" d="M143.2,-373.45C139.4,-359.52 134.83,-342.79 131,-328.77"/>
<polygon fill="#00b894" stroke="#00b894" stroke-width="1.5" points="134.47,-328.2 128.46,-319.47 127.71,-330.04 134.47,-328.2"/>
<text xml:space="preserve" text-anchor="middle" x="142.16" y="-341.4" font-family="Helvetica Neue,Helvetica,Arial" font-size="8.00" fill="#00b894">Yes</text>
</g>
<!-- FAILURE -->
<g id="node27" class="node">
<title>FAILURE</title>
<path fill="#ff7675" stroke="black" stroke-width="2" d="M338.62,-316.5C338.62,-316.5 221.38,-316.5 221.38,-316.5 215.38,-316.5 209.38,-310.5 209.38,-304.5 209.38,-304.5 209.38,-292.5 209.38,-292.5 209.38,-286.5 215.38,-280.5 221.38,-280.5 221.38,-280.5 338.62,-280.5 338.62,-280.5 344.62,-280.5 350.62,-286.5 350.62,-292.5 350.62,-292.5 350.62,-304.5 350.62,-304.5 350.62,-310.5 344.62,-316.5 338.62,-316.5"/>
<text xml:space="preserve" text-anchor="middle" x="280" y="-301" font-family="Helvetica Neue,Helvetica,Arial" font-size="10.00" fill="#ffffff">Log failure details</text>
<text xml:space="preserve" text-anchor="middle" x="280" y="-289" font-family="Helvetica Neue,Helvetica,Arial" font-size="10.00" fill="#ffffff">Increment CB failure counter</text>
</g>
<!-- OUTCOME&#45;&gt;FAILURE -->
<g id="edge40" class="edge">
<title>OUTCOME&#45;&gt;FAILURE</title>
<path fill="none" stroke="#d63031" stroke-width="1.5" d="M176.8,-381.5C197.33,-365.19 226.16,-342.28 248.13,-324.82"/>
<polygon fill="#d63031" stroke="#d63031" stroke-width="1.5" points="250.26,-327.6 255.91,-318.64 245.91,-322.12 250.26,-327.6"/>
<text xml:space="preserve" text-anchor="middle" x="236.1" y="-341.4" font-family="Helvetica Neue,Helvetica,Arial" font-size="8.00" fill="#d63031">No</text>
</g>
<!-- CB_UPDATE -->
<g id="node28" class="node">
<title>CB_UPDATE</title>
<polygon fill="#ffeaa7" stroke="black" stroke-width="2" points="241,-235.5 167.25,-203.5 241,-171.5 314.75,-203.5 241,-235.5"/>
<text xml:space="preserve" text-anchor="middle" x="241" y="-206" font-family="Helvetica Neue,Helvetica,Arial" font-size="10.00" fill="#2d3436">Failure rate &gt;</text>
<text xml:space="preserve" text-anchor="middle" x="241" y="-194" font-family="Helvetica Neue,Helvetica,Arial" font-size="10.00" fill="#2d3436">threshold?</text>
</g>
<!-- SUCCESS&#45;&gt;CB_UPDATE -->
<g id="edge41" class="edge">
<title>SUCCESS&#45;&gt;CB_UPDATE</title>
<path fill="none" stroke="#2d3436" stroke-width="1.5" d="M145.75,-279.57C162.71,-266.2 186.19,-247.7 205.6,-232.4"/>
<polygon fill="#2d3436" stroke="#2d3436" stroke-width="1.5" points="207.56,-235.31 213.25,-226.37 203.23,-229.81 207.56,-235.31"/>
</g>
<!-- FAILURE&#45;&gt;CB_UPDATE -->
<g id="edge42" class="edge">
<title>FAILURE&#45;&gt;CB_UPDATE</title>
<path fill="none" stroke="#2d3436" stroke-width="1.5" d="M272.48,-279.57C268.06,-269.04 262.31,-255.31 256.93,-242.48"/>
<polygon fill="#2d3436" stroke="#2d3436" stroke-width="1.5" points="260.31,-241.5 253.22,-233.63 253.86,-244.21 260.31,-241.5"/>
</g>
<!-- CB_TRIP -->
<g id="node29" class="node">
<title>CB_TRIP</title>
<path fill="#d63031" stroke="black" stroke-width="2" d="M291.62,-117C291.62,-117 174.38,-117 174.38,-117 168.38,-117 162.38,-111 162.38,-105 162.38,-105 162.38,-93 162.38,-93 162.38,-87 168.38,-81 174.38,-81 174.38,-81 291.62,-81 291.62,-81 297.62,-81 303.62,-87 303.62,-93 303.62,-93 303.62,-105 303.62,-105 303.62,-111 297.62,-117 291.62,-117"/>
<text xml:space="preserve" text-anchor="middle" x="233" y="-101.5" font-family="Helvetica Neue,Helvetica,Arial" font-size="10.00" fill="#ffffff">Trip circuit breaker → OPEN</text>
<text xml:space="preserve" text-anchor="middle" x="233" y="-89.5" font-family="Helvetica Neue,Helvetica,Arial" font-size="10.00" fill="#ffffff">Send notification</text>
</g>
<!-- CB_UPDATE&#45;&gt;CB_TRIP -->
<g id="edge43" class="edge">
<title>CB_UPDATE&#45;&gt;CB_TRIP</title>
<path fill="none" stroke="#d63031" stroke-width="1.5" d="M238.58,-171.47C237.55,-158.3 236.36,-143.01 235.34,-129.96"/>
<polygon fill="#d63031" stroke="#d63031" stroke-width="1.5" points="238.83,-129.78 234.57,-120.08 231.86,-130.32 238.83,-129.78"/>
<text xml:space="preserve" text-anchor="middle" x="242.76" y="-141.9" font-family="Helvetica Neue,Helvetica,Arial" font-size="8.00" fill="#d63031">Yes</text>
</g>
<!-- CB_UPDATE&#45;&gt;NEXT -->
<g id="edge44" class="edge">
<title>CB_UPDATE&#45;&gt;NEXT</title>
<path fill="none" stroke="#00b894" stroke-width="1.5" d="M262.52,-180.18C278.96,-163.04 302.1,-138.7 322,-117 343.8,-93.22 368.15,-65.72 385.52,-45.91"/>
<polygon fill="#00b894" stroke="#00b894" stroke-width="1.5" points="388,-48.4 391.96,-38.57 382.74,-43.78 388,-48.4"/>
<text xml:space="preserve" text-anchor="middle" x="359.45" y="-96.65" font-family="Helvetica Neue,Helvetica,Arial" font-size="8.00" fill="#00b894">No</text>
</g>
<!-- CB_TRIP&#45;&gt;NEXT -->
<g id="edge45" class="edge">
<title>CB_TRIP&#45;&gt;NEXT</title>
<path fill="none" stroke="#2d3436" stroke-width="1.5" d="M272.94,-80.07C298.34,-68.67 331.46,-53.81 358.65,-41.6"/>
<polygon fill="#2d3436" stroke="#2d3436" stroke-width="1.5" points="359.76,-44.94 367.45,-37.65 356.9,-38.55 359.76,-44.94"/>
</g>
</g>
</svg>
