<?xml version="1.0" encoding="UTF-8" standalone="no"?>
<!DOCTYPE svg PUBLIC "-//W3C//DTD SVG 1.1//EN"
 "http://www.w3.org/Graphics/SVG/1.1/DTD/svg11.dtd">
<!-- Generated by graphviz version 14.1.2 (20260124.0452)
 -->
<!-- Title: sequence_command_queue Pages: 1 -->
<svg width="2404pt" height="1532pt"
 viewBox="0.00 0.00 2404.00 1532.00" xmlns="http://www.w3.org/2000/svg" xmlns:xlink="http://www.w3.org/1999/xlink">
<g id="graph0" class="graph" transform="scale(2.08333 2.08333) rotate(0) translate(43.2 692.15)">
<title>sequence_command_queue</title>
<polygon fill="#ffffff" stroke="none" points="-43.2,43.2 -43.2,-692.15 1110.58,-692.15 1110.58,43.2 -43.2,43.2"/>
<text xml:space="preserve" text-anchor="middle" x="533.69" y="-627.85" font-family="Helvetica Neue,Helvetica,Arial" font-size="18.00">Command Queue — Developer Triggers /rebuild</text>
<!-- developer -->
<g id="node1" class="node">
<title>developer</title>
<path fill="#55efc4" stroke="black" stroke-width="2" d="M312.77,-619.2C312.77,-619.2 235.97,-619.2 235.97,-619.2 229.97,-619.2 223.97,-613.2 223.97,-607.2 223.97,-607.2 223.97,-588 223.97,-588 223.97,-582 229.97,-576 235.97,-576 235.97,-576 312.77,-576 312.77,-576 318.77,-576 324.77,-582 324.77,-588 324.77,-588 324.77,-607.2 324.77,-607.2 324.77,-613.2 318.77,-619.2 312.77,-619.2"/>
<text xml:space="preserve" text-anchor="middle" x="274.38" y="-593.7" font-family="Helvetica Neue,Helvetica,Arial" font-size="12.00" fill="#2d3436">Developer</text>
</g>
<!-- github -->
<g id="node2" class="node">
<title>github</title>
<path fill="#2d3436" stroke="black" stroke-width="2" d="M449.77,-619.2C449.77,-619.2 372.98,-619.2 372.98,-619.2 366.98,-619.2 360.98,-613.2 360.98,-607.2 360.98,-607.2 360.98,-588 360.98,-588 360.98,-582 366.98,-576 372.98,-576 372.98,-576 449.77,-576 449.77,-576 455.77,-576 461.77,-582 461.77,-588 461.77,-588 461.77,-607.2 461.77,-607.2 461.77,-613.2 455.77,-619.2 449.77,-619.2"/>
<text xml:space="preserve" text-anchor="middle" x="411.38" y="-593.7" font-family="Helvetica Neue,Helvetica,Arial" font-size="12.00" fill="#ffffff">GitHub</text>
</g>
<!-- developer&#45;&gt;github -->
<!-- cq_step_0 -->
<g id="node7" class="node">
<title>cq_step_0</title>
<text xml:space="preserve" text-anchor="middle" x="50.38" y="-519.08" font-family="Helvetica Neue,Helvetica,Arial" font-size="9.00" fill="#55efc4">1. Comment: /rebuild</text>
</g>
<!-- developer&#45;&gt;cq_step_0 -->
<!-- car_bridge -->
<g id="node3" class="node">
<title>car_bridge</title>
<path fill="#6c5ce7" stroke="black" stroke-width="2" d="M586.77,-619.2C586.77,-619.2 509.98,-619.2 509.98,-619.2 503.98,-619.2 497.98,-613.2 497.98,-607.2 497.98,-607.2 497.98,-588 497.98,-588 497.98,-582 503.98,-576 509.98,-576 509.98,-576 586.77,-576 586.77,-576 592.77,-576 598.77,-582 598.77,-588 598.77,-588 598.77,-607.2 598.77,-607.2 598.77,-613.2 592.77,-619.2 586.77,-619.2"/>
<text xml:space="preserve" text-anchor="middle" x="548.38" y="-593.7" font-family="Helvetica Neue,Helvetica,Arial" font-size="12.00" fill="#ffffff">Car Bridge</text>
</g>
<!-- github&#45;&gt;car_bridge -->
<!-- cq_step_1 -->
<g id="node8" class="node">
<title>cq_step_1</title>
<text xml:space="preserve" text-anchor="middle" x="165.38" y="-447.07" font-family="Helvetica Neue,Helvetica,Arial" font-size="9.00" fill="#2d3436">2. issue_comment webhook</text>
</g>
<!-- github&#45;&gt;cq_step_1 -->
<!-- cmd_queue -->
<g id="node4" class="node">
<title>cmd_queue</title>
<path fill="#6c5ce7" stroke="black" stroke-width="2" d="M723.77,-619.2C723.77,-619.2 646.98,-619.2 646.98,-619.2 640.98,-619.2 634.98,-613.2 634.98,-607.2 634.98,-607.2 634.98,-588 634.98,-588 634.98,-582 640.98,-576 646.98,-576 646.98,-576 723.77,-576 723.77,-576 729.77,-576 735.77,-582 735.77,-588 735.77,-588 735.77,-607.2 735.77,-607.2 735.77,-613.2 729.77,-619.2 723.77,-619.2"/>
<text xml:space="preserve" text-anchor="middle" x="685.38" y="-601.2" font-family="Helvetica Neue,Helvetica,Arial" font-size="12.00" fill="#ffffff">Command</text>
<text xml:space="preserve" text-anchor="middle" x="685.38" y="-586.2" font-family="Helvetica Neue,Helvetica,Arial" font-size="12.00" fill="#ffffff">Queue</text>
</g>
<!-- car_bridge&#45;&gt;cmd_queue -->
<!-- cq_step_2 -->
<g id="node9" class="node">
<title>cq_step_2</title>
<text xml:space="preserve" text-anchor="middle" x="548.38" y="-375.07" font-family="Helvetica Neue,Helvetica,Arial" font-size="9.00" fill="#6c5ce7">3. Detect slash command</text>
</g>
<!-- car_bridge&#45;&gt;cq_step_2 -->
<!-- cq_step_3 -->
<g id="node10" class="node">
<title>cq_step_3</title>
<text xml:space="preserve" text-anchor="middle" x="552.38" y="-303.07" font-family="Helvetica Neue,Helvetica,Arial" font-size="9.00" fill="#6c5ce7">4. Emit command message</text>
</g>
<!-- car_bridge&#45;&gt;cq_step_3 -->
<!-- cq_step_5 -->
<g id="node12" class="node">
<title>cq_step_5</title>
<text xml:space="preserve" text-anchor="middle" x="552.38" y="-164.7" font-family="Helvetica Neue,Helvetica,Arial" font-size="9.00" fill="#6c5ce7">6. Validate: PR open,</text>
<text xml:space="preserve" text-anchor="middle" x="552.38" y="-153.45" font-family="Helvetica Neue,Helvetica,Arial" font-size="9.00" fill="#6c5ce7"> &#160;&#160;&#160;state allows rebuild</text>
</g>
<!-- car_bridge&#45;&gt;cq_step_5 -->
<!-- cq_step_6 -->
<g id="node13" class="node">
<title>cq_step_6</title>
<text xml:space="preserve" text-anchor="middle" x="552.38" y="-87.08" font-family="Helvetica Neue,Helvetica,Arial" font-size="9.00" fill="#636e72">7. Trigger rebuild</text>
</g>
<!-- car_bridge&#45;&gt;cq_step_6 -->
<!-- cq_step_7 -->
<g id="node14" class="node">
<title>cq_step_7</title>
<text xml:space="preserve" text-anchor="middle" x="552.38" y="-15.07" font-family="Helvetica Neue,Helvetica,Arial" font-size="9.00" fill="#fdcb6e">8. Log: COMMAND_RECEIVED</text>
</g>
<!-- car_bridge&#45;&gt;cq_step_7 -->
<!-- jenkins -->
<g id="node5" class="node">
<title>jenkins</title>
<path fill="#636e72" stroke="black" stroke-width="2" d="M860.77,-619.2C860.77,-619.2 783.98,-619.2 783.98,-619.2 777.98,-619.2 771.98,-613.2 771.98,-607.2 771.98,-607.2 771.98,-588 771.98,-588 771.98,-582 777.98,-576 783.98,-576 783.98,-576 860.77,-576 860.77,-576 866.77,-576 872.77,-582 872.77,-588 872.77,-588 872.77,-607.2 872.77,-607.2 872.77,-613.2 866.77,-619.2 860.77,-619.2"/>
<text xml:space="preserve" text-anchor="middle" x="822.38" y="-593.7" font-family="Helvetica Neue,Helvetica,Arial" font-size="12.00" fill="#ffffff">Jenkins</text>
</g>
<!-- cmd_queue&#45;&gt;jenkins -->
<!-- cq_step_4 -->
<g id="node11" class="node">
<title>cq_step_4</title>
<text xml:space="preserve" text-anchor="middle" x="552.38" y="-231.07" font-family="Helvetica Neue,Helvetica,Arial" font-size="9.00" fill="#6c5ce7">5. Deliver for processing</text>
</g>
<!-- cmd_queue&#45;&gt;cq_step_4 -->
<!-- datastore -->
<g id="node6" class="node">
<title>datastore</title>
<path fill="#fdcb6e" stroke="black" stroke-width="2" d="M997.77,-619.2C997.77,-619.2 920.98,-619.2 920.98,-619.2 914.98,-619.2 908.98,-613.2 908.98,-607.2 908.98,-607.2 908.98,-588 908.98,-588 908.98,-582 914.98,-576 920.98,-576 920.98,-576 997.77,-576 997.77,-576 1003.77,-576 1009.77,-582 1009.77,-588 1009.77,-588 1009.77,-607.2 1009.77,-607.2 1009.77,-613.2 1003.77,-619.2 997.77,-619.2"/>
<text xml:space="preserve" text-anchor="middle" x="959.38" y="-593.7" font-family="Helvetica Neue,Helvetica,Arial" font-size="12.00" fill="#2d3436">Data Store</text>
</g>
<!-- jenkins&#45;&gt;datastore -->
<!-- cq_step_0&#45;&gt;github -->
<g id="edge7" class="edge">
<title>cq_step_0&#45;&gt;github</title>
<path fill="none" stroke="#55efc4" stroke-width="1.5" d="M100.42,-534.44C109.38,-536.38 118.64,-538.31 127.38,-540 222.49,-558.45 248,-554.1 342.38,-576 345.48,-576.72 348.65,-577.5 351.85,-578.33"/>
<polygon fill="#55efc4" stroke="#55efc4" stroke-width="1.5" points="358.55,-580.12 350.98,-581.35 356.87,-579.93 351.73,-578.55 351.79,-578.31 351.86,-578.07 357,-579.44 352.6,-575.27 358.55,-580.12"/>
</g>
<!-- cq_step_0&#45;&gt;cq_step_1 -->
<!-- cq_step_1&#45;&gt;car_bridge -->
<g id="edge9" class="edge">
<title>cq_step_1&#45;&gt;car_bridge</title>
<path fill="none" stroke="#2d3436" stroke-width="1.5" d="M180.71,-467.8C200.49,-488.33 236.92,-522.48 275.38,-540 359.16,-578.17 389.78,-554.8 479.38,-576 482.48,-576.73 485.65,-577.53 488.84,-578.36"/>
<polygon fill="#2d3436" stroke="#2d3436" stroke-width="1.5" points="495.54,-580.16 487.96,-581.39 493.86,-579.97 488.72,-578.58 488.78,-578.34 488.85,-578.1 493.99,-579.49 489.6,-575.3 495.54,-580.16"/>
</g>
<!-- cq_step_1&#45;&gt;cq_step_2 -->
<!-- cq_step_2&#45;&gt;car_bridge -->
<g id="edge12" class="edge">
<title>cq_step_2&#45;&gt;car_bridge</title>
<path fill="none" stroke="#6c5ce7" stroke-width="1.5" d="M556,-395.76C563.09,-432.42 563.76,-520.2 558.03,-566.63"/>
<polygon fill="#6c5ce7" stroke="#6c5ce7" stroke-width="1.5" points="557.05,-573.53 554.92,-566.16 557.04,-571.84 557.79,-566.56 558.03,-566.6 558.28,-566.63 557.54,-571.91 561.15,-567.04 557.05,-573.53"/>
</g>
<!-- cq_step_2&#45;&gt;cq_step_3 -->
<!-- cq_step_3&#45;&gt;cmd_queue -->
<g id="edge15" class="edge">
<title>cq_step_3&#45;&gt;cmd_queue</title>
<path fill="none" stroke="#6c5ce7" stroke-width="1.5" d="M607.36,-323.97C625.04,-332.11 642.98,-343.74 654.38,-360 698.24,-422.64 694.96,-517.97 689.72,-566.27"/>
<polygon fill="#6c5ce7" stroke="#6c5ce7" stroke-width="1.5" points="688.91,-573.19 686.6,-565.87 688.86,-571.5 689.48,-566.21 689.73,-566.24 689.98,-566.27 689.35,-571.56 692.86,-566.6 688.91,-573.19"/>
</g>
<!-- cq_step_3&#45;&gt;cq_step_4 -->
<!-- cq_step_4&#45;&gt;car_bridge -->
<g id="edge18" class="edge">
<title>cq_step_4&#45;&gt;car_bridge</title>
<path fill="none" stroke="#6c5ce7" stroke-width="1.5" d="M511.61,-251.77C496.46,-260.24 480.89,-272.15 472.38,-288 421.66,-382.44 491.69,-511.27 528.41,-567.9"/>
<polygon fill="#6c5ce7" stroke="#6c5ce7" stroke-width="1.5" points="532.13,-573.56 525.65,-569.44 531,-572.3 528.07,-567.85 528.28,-567.71 528.49,-567.57 531.42,-572.02 530.91,-565.98 532.13,-573.56"/>
</g>
<!-- cq_step_4&#45;&gt;cq_step_5 -->
<!-- cq_step_5&#45;&gt;car_bridge -->
<g id="edge21" class="edge">
<title>cq_step_5&#45;&gt;car_bridge</title>
<path fill="none" stroke="#6c5ce7" stroke-width="1.5" d="M603.45,-170.81C704.76,-189.34 919.38,-239.34 919.38,-305 919.38,-451 919.38,-451 919.38,-451 919.38,-483.43 713.09,-551.37 607.86,-581.57"/>
<polygon fill="#6c5ce7" stroke="#6c5ce7" stroke-width="1.5" points="601.3,-583.44 607.17,-578.49 602.84,-582.74 607.96,-581.28 608.03,-581.52 608.1,-581.76 602.98,-583.22 608.9,-584.55 601.3,-583.44"/>
</g>
<!-- cq_step_5&#45;&gt;cq_step_6 -->
<!-- cq_step_6&#45;&gt;jenkins -->
<g id="edge24" class="edge">
<title>cq_step_6&#45;&gt;jenkins</title>
<path fill="none" stroke="#636e72" stroke-width="1.5" d="M593.47,-95.33C702.95,-107.99 993.38,-149.45 993.38,-233 993.38,-451 993.38,-451 993.38,-451 993.38,-511.33 930.91,-551.92 881.49,-574.59"/>
<polygon fill="#636e72" stroke="#636e72" stroke-width="1.5" points="875.35,-577.33 880.46,-571.6 876.77,-576.42 881.64,-574.25 881.74,-574.48 881.84,-574.71 876.98,-576.88 883.03,-577.36 875.35,-577.33"/>
</g>
<!-- cq_step_6&#45;&gt;cq_step_7 -->
<!-- cq_step_7&#45;&gt;datastore -->
<g id="edge27" class="edge">
<title>cq_step_7&#45;&gt;datastore</title>
<path fill="none" stroke="#fdcb6e" stroke-width="1.5" d="M622.1,-23.61C762.79,-34.85 1067.38,-69.7 1067.38,-161 1067.38,-451 1067.38,-451 1067.38,-451 1067.38,-500.07 1027.32,-543.37 995.99,-569.74"/>
<polygon fill="#fdcb6e" stroke="#fdcb6e" stroke-width="1.5" points="990.87,-573.94 994.28,-567.06 992.01,-572.69 996.12,-569.31 996.28,-569.5 996.44,-569.69 992.32,-573.07 998.28,-571.93 990.87,-573.94"/>
</g>
</g>
</svg>
