<?xml version="1.0" encoding="UTF-8" standalone="no"?>
<!DOCTYPE svg PUBLIC "-//W3C//DTD SVG 1.1//EN"
 "http://www.w3.org/Graphics/SVG/1.1/DTD/svg11.dtd">
<!-- Generated by graphviz version 14.1.2 (20260124.0452)
 -->
<!-- Title: sequence_happy_path Pages: 1 -->
<svg width="4259pt" height="2132pt"
 viewBox="0.00 0.00 4259.00 2132.00" xmlns="http://www.w3.org/2000/svg" xmlns:xlink="http://www.w3.org/1999/xlink">
<g id="graph0" class="graph" transform="scale(2.08333 2.08333) rotate(0) translate(43.2 980.15)">
<title>sequence_happy_path</title>
<polygon fill="#ffffff" stroke="none" points="-43.2,43.2 -43.2,-980.15 2001.33,-980.15 2001.33,43.2 -43.2,43.2"/>
<text xml:space="preserve" text-anchor="middle" x="979.06" y="-915.85" font-family="Helvetica Neue,Helvetica,Arial" font-size="18.00">Happy Path — PR Creation to Merge</text>
<!-- codegenie -->
<g id="node1" class="node">
<title>codegenie</title>
<path fill="#a29bfe" stroke="black" stroke-width="2" d="M526.52,-907.2C526.52,-907.2 449.73,-907.2 449.73,-907.2 443.73,-907.2 437.73,-901.2 437.73,-895.2 437.73,-895.2 437.73,-876 437.73,-876 437.73,-870 443.73,-864 449.73,-864 449.73,-864 526.52,-864 526.52,-864 532.52,-864 538.52,-870 538.52,-876 538.52,-876 538.52,-895.2 538.52,-895.2 538.52,-901.2 532.52,-907.2 526.52,-907.2"/>
<text xml:space="preserve" text-anchor="middle" x="488.12" y="-881.7" font-family="Helvetica Neue,Helvetica,Arial" font-size="12.00" fill="#ffffff">CodeGenie</text>
</g>
<!-- github -->
<g id="node2" class="node">
<title>github</title>
<path fill="#2d3436" stroke="black" stroke-width="2" d="M670.52,-907.2C670.52,-907.2 593.73,-907.2 593.73,-907.2 587.73,-907.2 581.73,-901.2 581.73,-895.2 581.73,-895.2 581.73,-876 581.73,-876 581.73,-870 587.73,-864 593.73,-864 593.73,-864 670.52,-864 670.52,-864 676.52,-864 682.52,-870 682.52,-876 682.52,-876 682.52,-895.2 682.52,-895.2 682.52,-901.2 676.52,-907.2 670.52,-907.2"/>
<text xml:space="preserve" text-anchor="middle" x="632.12" y="-881.7" font-family="Helvetica Neue,Helvetica,Arial" font-size="12.00" fill="#ffffff">GitHub</text>
</g>
<!-- codegenie&#45;&gt;github -->
<!-- step_0 -->
<g id="node9" class="node">
<title>step_0</title>
<text xml:space="preserve" text-anchor="middle" x="33.12" y="-807.08" font-family="Helvetica Neue,Helvetica,Arial" font-size="9.00" fill="#0984e3">1. Create PR</text>
</g>
<!-- codegenie&#45;&gt;step_0 -->
<!-- car_bridge -->
<g id="node3" class="node">
<title>car_bridge</title>
<path fill="#6c5ce7" stroke="black" stroke-width="2" d="M814.52,-907.2C814.52,-907.2 737.73,-907.2 737.73,-907.2 731.73,-907.2 725.73,-901.2 725.73,-895.2 725.73,-895.2 725.73,-876 725.73,-876 725.73,-870 731.73,-864 737.73,-864 737.73,-864 814.52,-864 814.52,-864 820.52,-864 826.52,-870 826.52,-876 826.52,-876 826.52,-895.2 826.52,-895.2 826.52,-901.2 820.52,-907.2 814.52,-907.2"/>
<text xml:space="preserve" text-anchor="middle" x="776.12" y="-881.7" font-family="Helvetica Neue,Helvetica,Arial" font-size="12.00" fill="#ffffff">Car Bridge</text>
</g>
<!-- github&#45;&gt;car_bridge -->
<!-- step_1 -->
<g id="node10" class="node">
<title>step_1</title>
<text xml:space="preserve" text-anchor="middle" x="523.12" y="-735.08" font-family="Helvetica Neue,Helvetica,Arial" font-size="9.00" fill="#0984e3">2. PR opened webhook</text>
</g>
<!-- github&#45;&gt;step_1 -->
<!-- step_4 -->
<g id="node13" class="node">
<title>step_4</title>
<text xml:space="preserve" text-anchor="middle" x="822.12" y="-519.08" font-family="Helvetica Neue,Helvetica,Arial" font-size="9.00" fill="#0984e3">5. check_suite.completed</text>
</g>
<!-- github&#45;&gt;step_4 -->
<!-- event_proc -->
<g id="node4" class="node">
<title>event_proc</title>
<path fill="#00b894" stroke="black" stroke-width="2" d="M995.52,-907.2C995.52,-907.2 918.73,-907.2 918.73,-907.2 912.73,-907.2 906.73,-901.2 906.73,-895.2 906.73,-895.2 906.73,-876 906.73,-876 906.73,-870 912.73,-864 918.73,-864 918.73,-864 995.52,-864 995.52,-864 1001.52,-864 1007.52,-870 1007.52,-876 1007.52,-876 1007.52,-895.2 1007.52,-895.2 1007.52,-901.2 1001.52,-907.2 995.52,-907.2"/>
<text xml:space="preserve" text-anchor="middle" x="957.12" y="-889.2" font-family="Helvetica Neue,Helvetica,Arial" font-size="12.00" fill="#ffffff">Event</text>
<text xml:space="preserve" text-anchor="middle" x="957.12" y="-874.2" font-family="Helvetica Neue,Helvetica,Arial" font-size="12.00" fill="#ffffff">Processor</text>
</g>
<!-- car_bridge&#45;&gt;event_proc -->
<!-- step_2 -->
<g id="node11" class="node">
<title>step_2</title>
<text xml:space="preserve" text-anchor="middle" x="761.12" y="-663.08" font-family="Helvetica Neue,Helvetica,Arial" font-size="9.00" fill="#0984e3">3. Route event</text>
</g>
<!-- car_bridge&#45;&gt;step_2 -->
<!-- datastore -->
<g id="node5" class="node">
<title>datastore</title>
<path fill="#fdcb6e" stroke="black" stroke-width="2" d="M1139.53,-907.2C1139.53,-907.2 1062.72,-907.2 1062.72,-907.2 1056.72,-907.2 1050.72,-901.2 1050.72,-895.2 1050.72,-895.2 1050.72,-876 1050.72,-876 1050.72,-870 1056.72,-864 1062.72,-864 1062.72,-864 1139.53,-864 1139.53,-864 1145.53,-864 1151.53,-870 1151.53,-876 1151.53,-876 1151.53,-895.2 1151.53,-895.2 1151.53,-901.2 1145.53,-907.2 1139.53,-907.2"/>
<text xml:space="preserve" text-anchor="middle" x="1101.12" y="-881.7" font-family="Helvetica Neue,Helvetica,Arial" font-size="12.00" fill="#2d3436">Data Store</text>
</g>
<!-- event_proc&#45;&gt;datastore -->
<!-- step_3 -->
<g id="node12" class="node">
<title>step_3</title>
<text xml:space="preserve" text-anchor="middle" x="822.12" y="-591.08" font-family="Helvetica Neue,Helvetica,Arial" font-size="9.00" fill="#a29bfe">4. State → CREATED</text>
</g>
<!-- event_proc&#45;&gt;step_3 -->
<!-- step_5 -->
<g id="node14" class="node">
<title>step_5</title>
<text xml:space="preserve" text-anchor="middle" x="1216.12" y="-447.07" font-family="Helvetica Neue,Helvetica,Arial" font-size="9.00" fill="#55efc4">6. State → CHECKS_PASSED</text>
</g>
<!-- event_proc&#45;&gt;step_5 -->
<!-- step_7 -->
<g id="node16" class="node">
<title>step_7</title>
<text xml:space="preserve" text-anchor="middle" x="1216.12" y="-303.07" font-family="Helvetica Neue,Helvetica,Arial" font-size="9.00" fill="#55efc4">8. State → POLICY_PASSED</text>
</g>
<!-- event_proc&#45;&gt;step_7 -->
<!-- step_9 -->
<g id="node18" class="node">
<title>step_9</title>
<text xml:space="preserve" text-anchor="middle" x="1216.12" y="-159.07" font-family="Helvetica Neue,Helvetica,Arial" font-size="9.00" fill="#55efc4">10. State → APPROVED</text>
</g>
<!-- event_proc&#45;&gt;step_9 -->
<!-- step_11 -->
<g id="node20" class="node">
<title>step_11</title>
<text xml:space="preserve" text-anchor="middle" x="1216.12" y="-15.07" font-family="Helvetica Neue,Helvetica,Arial" font-size="9.00" fill="#00b894">12. State → MERGED ✓</text>
</g>
<!-- event_proc&#45;&gt;step_11 -->
<!-- policy_bot -->
<g id="node6" class="node">
<title>policy_bot</title>
<path fill="#0984e3" stroke="black" stroke-width="2" d="M1283.53,-907.2C1283.53,-907.2 1206.72,-907.2 1206.72,-907.2 1200.72,-907.2 1194.72,-901.2 1194.72,-895.2 1194.72,-895.2 1194.72,-876 1194.72,-876 1194.72,-870 1200.72,-864 1206.72,-864 1206.72,-864 1283.53,-864 1283.53,-864 1289.53,-864 1295.53,-870 1295.53,-876 1295.53,-876 1295.53,-895.2 1295.53,-895.2 1295.53,-901.2 1289.53,-907.2 1283.53,-907.2"/>
<text xml:space="preserve" text-anchor="middle" x="1245.12" y="-889.2" font-family="Helvetica Neue,Helvetica,Arial" font-size="12.00" fill="#ffffff">Policy</text>
<text xml:space="preserve" text-anchor="middle" x="1245.12" y="-874.2" font-family="Helvetica Neue,Helvetica,Arial" font-size="12.00" fill="#ffffff">Bot</text>
</g>
<!-- datastore&#45;&gt;policy_bot -->
<!-- approver_bot -->
<g id="node7" class="node">
<title>approver_bot</title>
<path fill="#0984e3" stroke="black" stroke-width="2" d="M1427.53,-907.2C1427.53,-907.2 1350.72,-907.2 1350.72,-907.2 1344.72,-907.2 1338.72,-901.2 1338.72,-895.2 1338.72,-895.2 1338.72,-876 1338.72,-876 1338.72,-870 1344.72,-864 1350.72,-864 1350.72,-864 1427.53,-864 1427.53,-864 1433.53,-864 1439.53,-870 1439.53,-876 1439.53,-876 1439.53,-895.2 1439.53,-895.2 1439.53,-901.2 1433.53,-907.2 1427.53,-907.2"/>
<text xml:space="preserve" text-anchor="middle" x="1389.12" y="-889.2" font-family="Helvetica Neue,Helvetica,Arial" font-size="12.00" fill="#ffffff">Approver</text>
<text xml:space="preserve" text-anchor="middle" x="1389.12" y="-874.2" font-family="Helvetica Neue,Helvetica,Arial" font-size="12.00" fill="#ffffff">Bot</text>
</g>
<!-- policy_bot&#45;&gt;approver_bot -->
<!-- step_6 -->
<g id="node15" class="node">
<title>step_6</title>
<text xml:space="preserve" text-anchor="middle" x="1216.12" y="-375.07" font-family="Helvetica Neue,Helvetica,Arial" font-size="9.00" fill="#0984e3">7. Policy evaluation</text>
</g>
<!-- policy_bot&#45;&gt;step_6 -->
<!-- automerge -->
<g id="node8" class="node">
<title>automerge</title>
<path fill="#0984e3" stroke="black" stroke-width="2" d="M1571.53,-907.2C1571.53,-907.2 1494.72,-907.2 1494.72,-907.2 1488.72,-907.2 1482.72,-901.2 1482.72,-895.2 1482.72,-895.2 1482.72,-876 1482.72,-876 1482.72,-870 1488.72,-864 1494.72,-864 1494.72,-864 1571.53,-864 1571.53,-864 1577.53,-864 1583.53,-870 1583.53,-876 1583.53,-876 1583.53,-895.2 1583.53,-895.2 1583.53,-901.2 1577.53,-907.2 1571.53,-907.2"/>
<text xml:space="preserve" text-anchor="middle" x="1533.12" y="-889.2" font-family="Helvetica Neue,Helvetica,Arial" font-size="12.00" fill="#ffffff">Automerge</text>
<text xml:space="preserve" text-anchor="middle" x="1533.12" y="-874.2" font-family="Helvetica Neue,Helvetica,Arial" font-size="12.00" fill="#ffffff">Bot</text>
</g>
<!-- approver_bot&#45;&gt;automerge -->
<!-- step_8 -->
<g id="node17" class="node">
<title>step_8</title>
<text xml:space="preserve" text-anchor="middle" x="1216.12" y="-231.07" font-family="Helvetica Neue,Helvetica,Arial" font-size="9.00" fill="#0984e3">9. Approval review</text>
</g>
<!-- approver_bot&#45;&gt;step_8 -->
<!-- step_10 -->
<g id="node19" class="node">
<title>step_10</title>
<text xml:space="preserve" text-anchor="middle" x="1216.12" y="-87.08" font-family="Helvetica Neue,Helvetica,Arial" font-size="9.00" fill="#0984e3">11. Merge PR</text>
</g>
<!-- automerge&#45;&gt;step_10 -->
<!-- step_0&#45;&gt;github -->
<g id="edge9" class="edge">
<title>step_0&#45;&gt;github</title>
<path fill="none" stroke="#0984e3" stroke-width="1.5" d="M66.12,-820.7C76.59,-823.45 88.27,-826.19 99.12,-828 301.85,-861.76 357.87,-827.55 560.12,-864 564.15,-864.73 568.28,-865.58 572.41,-866.53"/>
<polygon fill="#0984e3" stroke="#0984e3" stroke-width="1.5" points="579.12,-868.16 571.58,-869.57 577.44,-868.01 572.26,-866.75 572.32,-866.51 572.38,-866.27 577.56,-867.52 573.06,-863.45 579.12,-868.16"/>
</g>
<!-- step_0&#45;&gt;step_1 -->
<!-- step_1&#45;&gt;car_bridge -->
<g id="edge11" class="edge">
<title>step_1&#45;&gt;car_bridge</title>
<path fill="none" stroke="#0984e3" stroke-width="1.5" d="M537.87,-755.89C555.82,-775.56 587.88,-807.91 621.12,-828 637.76,-838.06 680.33,-853.36 716.66,-865.52"/>
<polygon fill="#0984e3" stroke="#0984e3" stroke-width="1.5" points="723.04,-867.65 715.41,-868.43 721.38,-867.35 716.32,-865.67 716.4,-865.44 716.48,-865.2 721.54,-866.88 717.4,-862.45 723.04,-867.65"/>
</g>
<!-- step_1&#45;&gt;step_2 -->
<!-- step_2&#45;&gt;event_proc -->
<g id="edge14" class="edge">
<title>step_2&#45;&gt;event_proc</title>
<path fill="none" stroke="#0984e3" stroke-width="1.5" d="M772.79,-683.73C798.07,-719.75 857.55,-803.37 882.12,-828 892.82,-838.71 905.61,-849.1 917.58,-857.98"/>
<polygon fill="#0984e3" stroke="#0984e3" stroke-width="1.5" points="923.03,-861.95 915.52,-860.38 921.53,-861.17 917.23,-858.03 917.37,-857.83 917.52,-857.63 921.83,-860.77 919.23,-855.29 923.03,-861.95"/>
</g>
<!-- step_2&#45;&gt;step_3 -->
<!-- step_3&#45;&gt;datastore -->
<g id="edge17" class="edge">
<title>step_3&#45;&gt;datastore</title>
<path fill="none" stroke="#a29bfe" stroke-width="1.5" d="M871.47,-598.48C971.64,-608.53 1197.51,-646.98 1294.12,-792 1303,-805.32 1303.72,-815.19 1294.12,-828 1293.6,-828.7 1217.1,-851 1160.58,-867.39"/>
<polygon fill="#a29bfe" stroke="#a29bfe" stroke-width="1.5" points="1154.16,-869.25 1160,-864.28 1155.69,-868.55 1160.81,-867.06 1160.88,-867.3 1160.95,-867.54 1155.83,-869.03 1161.76,-870.33 1154.16,-869.25"/>
</g>
<!-- step_3&#45;&gt;step_4 -->
<!-- step_4&#45;&gt;car_bridge -->
<g id="edge20" class="edge">
<title>step_4&#45;&gt;car_bridge</title>
<path fill="none" stroke="#0984e3" stroke-width="1.5" d="M773.7,-539.91C723.76,-560.81 653.12,-601.58 653.12,-665 653.12,-739 653.12,-739 653.12,-739 653.12,-790.19 698.03,-832.68 733.58,-858.29"/>
<polygon fill="#0984e3" stroke="#0984e3" stroke-width="1.5" points="739.05,-862.13 731.51,-860.69 737.54,-861.38 733.18,-858.31 733.32,-858.11 733.47,-857.9 737.83,-860.97 735.14,-855.53 739.05,-862.13"/>
</g>
<!-- step_4&#45;&gt;step_5 -->
<!-- step_5&#45;&gt;datastore -->
<g id="edge23" class="edge">
<title>step_5&#45;&gt;datastore</title>
<path fill="none" stroke="#55efc4" stroke-width="1.5" d="M1230.6,-467.67C1278.06,-524.39 1420.79,-712.77 1329.12,-828 1284.83,-883.68 1242.02,-846.21 1173.12,-864 1168.98,-865.07 1164.72,-866.2 1160.42,-867.37"/>
<polygon fill="#55efc4" stroke="#55efc4" stroke-width="1.5" points="1153.93,-869.16 1159.84,-864.26 1155.48,-868.47 1160.61,-867.06 1160.68,-867.3 1160.75,-867.54 1155.61,-868.95 1161.52,-870.34 1153.93,-869.16"/>
</g>
<!-- step_5&#45;&gt;step_6 -->
<!-- step_6&#45;&gt;github -->
<g id="edge26" class="edge">
<title>step_6&#45;&gt;github</title>
<path fill="none" stroke="#0984e3" stroke-width="1.5" d="M1169.38,-383.34C983.28,-401.86 305.12,-481.93 305.12,-665 305.12,-739 305.12,-739 305.12,-739 305.12,-865.22 438.56,-830.03 560.12,-864 564.25,-865.15 568.5,-866.35 572.78,-867.56"/>
<polygon fill="#0984e3" stroke="#0984e3" stroke-width="1.5" points="579.26,-869.39 571.66,-870.52 577.58,-869.18 572.45,-867.72 572.52,-867.48 572.59,-867.24 577.72,-868.7 573.38,-864.45 579.26,-869.39"/>
</g>
<!-- step_6&#45;&gt;step_7 -->
<!-- step_7&#45;&gt;datastore -->
<g id="edge29" class="edge">
<title>step_7&#45;&gt;datastore</title>
<path fill="none" stroke="#55efc4" stroke-width="1.5" d="M1281.61,-321.56C1371.77,-345.93 1523.12,-404.22 1523.12,-521 1523.12,-739 1523.12,-739 1523.12,-739 1523.12,-904.18 1333.98,-826.46 1173.12,-864 1169.14,-864.93 1165.05,-865.94 1160.93,-867"/>
<polygon fill="#55efc4" stroke="#55efc4" stroke-width="1.5" points="1154.25,-868.77 1160.21,-863.93 1155.81,-868.1 1160.96,-866.74 1161.02,-866.98 1161.08,-867.22 1155.93,-868.58 1161.83,-870.03 1154.25,-868.77"/>
</g>
<!-- step_7&#45;&gt;step_8 -->
<!-- step_8&#45;&gt;github -->
<g id="edge32" class="edge">
<title>step_8&#45;&gt;github</title>
<path fill="none" stroke="#0984e3" stroke-width="1.5" d="M1171.63,-234.9C977.96,-235.62 218.12,-251.09 218.12,-449 218.12,-739 218.12,-739 218.12,-739 218.12,-900.83 401.85,-830.26 560.12,-864 564.13,-864.85 568.23,-865.81 572.36,-866.83"/>
<polygon fill="#0984e3" stroke="#0984e3" stroke-width="1.5" points="579.05,-868.54 571.49,-869.85 577.37,-868.37 572.2,-867.04 572.27,-866.8 572.33,-866.56 577.49,-867.88 573.05,-863.75 579.05,-868.54"/>
</g>
<!-- step_8&#45;&gt;step_9 -->
<!-- step_9&#45;&gt;datastore -->
<g id="edge35" class="edge">
<title>step_9&#45;&gt;datastore</title>
<path fill="none" stroke="#55efc4" stroke-width="1.5" d="M1272.24,-167.64C1399.13,-179.67 1697.12,-217.28 1697.12,-305 1697.12,-595 1697.12,-595 1697.12,-595 1697.12,-721.89 1641.78,-764.15 1532.12,-828 1462.84,-868.34 1251.87,-848.91 1173.12,-864 1169.11,-864.77 1164.99,-865.66 1160.86,-866.63"/>
<polygon fill="#55efc4" stroke="#55efc4" stroke-width="1.5" points="1154.15,-868.29 1160.19,-863.55 1155.72,-867.65 1160.89,-866.37 1160.95,-866.61 1161.01,-866.85 1155.84,-868.13 1161.7,-869.67 1154.15,-868.29"/>
</g>
<!-- step_9&#45;&gt;step_10 -->
<!-- step_10&#45;&gt;github -->
<g id="edge38" class="edge">
<title>step_10&#45;&gt;github</title>
<path fill="none" stroke="#0984e3" stroke-width="1.5" d="M1181.25,-94.08C995.54,-110.94 131.12,-195.32 131.12,-305 131.12,-739 131.12,-739 131.12,-739 131.12,-794.32 168.34,-803.9 218.12,-828 355.69,-894.59 410.09,-834.87 560.12,-864 564.14,-864.78 568.26,-865.68 572.39,-866.66"/>
<polygon fill="#0984e3" stroke="#0984e3" stroke-width="1.5" points="579.09,-868.32 571.54,-869.69 577.41,-868.16 572.24,-866.88 572.3,-866.63 572.36,-866.39 577.53,-867.67 573.06,-863.58 579.09,-868.32"/>
</g>
<!-- step_10&#45;&gt;step_11 -->
<!-- step_11&#45;&gt;datastore -->
<g id="edge41" class="edge">
<title>step_11&#45;&gt;datastore</title>
<path fill="none" stroke="#00b894" stroke-width="1.5" d="M1271.69,-19.27C1429.84,-21.52 1871.12,-38.75 1871.12,-161 1871.12,-595 1871.12,-595 1871.12,-595 1871.12,-631.86 1664.49,-799.53 1592.12,-828 1418.2,-896.44 1356.94,-830.14 1173.12,-864 1169.1,-864.74 1164.98,-865.61 1160.84,-866.57"/>
<polygon fill="#00b894" stroke="#00b894" stroke-width="1.5" points="1154.14,-868.21 1160.19,-863.48 1155.7,-867.57 1160.88,-866.3 1160.94,-866.55 1161,-866.79 1155.82,-868.05 1161.68,-869.61 1154.14,-868.21"/>
</g>
</g>
</svg>
