<?xml version="1.0" encoding="UTF-8" standalone="no"?>
<!DOCTYPE svg PUBLIC "-//W3C//DTD SVG 1.1//EN"
 "http://www.w3.org/Graphics/SVG/1.1/DTD/svg11.dtd">
<!-- Generated by graphviz version 14.1.2 (20260124.0452)
 -->
<!-- Title: sequence_self_healing Pages: 1 -->
<svg width="3634pt" height="2132pt"
 viewBox="0.00 0.00 3634.00 2132.00" xmlns="http://www.w3.org/2000/svg" xmlns:xlink="http://www.w3.org/1999/xlink">
<g id="graph0" class="graph" transform="scale(2.08333 2.08333) rotate(0) translate(43.2 980.15)">
<title>sequence_self_healing</title>
<polygon fill="#ffffff" stroke="none" points="-43.2,43.2 -43.2,-980.15 1701.2,-980.15 1701.2,43.2 -43.2,43.2"/>
<text xml:space="preserve" text-anchor="middle" x="829" y="-915.85" font-family="Helvetica Neue,Helvetica,Arial" font-size="18.00">Self&#45;Healing — Transient CI Failure Recovery</text>
<!-- scheduler -->
<g id="node1" class="node">
<title>scheduler</title>
<path fill="#d63031" stroke="black" stroke-width="2" d="M608.4,-907.2C608.4,-907.2 531.6,-907.2 531.6,-907.2 525.6,-907.2 519.6,-901.2 519.6,-895.2 519.6,-895.2 519.6,-876 519.6,-876 519.6,-870 525.6,-864 531.6,-864 531.6,-864 608.4,-864 608.4,-864 614.4,-864 620.4,-870 620.4,-876 620.4,-876 620.4,-895.2 620.4,-895.2 620.4,-901.2 614.4,-907.2 608.4,-907.2"/>
<text xml:space="preserve" text-anchor="middle" x="570" y="-881.7" font-family="Helvetica Neue,Helvetica,Arial" font-size="12.00" fill="#ffffff">Scheduler</text>
</g>
<!-- reconciler -->
<g id="node2" class="node">
<title>reconciler</title>
<path fill="#d63031" stroke="black" stroke-width="2" d="M745.4,-907.2C745.4,-907.2 668.6,-907.2 668.6,-907.2 662.6,-907.2 656.6,-901.2 656.6,-895.2 656.6,-895.2 656.6,-876 656.6,-876 656.6,-870 662.6,-864 668.6,-864 668.6,-864 745.4,-864 745.4,-864 751.4,-864 757.4,-870 757.4,-876 757.4,-876 757.4,-895.2 757.4,-895.2 757.4,-901.2 751.4,-907.2 745.4,-907.2"/>
<text xml:space="preserve" text-anchor="middle" x="707" y="-881.7" font-family="Helvetica Neue,Helvetica,Arial" font-size="12.00" fill="#ffffff">Reconciler</text>
</g>
<!-- scheduler&#45;&gt;reconciler -->
<!-- sh_step_0 -->
<g id="node9" class="node">
<title>sh_step_0</title>
<text xml:space="preserve" text-anchor="middle" x="237" y="-807.08" font-family="Helvetica Neue,Helvetica,Arial" font-size="9.00" fill="#d63031">1. Trigger run</text>
</g>
<!-- scheduler&#45;&gt;sh_step_0 -->
<!-- datastore -->
<g id="node3" class="node">
<title>datastore</title>
<path fill="#fdcb6e" stroke="black" stroke-width="2" d="M882.4,-907.2C882.4,-907.2 805.6,-907.2 805.6,-907.2 799.6,-907.2 793.6,-901.2 793.6,-895.2 793.6,-895.2 793.6,-876 793.6,-876 793.6,-870 799.6,-864 805.6,-864 805.6,-864 882.4,-864 882.4,-864 888.4,-864 894.4,-870 894.4,-876 894.4,-876 894.4,-895.2 894.4,-895.2 894.4,-901.2 888.4,-907.2 882.4,-907.2"/>
<text xml:space="preserve" text-anchor="middle" x="844" y="-881.7" font-family="Helvetica Neue,Helvetica,Arial" font-size="12.00" fill="#2d3436">Data Store</text>
</g>
<!-- reconciler&#45;&gt;datastore -->
<!-- sh_step_1 -->
<g id="node10" class="node">
<title>sh_step_1</title>
<text xml:space="preserve" text-anchor="middle" x="574" y="-735.08" font-family="Helvetica Neue,Helvetica,Arial" font-size="9.00" fill="#d63031">2. Query stale PRs</text>
</g>
<!-- reconciler&#45;&gt;sh_step_1 -->
<!-- sh_step_3 -->
<g id="node12" class="node">
<title>sh_step_3</title>
<text xml:space="preserve" text-anchor="middle" x="584" y="-591.08" font-family="Helvetica Neue,Helvetica,Arial" font-size="9.00" fill="#2d3436">4. Poll actual state</text>
</g>
<!-- reconciler&#45;&gt;sh_step_3 -->
<!-- sh_step_5 -->
<g id="node14" class="node">
<title>sh_step_5</title>
<text xml:space="preserve" text-anchor="middle" x="669" y="-447.07" font-family="Helvetica Neue,Helvetica,Arial" font-size="9.00" fill="#e84393">6. Classify PR #42</text>
</g>
<!-- reconciler&#45;&gt;sh_step_5 -->
<!-- sh_step_7 -->
<g id="node16" class="node">
<title>sh_step_7</title>
<text xml:space="preserve" text-anchor="middle" x="669" y="-308.7" font-family="Helvetica Neue,Helvetica,Arial" font-size="9.00" fill="#fdcb6e">8. Check budget:</text>
<text xml:space="preserve" text-anchor="middle" x="669" y="-297.45" font-family="Helvetica Neue,Helvetica,Arial" font-size="9.00" fill="#fdcb6e"> &#160;&#160;&#160;rebuild 0/3</text>
</g>
<!-- reconciler&#45;&gt;sh_step_7 -->
<!-- sh_step_8 -->
<g id="node17" class="node">
<title>sh_step_8</title>
<text xml:space="preserve" text-anchor="middle" x="669" y="-231.07" font-family="Helvetica Neue,Helvetica,Arial" font-size="9.00" fill="#e17055">9. Emit: /rebuild #42</text>
</g>
<!-- reconciler&#45;&gt;sh_step_8 -->
<!-- sh_step_11 -->
<g id="node20" class="node">
<title>sh_step_11</title>
<text xml:space="preserve" text-anchor="middle" x="669" y="-20.7" font-family="Helvetica Neue,Helvetica,Arial" font-size="9.00" fill="#74b9ff">12. Update: CHECKS_RUNNING</text>
<text xml:space="preserve" text-anchor="middle" x="669" y="-9.45" font-family="Helvetica Neue,Helvetica,Arial" font-size="9.00" fill="#74b9ff"> &#160;&#160;&#160;&#160;rebuild=1</text>
</g>
<!-- reconciler&#45;&gt;sh_step_11 -->
<!-- github_api -->
<g id="node4" class="node">
<title>github_api</title>
<path fill="#2d3436" stroke="black" stroke-width="2" d="M1019.4,-907.2C1019.4,-907.2 942.6,-907.2 942.6,-907.2 936.6,-907.2 930.6,-901.2 930.6,-895.2 930.6,-895.2 930.6,-876 930.6,-876 930.6,-870 936.6,-864 942.6,-864 942.6,-864 1019.4,-864 1019.4,-864 1025.4,-864 1031.4,-870 1031.4,-876 1031.4,-876 1031.4,-895.2 1031.4,-895.2 1031.4,-901.2 1025.4,-907.2 1019.4,-907.2"/>
<text xml:space="preserve" text-anchor="middle" x="981" y="-889.2" font-family="Helvetica Neue,Helvetica,Arial" font-size="12.00" fill="#ffffff">GitHub</text>
<text xml:space="preserve" text-anchor="middle" x="981" y="-874.2" font-family="Helvetica Neue,Helvetica,Arial" font-size="12.00" fill="#ffffff">API</text>
</g>
<!-- datastore&#45;&gt;github_api -->
<!-- sh_step_2 -->
<g id="node11" class="node">
<title>sh_step_2</title>
<text xml:space="preserve" text-anchor="middle" x="574" y="-668.7" font-family="Helvetica Neue,Helvetica,Arial" font-size="9.00" fill="#fdcb6e">3. PR #42: CHECKS_FAILED</text>
<text xml:space="preserve" text-anchor="middle" x="574" y="-657.45" font-family="Helvetica Neue,Helvetica,Arial" font-size="9.00" fill="#fdcb6e"> &#160;&#160;&#160;(30m stale)</text>
</g>
<!-- datastore&#45;&gt;sh_step_2 -->
<!-- classifier -->
<g id="node5" class="node">
<title>classifier</title>
<path fill="#e84393" stroke="black" stroke-width="2" d="M1156.4,-907.2C1156.4,-907.2 1079.6,-907.2 1079.6,-907.2 1073.6,-907.2 1067.6,-901.2 1067.6,-895.2 1067.6,-895.2 1067.6,-876 1067.6,-876 1067.6,-870 1073.6,-864 1079.6,-864 1079.6,-864 1156.4,-864 1156.4,-864 1162.4,-864 1168.4,-870 1168.4,-876 1168.4,-876 1168.4,-895.2 1168.4,-895.2 1168.4,-901.2 1162.4,-907.2 1156.4,-907.2"/>
<text xml:space="preserve" text-anchor="middle" x="1118" y="-889.2" font-family="Helvetica Neue,Helvetica,Arial" font-size="12.00" fill="#ffffff">Classification</text>
<text xml:space="preserve" text-anchor="middle" x="1118" y="-874.2" font-family="Helvetica Neue,Helvetica,Arial" font-size="12.00" fill="#ffffff">Engine</text>
</g>
<!-- github_api&#45;&gt;classifier -->
<!-- sh_step_4 -->
<g id="node13" class="node">
<title>sh_step_4</title>
<text xml:space="preserve" text-anchor="middle" x="669" y="-524.7" font-family="Helvetica Neue,Helvetica,Arial" font-size="9.00" fill="#2d3436">5. Confirms: failed,</text>
<text xml:space="preserve" text-anchor="middle" x="669" y="-513.45" font-family="Helvetica Neue,Helvetica,Arial" font-size="9.00" fill="#2d3436"> &#160;&#160;&#160;no conflicts</text>
</g>
<!-- github_api&#45;&gt;sh_step_4 -->
<!-- cmd_queue -->
<g id="node6" class="node">
<title>cmd_queue</title>
<path fill="#6c5ce7" stroke="black" stroke-width="2" d="M1293.4,-907.2C1293.4,-907.2 1216.6,-907.2 1216.6,-907.2 1210.6,-907.2 1204.6,-901.2 1204.6,-895.2 1204.6,-895.2 1204.6,-876 1204.6,-876 1204.6,-870 1210.6,-864 1216.6,-864 1216.6,-864 1293.4,-864 1293.4,-864 1299.4,-864 1305.4,-870 1305.4,-876 1305.4,-876 1305.4,-895.2 1305.4,-895.2 1305.4,-901.2 1299.4,-907.2 1293.4,-907.2"/>
<text xml:space="preserve" text-anchor="middle" x="1255" y="-889.2" font-family="Helvetica Neue,Helvetica,Arial" font-size="12.00" fill="#ffffff">Command</text>
<text xml:space="preserve" text-anchor="middle" x="1255" y="-874.2" font-family="Helvetica Neue,Helvetica,Arial" font-size="12.00" fill="#ffffff">Queue</text>
</g>
<!-- classifier&#45;&gt;cmd_queue -->
<!-- sh_step_6 -->
<g id="node15" class="node">
<title>sh_step_6</title>
<text xml:space="preserve" text-anchor="middle" x="669" y="-380.7" font-family="Helvetica Neue,Helvetica,Arial" font-size="9.00" fill="#e84393">7. → RETRY_CHECKS</text>
<text xml:space="preserve" text-anchor="middle" x="669" y="-369.45" font-family="Helvetica Neue,Helvetica,Arial" font-size="9.00" fill="#e84393"> &#160;&#160;&#160;(transient)</text>
</g>
<!-- classifier&#45;&gt;sh_step_6 -->
<!-- car_bridge -->
<g id="node7" class="node">
<title>car_bridge</title>
<path fill="#6c5ce7" stroke="black" stroke-width="2" d="M1430.4,-907.2C1430.4,-907.2 1353.6,-907.2 1353.6,-907.2 1347.6,-907.2 1341.6,-901.2 1341.6,-895.2 1341.6,-895.2 1341.6,-876 1341.6,-876 1341.6,-870 1347.6,-864 1353.6,-864 1353.6,-864 1430.4,-864 1430.4,-864 1436.4,-864 1442.4,-870 1442.4,-876 1442.4,-876 1442.4,-895.2 1442.4,-895.2 1442.4,-901.2 1436.4,-907.2 1430.4,-907.2"/>
<text xml:space="preserve" text-anchor="middle" x="1392" y="-881.7" font-family="Helvetica Neue,Helvetica,Arial" font-size="12.00" fill="#ffffff">Car Bridge</text>
</g>
<!-- cmd_queue&#45;&gt;car_bridge -->
<!-- sh_step_9 -->
<g id="node18" class="node">
<title>sh_step_9</title>
<text xml:space="preserve" text-anchor="middle" x="669" y="-159.07" font-family="Helvetica Neue,Helvetica,Arial" font-size="9.00" fill="#6c5ce7">10. Deliver command</text>
</g>
<!-- cmd_queue&#45;&gt;sh_step_9 -->
<!-- jenkins -->
<g id="node8" class="node">
<title>jenkins</title>
<path fill="#636e72" stroke="black" stroke-width="2" d="M1567.4,-907.2C1567.4,-907.2 1490.6,-907.2 1490.6,-907.2 1484.6,-907.2 1478.6,-901.2 1478.6,-895.2 1478.6,-895.2 1478.6,-876 1478.6,-876 1478.6,-870 1484.6,-864 1490.6,-864 1490.6,-864 1567.4,-864 1567.4,-864 1573.4,-864 1579.4,-870 1579.4,-876 1579.4,-876 1579.4,-895.2 1579.4,-895.2 1579.4,-901.2 1573.4,-907.2 1567.4,-907.2"/>
<text xml:space="preserve" text-anchor="middle" x="1529" y="-881.7" font-family="Helvetica Neue,Helvetica,Arial" font-size="12.00" fill="#ffffff">Jenkins</text>
</g>
<!-- car_bridge&#45;&gt;jenkins -->
<!-- sh_step_10 -->
<g id="node19" class="node">
<title>sh_step_10</title>
<text xml:space="preserve" text-anchor="middle" x="669" y="-87.08" font-family="Helvetica Neue,Helvetica,Arial" font-size="9.00" fill="#636e72">11. Trigger rebuild</text>
</g>
<!-- car_bridge&#45;&gt;sh_step_10 -->
<!-- sh_step_0&#45;&gt;reconciler -->
<g id="edge9" class="edge">
<title>sh_step_0&#45;&gt;reconciler</title>
<path fill="none" stroke="#d63031" stroke-width="1.5" d="M270.96,-821.54C279.7,-823.96 289.14,-826.31 298,-828 447.26,-856.5 489.01,-834.14 638,-864 641.06,-864.61 644.18,-865.3 647.32,-866.05"/>
<polygon fill="#d63031" stroke="#d63031" stroke-width="1.5" points="653.87,-867.69 646.31,-869.04 652.19,-867.53 647.02,-866.23 647.08,-865.99 647.14,-865.75 652.31,-867.04 647.85,-862.93 653.87,-867.69"/>
</g>
<!-- sh_step_0&#45;&gt;sh_step_1 -->
<!-- sh_step_1&#45;&gt;datastore -->
<g id="edge11" class="edge">
<title>sh_step_1&#45;&gt;datastore</title>
<path fill="none" stroke="#d63031" stroke-width="1.5" d="M605.17,-755.81C652.17,-781.15 741.53,-829.34 796.62,-859.05"/>
<polygon fill="#d63031" stroke="#d63031" stroke-width="1.5" points="802.55,-862.25 794.9,-861.7 800.96,-861.67 796.27,-859.15 796.39,-858.93 796.51,-858.71 801.2,-861.23 797.89,-856.15 802.55,-862.25"/>
</g>
<!-- sh_step_1&#45;&gt;sh_step_2 -->
<!-- sh_step_2&#45;&gt;reconciler -->
<g id="edge14" class="edge">
<title>sh_step_2&#45;&gt;reconciler</title>
<path fill="none" stroke="#fdcb6e" stroke-width="1.5" d="M544.03,-683.96C531.35,-692.89 517.94,-705.1 511,-720 504.25,-734.51 505.68,-740.91 511,-756 524.67,-794.75 536.06,-803.43 569,-828 582.24,-837.88 616.57,-851.97 647.67,-863.62"/>
<polygon fill="#fdcb6e" stroke="#fdcb6e" stroke-width="1.5" points="654.2,-866.05 646.54,-866.56 652.54,-865.7 647.55,-863.84 647.64,-863.61 647.72,-863.38 652.72,-865.23 648.73,-860.66 654.2,-866.05"/>
</g>
<!-- sh_step_2&#45;&gt;sh_step_3 -->
<!-- sh_step_3&#45;&gt;github_api -->
<g id="edge17" class="edge">
<title>sh_step_3&#45;&gt;github_api</title>
<path fill="none" stroke="#2d3436" stroke-width="1.5" d="M628.66,-599.66C720.91,-611.97 931.26,-654.52 1020,-792 1033.06,-812.23 1020.69,-837.57 1006.53,-856.63"/>
<polygon fill="#2d3436" stroke="#2d3436" stroke-width="1.5" points="1002.4,-861.9 1004.23,-854.45 1003.23,-860.43 1006.51,-856.24 1006.71,-856.39 1006.91,-856.54 1003.62,-860.74 1009.19,-858.33 1002.4,-861.9"/>
</g>
<!-- sh_step_3&#45;&gt;sh_step_4 -->
<!-- sh_step_4&#45;&gt;reconciler -->
<g id="edge20" class="edge">
<title>sh_step_4&#45;&gt;reconciler</title>
<path fill="none" stroke="#2d3436" stroke-width="1.5" d="M670.75,-539.68C676.69,-596.2 696.12,-781.03 703.82,-854.29"/>
<polygon fill="#2d3436" stroke="#2d3436" stroke-width="1.5" points="704.55,-861.25 700.68,-854.61 704.12,-859.61 703.57,-854.31 703.81,-854.28 704.06,-854.26 704.62,-859.56 706.95,-853.95 704.55,-861.25"/>
</g>
<!-- sh_step_4&#45;&gt;sh_step_5 -->
<!-- sh_step_5&#45;&gt;classifier -->
<g id="edge23" class="edge">
<title>sh_step_5&#45;&gt;classifier</title>
<path fill="none" stroke="#e84393" stroke-width="1.5" d="M707.39,-467.98C783.58,-503.59 954.58,-593.4 1048,-720 1079.11,-762.15 1099.61,-820.23 1109.98,-854.94"/>
<polygon fill="#e84393" stroke="#e84393" stroke-width="1.5" points="1111.89,-861.48 1106.91,-855.64 1111.18,-859.94 1109.69,-854.83 1109.93,-854.76 1110.17,-854.69 1111.66,-859.8 1112.95,-853.88 1111.89,-861.48"/>
</g>
<!-- sh_step_5&#45;&gt;sh_step_6 -->
<!-- sh_step_6&#45;&gt;reconciler -->
<g id="edge26" class="edge">
<title>sh_step_6&#45;&gt;reconciler</title>
<path fill="none" stroke="#e84393" stroke-width="1.5" d="M720.56,-395.98C772.18,-416.6 844,-456.83 844,-521 844,-739 844,-739 844,-739 844,-792.1 795.08,-833.73 755.7,-858.64"/>
<polygon fill="#e84393" stroke="#e84393" stroke-width="1.5" points="750.03,-862.13 754.34,-855.78 751.32,-861.04 755.86,-858.25 755.99,-858.46 756.12,-858.67 751.59,-861.47 757.64,-861.14 750.03,-862.13"/>
</g>
<!-- sh_step_6&#45;&gt;sh_step_7 -->
<!-- sh_step_7&#45;&gt;datastore -->
<g id="edge29" class="edge">
<title>sh_step_7&#45;&gt;datastore</title>
<path fill="none" stroke="#fdcb6e" stroke-width="1.5" d="M710.9,-306.88C798.29,-309.05 992,-327.56 992,-449 992,-739 992,-739 992,-739 992,-783.53 977.02,-796.05 946,-828 933.76,-840.61 918.09,-851.18 902.73,-859.64"/>
<polygon fill="#fdcb6e" stroke="#fdcb6e" stroke-width="1.5" points="896.84,-862.76 901.55,-856.7 898.2,-861.76 902.91,-859.26 903.02,-859.48 903.14,-859.7 898.44,-862.2 904.5,-862.26 896.84,-862.76"/>
</g>
<!-- sh_step_7&#45;&gt;sh_step_8 -->
<!-- sh_step_8&#45;&gt;cmd_queue -->
<g id="edge32" class="edge">
<title>sh_step_8&#45;&gt;cmd_queue</title>
<path fill="none" stroke="#e17055" stroke-width="2.5" stroke-dasharray="5,2" d="M717.45,-234.6C874.9,-234.59 1362,-245.21 1362,-377 1362,-739 1362,-739 1362,-739 1362,-787.29 1323.3,-830.16 1292.45,-856.66"/>
<polygon fill="#e17055" stroke="#e17055" stroke-width="2.5" points="1287.14,-861.09 1290.5,-854.18 1287.01,-860.22 1292.04,-856.03 1292.52,-856.6 1293,-857.18 1287.97,-861.37 1294.54,-859.02 1287.14,-861.09"/>
</g>
<!-- sh_step_8&#45;&gt;sh_step_9 -->
<!-- sh_step_9&#45;&gt;car_bridge -->
<g id="edge35" class="edge">
<title>sh_step_9&#45;&gt;car_bridge</title>
<path fill="none" stroke="#6c5ce7" stroke-width="1.5" d="M718.63,-162.83C822.75,-163.46 1071.04,-170.12 1273,-216 1382.72,-240.93 1510,-192.48 1510,-305 1510,-739 1510,-739 1510,-739 1510,-789.48 1466.65,-832.26 1432.51,-858.12"/>
<polygon fill="#6c5ce7" stroke="#6c5ce7" stroke-width="1.5" points="1427.28,-861.98 1431.04,-855.29 1428.48,-860.78 1432.77,-857.62 1432.91,-857.82 1433.06,-858.02 1428.78,-861.19 1434.79,-860.35 1427.28,-861.98"/>
</g>
<!-- sh_step_9&#45;&gt;sh_step_10 -->
<!-- sh_step_10&#45;&gt;jenkins -->
<g id="edge38" class="edge">
<title>sh_step_10&#45;&gt;jenkins</title>
<path fill="none" stroke="#636e72" stroke-width="1.5" d="M713,-92.33C853.63,-96.86 1291.05,-113.13 1429,-144 1535.56,-167.85 1658,-123.81 1658,-233 1658,-739 1658,-739 1658,-739 1658,-790.92 1611.47,-833 1574.3,-858.32"/>
<polygon fill="#636e72" stroke="#636e72" stroke-width="1.5" points="1568.53,-862.15 1572.62,-855.66 1569.78,-861.02 1574.22,-858.07 1574.36,-858.28 1574.5,-858.49 1570.06,-861.43 1576.1,-860.91 1568.53,-862.15"/>
</g>
<!-- sh_step_10&#45;&gt;sh_step_11 -->
<!-- sh_step_11&#45;&gt;datastore -->
<g id="edge41" class="edge">
<title>sh_step_11&#45;&gt;datastore</title>
<path fill="none" stroke="#74b9ff" stroke-width="1.5" d="M594.85,-21.22C435.35,-28 74,-55.07 74,-161 74,-379 74,-379 74,-379 74,-648.3 422.49,-427.28 647,-576 754.57,-647.26 792.89,-672.27 841,-792 848.94,-811.75 849.47,-835.83 848.13,-854.48"/>
<polygon fill="#74b9ff" stroke="#74b9ff" stroke-width="1.5" points="847.51,-861.34 845.01,-854.08 847.41,-859.65 847.89,-854.35 848.14,-854.37 848.39,-854.39 847.91,-859.7 851.28,-854.65 847.51,-861.34"/>
</g>
</g>
</svg>
