<?xml version="1.0" encoding="UTF-8" standalone="no"?>
<!DOCTYPE svg PUBLIC "-//W3C//DTD SVG 1.1//EN"
 "http://www.w3.org/Graphics/SVG/1.1/DTD/svg11.dtd">
<!-- Generated by graphviz version 14.1.2 (20260124.0452)
 -->
<!-- Title: pr_state_machine Pages: 1 -->
<svg width="3855pt" height="2186pt"
 viewBox="0.00 0.00 3855.00 2186.00" xmlns="http://www.w3.org/2000/svg" xmlns:xlink="http://www.w3.org/1999/xlink">
<g id="graph0" class="graph" transform="scale(2.08333 2.08333) rotate(0) translate(43.2 1005.92)">
<title>pr_state_machine</title>
<polygon fill="#ffffff" stroke="none" points="-43.2,43.2 -43.2,-1005.92 1807.2,-1005.92 1807.2,43.2 -43.2,43.2"/>
<text xml:space="preserve" text-anchor="middle" x="882" y="-939.72" font-family="Helvetica Neue,Helvetica,Arial" font-size="20.00">PR Lifecycle State Machine — Self&#45;Healing Flow</text>
<g id="clust1" class="cluster">
<title>cluster_legend</title>
<path fill="#f8f9fa" stroke="#dee2e6" d="M1026,-769.03C1026,-769.03 1744,-769.03 1744,-769.03 1750,-769.03 1756,-775.03 1756,-781.03 1756,-781.03 1756,-910.72 1756,-910.72 1756,-916.72 1750,-922.72 1744,-922.72 1744,-922.72 1026,-922.72 1026,-922.72 1020,-922.72 1014,-916.72 1014,-910.72 1014,-910.72 1014,-781.03 1014,-781.03 1014,-775.03 1020,-769.03 1026,-769.03"/>
<text xml:space="preserve" text-anchor="middle" x="1042.25" y="-907.32" font-family="Helvetica Neue,Helvetica,Arial" font-size="12.00">Legend</text>
</g>
<!-- CREATED -->
<g id="node1" class="node">
<title>CREATED</title>
<path fill="#a29bfe" stroke="black" stroke-width="2" d="M753.75,-909C753.75,-909 694.25,-909 694.25,-909 688.25,-909 682.25,-903 682.25,-897 682.25,-897 682.25,-885 682.25,-885 682.25,-879 688.25,-873 694.25,-873 694.25,-873 753.75,-873 753.75,-873 759.75,-873 765.75,-879 765.75,-885 765.75,-885 765.75,-897 765.75,-897 765.75,-903 759.75,-909 753.75,-909"/>
<text xml:space="preserve" text-anchor="middle" x="724" y="-894.05" font-family="Helvetica Neue,Helvetica,Arial" font-size="11.00" fill="#ffffff">CREATED</text>
<text xml:space="preserve" text-anchor="middle" x="724" y="-880.55" font-family="Helvetica Neue,Helvetica,Arial" font-size="11.00" fill="#ffffff">⏱ stale: 5 min</text>
</g>
<!-- CHECKS_RUNNING -->
<g id="node2" class="node">
<title>CHECKS_RUNNING</title>
<path fill="#74b9ff" stroke="black" stroke-width="2" d="M531.75,-795.75C531.75,-795.75 436.25,-795.75 436.25,-795.75 430.25,-795.75 424.25,-789.75 424.25,-783.75 424.25,-783.75 424.25,-771.75 424.25,-771.75 424.25,-765.75 430.25,-759.75 436.25,-759.75 436.25,-759.75 531.75,-759.75 531.75,-759.75 537.75,-759.75 543.75,-765.75 543.75,-771.75 543.75,-771.75 543.75,-783.75 543.75,-783.75 543.75,-789.75 537.75,-795.75 531.75,-795.75"/>
<text xml:space="preserve" text-anchor="middle" x="484" y="-780.8" font-family="Helvetica Neue,Helvetica,Arial" font-size="11.00" fill="#ffffff">CHECKS_RUNNING</text>
<text xml:space="preserve" text-anchor="middle" x="484" y="-767.3" font-family="Helvetica Neue,Helvetica,Arial" font-size="11.00" fill="#ffffff">⏱ stale: 60 min</text>
</g>
<!-- CREATED&#45;&gt;CHECKS_RUNNING -->
<g id="edge1" class="edge">
<title>CREATED&#45;&gt;CHECKS_RUNNING</title>
<path fill="none" stroke="#0984e3" stroke-width="2.5" d="M685.17,-872C644.39,-853.1 580.07,-823.28 535.17,-802.47"/>
<polygon fill="#0984e3" stroke="#0984e3" stroke-width="2.5" points="536.75,-799.34 526.2,-798.31 533.8,-805.69 536.75,-799.34"/>
<text xml:space="preserve" text-anchor="middle" x="643.07" y="-831.45" font-family="Helvetica Neue,Helvetica,Arial" font-size="9.00" fill="#0984e3">CI checks begin</text>
</g>
<!-- CHECKS_PASSED -->
<g id="node3" class="node">
<title>CHECKS_PASSED</title>
<path fill="#55efc4" stroke="black" stroke-width="2" d="M389.25,-681.75C389.25,-681.75 302.75,-681.75 302.75,-681.75 296.75,-681.75 290.75,-675.75 290.75,-669.75 290.75,-669.75 290.75,-657.75 290.75,-657.75 290.75,-651.75 296.75,-645.75 302.75,-645.75 302.75,-645.75 389.25,-645.75 389.25,-645.75 395.25,-645.75 401.25,-651.75 401.25,-657.75 401.25,-657.75 401.25,-669.75 401.25,-669.75 401.25,-675.75 395.25,-681.75 389.25,-681.75"/>
<text xml:space="preserve" text-anchor="middle" x="346" y="-666.8" font-family="Helvetica Neue,Helvetica,Arial" font-size="11.00" fill="#2d3436">CHECKS_PASSED</text>
<text xml:space="preserve" text-anchor="middle" x="346" y="-653.3" font-family="Helvetica Neue,Helvetica,Arial" font-size="11.00" fill="#2d3436">waits for Policy Bot</text>
</g>
<!-- CHECKS_RUNNING&#45;&gt;CHECKS_PASSED -->
<g id="edge2" class="edge">
<title>CHECKS_RUNNING&#45;&gt;CHECKS_PASSED</title>
<path fill="none" stroke="#0984e3" stroke-width="2.5" d="M423.55,-764.76C400.81,-757.37 376.59,-745.55 360.5,-726.75 353.25,-718.28 349.47,-706.87 347.54,-696.14"/>
<polygon fill="#0984e3" stroke="#0984e3" stroke-width="2.5" points="351.05,-696.01 346.38,-686.5 344.09,-696.84 351.05,-696.01"/>
<text xml:space="preserve" text-anchor="middle" x="391.25" y="-717.83" font-family="Helvetica Neue,Helvetica,Arial" font-size="9.00" fill="#0984e3">All checks pass</text>
</g>
<!-- CHECKS_FAILED -->
<g id="node4" class="node">
<title>CHECKS_FAILED</title>
<path fill="#ff7675" stroke="black" stroke-width="2" d="M808.88,-681.75C808.88,-681.75 729.12,-681.75 729.12,-681.75 723.12,-681.75 717.12,-675.75 717.12,-669.75 717.12,-669.75 717.12,-657.75 717.12,-657.75 717.12,-651.75 723.12,-645.75 729.12,-645.75 729.12,-645.75 808.88,-645.75 808.88,-645.75 814.88,-645.75 820.88,-651.75 820.88,-657.75 820.88,-657.75 820.88,-669.75 820.88,-669.75 820.88,-675.75 814.88,-681.75 808.88,-681.75"/>
<text xml:space="preserve" text-anchor="middle" x="769" y="-666.8" font-family="Helvetica Neue,Helvetica,Arial" font-size="11.00" fill="#ffffff">CHECKS_FAILED</text>
<text xml:space="preserve" text-anchor="middle" x="769" y="-653.3" font-family="Helvetica Neue,Helvetica,Arial" font-size="11.00" fill="#ffffff">⏱ stale: 30 min</text>
</g>
<!-- CHECKS_RUNNING&#45;&gt;CHECKS_FAILED -->
<g id="edge8" class="edge">
<title>CHECKS_RUNNING&#45;&gt;CHECKS_FAILED</title>
<path fill="none" stroke="#d63031" stroke-width="1.5" d="M544.73,-774.06C593.68,-769.53 662.72,-757.64 715,-726.75 729.31,-718.3 741.77,-704.71 751.1,-692.41"/>
<polygon fill="#d63031" stroke="#d63031" stroke-width="1.5" points="753.89,-694.53 756.86,-684.37 748.19,-690.46 753.89,-694.53"/>
<text xml:space="preserve" text-anchor="middle" x="770.61" y="-717.83" font-family="Helvetica Neue,Helvetica,Arial" font-size="9.00" fill="#d63031">Check fails / timeout</text>
</g>
<!-- POLICY_EVALUATING -->
<g id="node5" class="node">
<title>POLICY_EVALUATING</title>
<path fill="#74b9ff" stroke="black" stroke-width="2" d="M362.62,-567.75C362.62,-567.75 209.38,-567.75 209.38,-567.75 203.38,-567.75 197.38,-561.75 197.38,-555.75 197.38,-555.75 197.38,-531.25 197.38,-531.25 197.38,-525.25 203.38,-519.25 209.38,-519.25 209.38,-519.25 362.62,-519.25 362.62,-519.25 368.62,-519.25 374.62,-525.25 374.62,-531.25 374.62,-531.25 374.62,-555.75 374.62,-555.75 374.62,-561.75 368.62,-567.75 362.62,-567.75"/>
<text xml:space="preserve" text-anchor="middle" x="286" y="-553.3" font-family="Helvetica Neue,Helvetica,Arial" font-size="11.00" fill="#ffffff">POLICY_EVALUATING</text>
<text xml:space="preserve" text-anchor="middle" x="286" y="-539.8" font-family="Helvetica Neue,Helvetica,Arial" font-size="11.00" fill="#ffffff">⏱ stale: 30 min</text>
<text xml:space="preserve" text-anchor="middle" x="286" y="-526.3" font-family="Helvetica Neue,Helvetica,Arial" font-size="11.00" fill="#ffffff">(can run at any pre&#45;merge stage)</text>
</g>
<!-- CHECKS_PASSED&#45;&gt;POLICY_EVALUATING -->
<g id="edge3" class="edge">
<title>CHECKS_PASSED&#45;&gt;POLICY_EVALUATING</title>
<path fill="none" stroke="#0984e3" stroke-width="2.5" d="M336.89,-644.79C328.27,-627.8 315.08,-601.82 304.29,-580.55"/>
<polygon fill="#0984e3" stroke="#0984e3" stroke-width="2.5" points="307.47,-579.07 299.82,-571.74 301.22,-582.24 307.47,-579.07"/>
<text xml:space="preserve" text-anchor="middle" x="360.09" y="-603.83" font-family="Helvetica Neue,Helvetica,Arial" font-size="9.00" fill="#0984e3">Policy Bot evaluates</text>
</g>
<!-- CHECKS_PASSED&#45;&gt;POLICY_EVALUATING -->
<g id="edge16" class="edge">
<title>CHECKS_PASSED&#45;&gt;POLICY_EVALUATING</title>
<path fill="none" stroke="#e17055" stroke-width="1.5" stroke-dasharray="5,2" d="M289.89,-661.83C252.72,-657.92 206.42,-646.04 181.75,-612.75 170.45,-597.49 179.15,-584.68 195.47,-574.42"/>
<polygon fill="#e17055" stroke="#e17055" stroke-width="1.5" points="196.82,-577.67 203.88,-569.77 193.43,-571.54 196.82,-577.67"/>
<text xml:space="preserve" text-anchor="middle" x="242.88" y="-604.2" font-family="Helvetica Neue,Helvetica,Arial" font-size="9.00" fill="#e17055">🔄 Retrigger Policy Bot (max 2)</text>
</g>
<!-- CHECKS_FAILED&#45;&gt;CHECKS_RUNNING -->
<g id="edge12" class="edge">
<title>CHECKS_FAILED&#45;&gt;CHECKS_RUNNING</title>
<path fill="none" stroke="#0984e3" stroke-width="1.5" stroke-dasharray="5,2" d="M716.27,-665.95C640.66,-668.92 507.23,-679.2 477.25,-714.75 469.77,-723.63 469.74,-735.94 472.23,-747.26"/>
<polygon fill="#0984e3" stroke="#0984e3" stroke-width="1.5" points="468.85,-748.17 475.04,-756.76 475.56,-746.18 468.85,-748.17"/>
<text xml:space="preserve" text-anchor="middle" x="513.62" y="-718.2" font-family="Helvetica Neue,Helvetica,Arial" font-size="9.00" fill="#0984e3">🔄 Rebuild (max 3)</text>
</g>
<!-- CHECKS_FAILED&#45;&gt;CHECKS_RUNNING -->
<g id="edge13" class="edge">
<title>CHECKS_FAILED&#45;&gt;CHECKS_RUNNING</title>
<path fill="none" stroke="#0984e3" stroke-width="1.5" stroke-dasharray="5,2" d="M716.24,-677.57C682.67,-686.43 638.6,-699.37 601,-714.75 574.49,-725.6 546.06,-740.57 523.87,-753.09"/>
<polygon fill="#0984e3" stroke="#0984e3" stroke-width="1.5" points="522.43,-749.88 515.48,-757.88 525.9,-755.96 522.43,-749.88"/>
<text xml:space="preserve" text-anchor="middle" x="652" y="-718.2" font-family="Helvetica Neue,Helvetica,Arial" font-size="9.00" fill="#0984e3">🔄 Update Branch (max 2)</text>
</g>
<!-- CLOSED -->
<g id="node11" class="node">
<title>CLOSED</title>
<path fill="#636e72" stroke="black" stroke-width="3" d="M771.12,-40C771.12,-40 680.88,-40 680.88,-40 674.88,-40 668.88,-34 668.88,-28 668.88,-28 668.88,-16 668.88,-16 668.88,-10 674.88,-4 680.88,-4 680.88,-4 771.12,-4 771.12,-4 777.12,-4 783.12,-10 783.12,-16 783.12,-16 783.12,-28 783.12,-28 783.12,-34 777.12,-40 771.12,-40"/>
<path fill="none" stroke="black" stroke-width="3" d="M775.12,-44C775.12,-44 676.88,-44 676.88,-44 670.88,-44 664.88,-38 664.88,-32 664.88,-32 664.88,-12 664.88,-12 664.88,-6 670.88,0 676.88,0 676.88,0 775.12,0 775.12,0 781.12,0 787.12,-6 787.12,-12 787.12,-12 787.12,-32 787.12,-32 787.12,-38 781.12,-44 775.12,-44"/>
<text xml:space="preserve" text-anchor="middle" x="726" y="-25.05" font-family="Helvetica Neue,Helvetica,Arial" font-size="11.00" fill="#ffffff">CLOSED</text>
<text xml:space="preserve" text-anchor="middle" x="726" y="-11.55" font-family="Helvetica Neue,Helvetica,Arial" font-size="11.00" fill="#ffffff">TTL: 24h soft&#45;delete</text>
</g>
<!-- CHECKS_FAILED&#45;&gt;CLOSED -->
<g id="edge14" class="edge">
<title>CHECKS_FAILED&#45;&gt;CLOSED</title>
<path fill="none" stroke="#6c5ce7" stroke-width="1.5" stroke-dasharray="5,2" d="M800.2,-644.91C830.84,-624.82 873,-589.06 873,-544.5 873,-544.5 873,-544.5 873,-138.25 873,-96.63 836.06,-67.78 799.21,-49.35"/>
<polygon fill="#6c5ce7" stroke="#6c5ce7" stroke-width="1.5" points="800.93,-46.29 790.39,-45.17 797.93,-52.61 800.93,-46.29"/>
<text xml:space="preserve" text-anchor="middle" x="910.88" y="-353.2" font-family="Helvetica Neue,Helvetica,Arial" font-size="9.00" fill="#6c5ce7">🔄 Close &amp; Reopen</text>
<text xml:space="preserve" text-anchor="middle" x="910.88" y="-341.2" font-family="Helvetica Neue,Helvetica,Arial" font-size="9.00" fill="#6c5ce7">(max 1 · conflicts)</text>
</g>
<!-- NEEDS_INTERVENTION -->
<g id="node12" class="node">
<title>NEEDS_INTERVENTION</title>
<path fill="#d63031" stroke="black" stroke-width="3" d="M781.25,-299.25C781.25,-299.25 670.75,-299.25 670.75,-299.25 664.75,-299.25 658.75,-293.25 658.75,-287.25 658.75,-287.25 658.75,-275.25 658.75,-275.25 658.75,-269.25 664.75,-263.25 670.75,-263.25 670.75,-263.25 781.25,-263.25 781.25,-263.25 787.25,-263.25 793.25,-269.25 793.25,-275.25 793.25,-275.25 793.25,-287.25 793.25,-287.25 793.25,-293.25 787.25,-299.25 781.25,-299.25"/>
<path fill="none" stroke="black" stroke-width="3" d="M785.25,-303.25C785.25,-303.25 666.75,-303.25 666.75,-303.25 660.75,-303.25 654.75,-297.25 654.75,-291.25 654.75,-291.25 654.75,-271.25 654.75,-271.25 654.75,-265.25 660.75,-259.25 666.75,-259.25 666.75,-259.25 785.25,-259.25 785.25,-259.25 791.25,-259.25 797.25,-265.25 797.25,-271.25 797.25,-271.25 797.25,-291.25 797.25,-291.25 797.25,-297.25 791.25,-303.25 785.25,-303.25"/>
<text xml:space="preserve" text-anchor="middle" x="726" y="-284.3" font-family="Helvetica Neue,Helvetica,Arial" font-size="11.00" fill="#ffffff">NEEDS INTERVENTION</text>
<text xml:space="preserve" text-anchor="middle" x="726" y="-270.8" font-family="Helvetica Neue,Helvetica,Arial" font-size="11.00" fill="#ffffff">awaits human</text>
</g>
<!-- CHECKS_FAILED&#45;&gt;NEEDS_INTERVENTION -->
<g id="edge23" class="edge">
<title>CHECKS_FAILED&#45;&gt;NEEDS_INTERVENTION</title>
<path fill="none" stroke="#9b1b1b" stroke-width="1.5" d="M766.98,-644.91C760.3,-585.76 738.79,-395.41 729.9,-316.75"/>
<polygon fill="#9b1b1b" stroke="#9b1b1b" stroke-width="1.5" points="733.39,-316.5 728.79,-306.95 726.44,-317.28 733.39,-316.5"/>
<text xml:space="preserve" text-anchor="middle" x="785.36" y="-477.7" font-family="Helvetica Neue,Helvetica,Arial" font-size="9.00" fill="#9b1b1b">Persistent failure /</text>
<text xml:space="preserve" text-anchor="middle" x="785.36" y="-466.45" font-family="Helvetica Neue,Helvetica,Arial" font-size="9.00" fill="#9b1b1b">budget exhausted</text>
</g>
<!-- POLICY_PASSED -->
<g id="node6" class="node">
<title>POLICY_PASSED</title>
<path fill="#55efc4" stroke="black" stroke-width="2" d="M181.25,-430.75C181.25,-430.75 100.75,-430.75 100.75,-430.75 94.75,-430.75 88.75,-424.75 88.75,-418.75 88.75,-418.75 88.75,-406.75 88.75,-406.75 88.75,-400.75 94.75,-394.75 100.75,-394.75 100.75,-394.75 181.25,-394.75 181.25,-394.75 187.25,-394.75 193.25,-400.75 193.25,-406.75 193.25,-406.75 193.25,-418.75 193.25,-418.75 193.25,-424.75 187.25,-430.75 181.25,-430.75"/>
<text xml:space="preserve" text-anchor="middle" x="141" y="-415.8" font-family="Helvetica Neue,Helvetica,Arial" font-size="11.00" fill="#2d3436">POLICY_PASSED</text>
<text xml:space="preserve" text-anchor="middle" x="141" y="-402.3" font-family="Helvetica Neue,Helvetica,Arial" font-size="11.00" fill="#2d3436">⏱ stale: 15 min</text>
</g>
<!-- POLICY_EVALUATING&#45;&gt;POLICY_PASSED -->
<g id="edge4" class="edge">
<title>POLICY_EVALUATING&#45;&gt;POLICY_PASSED</title>
<path fill="none" stroke="#0984e3" stroke-width="2.5" d="M196.74,-535.78C163.8,-528.45 129.59,-514.06 109.25,-486.25 99.52,-472.95 105.88,-456.19 115.38,-442.15"/>
<polygon fill="#0984e3" stroke="#0984e3" stroke-width="2.5" points="117.87,-444.66 121.14,-434.59 112.3,-440.42 117.87,-444.66"/>
<text xml:space="preserve" text-anchor="middle" x="139.62" y="-472.07" font-family="Helvetica Neue,Helvetica,Arial" font-size="9.00" fill="#0984e3">All policies met</text>
</g>
<!-- POLICY_FAILED -->
<g id="node7" class="node">
<title>POLICY_FAILED</title>
<path fill="#ff7675" stroke="black" stroke-width="2" d="M564.88,-430.75C564.88,-430.75 491.12,-430.75 491.12,-430.75 485.12,-430.75 479.12,-424.75 479.12,-418.75 479.12,-418.75 479.12,-406.75 479.12,-406.75 479.12,-400.75 485.12,-394.75 491.12,-394.75 491.12,-394.75 564.88,-394.75 564.88,-394.75 570.88,-394.75 576.88,-400.75 576.88,-406.75 576.88,-406.75 576.88,-418.75 576.88,-418.75 576.88,-424.75 570.88,-430.75 564.88,-430.75"/>
<text xml:space="preserve" text-anchor="middle" x="528" y="-409.05" font-family="Helvetica Neue,Helvetica,Arial" font-size="11.00" fill="#ffffff">POLICY_FAILED</text>
</g>
<!-- POLICY_EVALUATING&#45;&gt;POLICY_FAILED -->
<g id="edge9" class="edge">
<title>POLICY_EVALUATING&#45;&gt;POLICY_FAILED</title>
<path fill="none" stroke="#d63031" stroke-width="1.5" d="M247.99,-518.25C227.87,-502.44 210.15,-481.51 225.25,-463.75 254.82,-428.98 382.97,-438.24 428,-430.75 440.37,-428.69 453.61,-426.46 466.26,-424.32"/>
<polygon fill="#d63031" stroke="#d63031" stroke-width="1.5" points="466.65,-427.8 475.93,-422.67 465.48,-420.9 466.65,-427.8"/>
<text xml:space="preserve" text-anchor="middle" x="281.12" y="-477.7" font-family="Helvetica Neue,Helvetica,Arial" font-size="9.00" fill="#d63031">Policy violated</text>
<text xml:space="preserve" text-anchor="middle" x="281.12" y="-466.45" font-family="Helvetica Neue,Helvetica,Arial" font-size="9.00" fill="#d63031">(SOD · foreign commit · etc.)</text>
</g>
<!-- APPROVED -->
<g id="node8" class="node">
<title>APPROVED</title>
<path fill="#55efc4" stroke="black" stroke-width="2" d="M357.25,-305.5C357.25,-305.5 162.75,-305.5 162.75,-305.5 156.75,-305.5 150.75,-299.5 150.75,-293.5 150.75,-293.5 150.75,-269 150.75,-269 150.75,-263 156.75,-257 162.75,-257 162.75,-257 357.25,-257 357.25,-257 363.25,-257 369.25,-263 369.25,-269 369.25,-269 369.25,-293.5 369.25,-293.5 369.25,-299.5 363.25,-305.5 357.25,-305.5"/>
<text xml:space="preserve" text-anchor="middle" x="260" y="-291.05" font-family="Helvetica Neue,Helvetica,Arial" font-size="11.00" fill="#2d3436">APPROVED</text>
<text xml:space="preserve" text-anchor="middle" x="260" y="-277.55" font-family="Helvetica Neue,Helvetica,Arial" font-size="11.00" fill="#2d3436">⏱ stale: 10 min</text>
<text xml:space="preserve" text-anchor="middle" x="260" y="-264.05" font-family="Helvetica Neue,Helvetica,Arial" font-size="11.00" fill="#2d3436">(SOD checked here for 2&#45;approval repos)</text>
</g>
<!-- POLICY_PASSED&#45;&gt;APPROVED -->
<g id="edge5" class="edge">
<title>POLICY_PASSED&#45;&gt;APPROVED</title>
<path fill="none" stroke="#0984e3" stroke-width="2.5" d="M167.42,-393.92C179.58,-385.03 193.77,-373.65 205,-361.75 217.51,-348.49 229.3,-332.18 238.74,-317.79"/>
<polygon fill="#0984e3" stroke="#0984e3" stroke-width="2.5" points="241.62,-319.77 244.04,-309.45 235.72,-316.01 241.62,-319.77"/>
<text xml:space="preserve" text-anchor="middle" x="269.78" y="-347.2" font-family="Helvetica Neue,Helvetica,Arial" font-size="9.00" fill="#0984e3">Approver Bot approves</text>
</g>
<!-- POLICY_PASSED&#45;&gt;APPROVED -->
<g id="edge19" class="edge">
<title>POLICY_PASSED&#45;&gt;APPROVED</title>
<path fill="none" stroke="#e17055" stroke-width="1.5" stroke-dasharray="5,2" d="M106.79,-393.9C83.87,-379.55 60.4,-358.55 75.25,-338.5 90.74,-317.59 113.82,-304.19 138.46,-295.67"/>
<polygon fill="#e17055" stroke="#e17055" stroke-width="1.5" points="139.22,-299.1 147.71,-292.76 137.12,-292.42 139.22,-299.1"/>
<text xml:space="preserve" text-anchor="middle" x="134.12" y="-347.57" font-family="Helvetica Neue,Helvetica,Arial" font-size="9.00" fill="#e17055">🔄 Retrigger Approver (max 2)</text>
</g>
<!-- POLICY_FAILED&#45;&gt;POLICY_EVALUATING -->
<g id="edge17" class="edge">
<title>POLICY_FAILED&#45;&gt;POLICY_EVALUATING</title>
<path fill="none" stroke="#e17055" stroke-width="1.5" stroke-dasharray="5,2" d="M543.28,-431.49C554.93,-447.27 566.98,-470.26 554,-486.25 532.94,-512.19 454.21,-526.6 387.49,-534.33"/>
<polygon fill="#e17055" stroke="#e17055" stroke-width="1.5" points="387.43,-530.81 377.88,-535.39 388.2,-537.77 387.43,-530.81"/>
<text xml:space="preserve" text-anchor="middle" x="612.49" y="-472.45" font-family="Helvetica Neue,Helvetica,Arial" font-size="9.00" fill="#e17055">🔄 Retrigger Policy (max 2)</text>
</g>
<!-- POLICY_FAILED&#45;&gt;POLICY_EVALUATING -->
<g id="edge18" class="edge">
<title>POLICY_FAILED&#45;&gt;POLICY_EVALUATING</title>
<path fill="none" stroke="#e17055" stroke-width="1.5" stroke-dasharray="5,2" d="M494.37,-431.64C455.03,-452.57 389.29,-487.55 342.17,-512.62"/>
<polygon fill="#e17055" stroke="#e17055" stroke-width="1.5" points="340.71,-509.43 333.52,-517.22 343.99,-515.61 340.71,-509.43"/>
<text xml:space="preserve" text-anchor="middle" x="477.05" y="-472.45" font-family="Helvetica Neue,Helvetica,Arial" font-size="9.00" fill="#e17055">🔄 Recheck SOD (max 1)</text>
</g>
<!-- POLICY_FAILED&#45;&gt;CLOSED -->
<g id="edge22" class="edge">
<title>POLICY_FAILED&#45;&gt;CLOSED</title>
<path fill="none" stroke="#9b1b1b" stroke-width="1.5" d="M537.15,-393.78C568.03,-333.15 668.7,-135.5 709.05,-56.28"/>
<polygon fill="#9b1b1b" stroke="#9b1b1b" stroke-width="1.5" points="712.1,-58.01 713.52,-47.51 705.86,-54.83 712.1,-58.01"/>
<text xml:space="preserve" text-anchor="middle" x="696.54" y="-215.45" font-family="Helvetica Neue,Helvetica,Arial" font-size="9.00" fill="#9b1b1b">Permanent failure</text>
<text xml:space="preserve" text-anchor="middle" x="696.54" y="-204.2" font-family="Helvetica Neue,Helvetica,Arial" font-size="9.00" fill="#9b1b1b">(foreign commit · invalid file)</text>
<text xml:space="preserve" text-anchor="middle" x="696.54" y="-192.95" font-family="Helvetica Neue,Helvetica,Arial" font-size="9.00" fill="#9b1b1b">CodeGenie closes</text>
</g>
<!-- POLICY_FAILED&#45;&gt;NEEDS_INTERVENTION -->
<g id="edge24" class="edge">
<title>POLICY_FAILED&#45;&gt;NEEDS_INTERVENTION</title>
<path fill="none" stroke="#9b1b1b" stroke-width="1.5" d="M555.12,-394.02C587.78,-372.65 643.11,-336.47 681.93,-311.07"/>
<polygon fill="#9b1b1b" stroke="#9b1b1b" stroke-width="1.5" points="683.57,-314.18 690.02,-305.78 679.74,-308.33 683.57,-314.18"/>
<text xml:space="preserve" text-anchor="middle" x="674.85" y="-352.82" font-family="Helvetica Neue,Helvetica,Arial" font-size="9.00" fill="#9b1b1b">Unknown failure /</text>
<text xml:space="preserve" text-anchor="middle" x="674.85" y="-341.57" font-family="Helvetica Neue,Helvetica,Arial" font-size="9.00" fill="#9b1b1b">budget exhausted</text>
</g>
<!-- APPROVED&#45;&gt;POLICY_EVALUATING -->
<g id="edge21" class="edge">
<title>APPROVED&#45;&gt;POLICY_EVALUATING</title>
<path fill="none" stroke="#e17055" stroke-width="1.5" stroke-dasharray="5,2" d="M370.03,-295.8C422.07,-304.7 476.24,-318.47 492,-338.5 532.12,-389.51 397.31,-343.69 357.25,-394.75 347.37,-407.34 347.32,-418.2 357.25,-430.75 396.85,-480.79 457.4,-413.71 497,-463.75 503.21,-471.59 503.09,-478.32 497,-486.25 482.92,-504.58 434.39,-518.2 387.43,-527.45"/>
<polygon fill="#e17055" stroke="#e17055" stroke-width="1.5" points="386.94,-523.98 377.77,-529.29 388.25,-530.86 386.94,-523.98"/>
<text xml:space="preserve" text-anchor="middle" x="405.62" y="-415.82" font-family="Helvetica Neue,Helvetica,Arial" font-size="9.00" fill="#e17055">🔄 Recheck SOD (max 1)</text>
<text xml:space="preserve" text-anchor="middle" x="405.62" y="-403.82" font-family="Helvetica Neue,Helvetica,Arial" font-size="9.00" fill="#e17055">(2&#45;approval repos)</text>
</g>
<!-- MERGING -->
<g id="node9" class="node">
<title>MERGING</title>
<path fill="#74b9ff" stroke="black" stroke-width="2" d="M290.75,-157.25C290.75,-157.25 231.25,-157.25 231.25,-157.25 225.25,-157.25 219.25,-151.25 219.25,-145.25 219.25,-145.25 219.25,-133.25 219.25,-133.25 219.25,-127.25 225.25,-121.25 231.25,-121.25 231.25,-121.25 290.75,-121.25 290.75,-121.25 296.75,-121.25 302.75,-127.25 302.75,-133.25 302.75,-133.25 302.75,-145.25 302.75,-145.25 302.75,-151.25 296.75,-157.25 290.75,-157.25"/>
<text xml:space="preserve" text-anchor="middle" x="261" y="-142.3" font-family="Helvetica Neue,Helvetica,Arial" font-size="11.00" fill="#ffffff">MERGING</text>
<text xml:space="preserve" text-anchor="middle" x="261" y="-128.8" font-family="Helvetica Neue,Helvetica,Arial" font-size="11.00" fill="#ffffff">⏱ stale: 5 min</text>
</g>
<!-- APPROVED&#45;&gt;MERGING -->
<g id="edge6" class="edge">
<title>APPROVED&#45;&gt;MERGING</title>
<path fill="none" stroke="#0984e3" stroke-width="2.5" d="M260.17,-256.18C260.34,-232.92 260.59,-197.53 260.77,-171.97"/>
<polygon fill="#0984e3" stroke="#0984e3" stroke-width="2.5" points="264.27,-172.04 260.84,-162.01 257.27,-171.99 264.27,-172.04"/>
<text xml:space="preserve" text-anchor="middle" x="297.37" y="-204.2" font-family="Helvetica Neue,Helvetica,Arial" font-size="9.00" fill="#0984e3">Automerge begins</text>
</g>
<!-- APPROVED&#45;&gt;MERGING -->
<g id="edge20" class="edge">
<title>APPROVED&#45;&gt;MERGING</title>
<path fill="none" stroke="#e17055" stroke-width="1.5" stroke-dasharray="5,2" d="M171.51,-256.03C133.77,-241.01 102.54,-219.06 122.75,-190.25 141.63,-163.35 176.49,-150.86 206.48,-145.09"/>
<polygon fill="#e17055" stroke="#e17055" stroke-width="1.5" points="207.02,-148.55 216.31,-143.44 205.87,-141.64 207.02,-148.55"/>
<text xml:space="preserve" text-anchor="middle" x="185.38" y="-204.57" font-family="Helvetica Neue,Helvetica,Arial" font-size="9.00" fill="#e17055">🔄 Retrigger Automerge (max 2)</text>
</g>
<!-- MERGING&#45;&gt;CHECKS_RUNNING -->
<g id="edge10" class="edge">
<title>MERGING&#45;&gt;CHECKS_RUNNING</title>
<path fill="none" stroke="#e17055" stroke-width="1.5" stroke-dasharray="5,2" d="M218.48,-143.82C144.53,-152.6 0,-182.3 0,-280.25 0,-664.75 0,-664.75 0,-664.75 0,-748.18 276.41,-769.47 411.46,-774.9"/>
<polygon fill="#e17055" stroke="#e17055" stroke-width="1.5" points="411.29,-778.4 421.41,-775.28 411.55,-771.4 411.29,-778.4"/>
<text xml:space="preserve" text-anchor="middle" x="30.38" y="-477.7" font-family="Helvetica Neue,Helvetica,Arial" font-size="9.00" fill="#e17055">Branch behind</text>
<text xml:space="preserve" text-anchor="middle" x="30.38" y="-466.45" font-family="Helvetica Neue,Helvetica,Arial" font-size="9.00" fill="#e17055">→ auto&#45;update</text>
</g>
<!-- MERGED -->
<g id="node10" class="node">
<title>MERGED</title>
<path fill="#00b894" stroke="black" stroke-width="3" d="M306.12,-40C306.12,-40 215.88,-40 215.88,-40 209.88,-40 203.88,-34 203.88,-28 203.88,-28 203.88,-16 203.88,-16 203.88,-10 209.88,-4 215.88,-4 215.88,-4 306.12,-4 306.12,-4 312.12,-4 318.12,-10 318.12,-16 318.12,-16 318.12,-28 318.12,-28 318.12,-34 312.12,-40 306.12,-40"/>
<path fill="none" stroke="black" stroke-width="3" d="M310.12,-44C310.12,-44 211.88,-44 211.88,-44 205.88,-44 199.88,-38 199.88,-32 199.88,-32 199.88,-12 199.88,-12 199.88,-6 205.88,0 211.88,0 211.88,0 310.12,0 310.12,0 316.12,0 322.12,-6 322.12,-12 322.12,-12 322.12,-32 322.12,-32 322.12,-38 316.12,-44 310.12,-44"/>
<text xml:space="preserve" text-anchor="middle" x="261" y="-25.43" font-family="Helvetica Neue,Helvetica,Arial" font-size="11.00" fill="#ffffff">MERGED &#160;✓</text>
<text xml:space="preserve" text-anchor="middle" x="261" y="-11.18" font-family="Helvetica Neue,Helvetica,Arial" font-size="11.00" fill="#ffffff">TTL: 24h soft&#45;delete</text>
</g>
<!-- MERGING&#45;&gt;MERGED -->
<g id="edge7" class="edge">
<title>MERGING&#45;&gt;MERGED</title>
<path fill="none" stroke="#0984e3" stroke-width="2.5" d="M261,-120.75C261,-104.45 261,-79.66 261,-59.13"/>
<polygon fill="#0984e3" stroke="#0984e3" stroke-width="2.5" points="264.5,-59.21 261,-49.21 257.5,-59.21 264.5,-59.21"/>
<text xml:space="preserve" text-anchor="middle" x="293.25" y="-79.7" font-family="Helvetica Neue,Helvetica,Arial" font-size="9.00" fill="#0984e3">Merge succeeds</text>
</g>
<!-- MERGING&#45;&gt;CLOSED -->
<g id="edge11" class="edge">
<title>MERGING&#45;&gt;CLOSED</title>
<path fill="none" stroke="#d63031" stroke-width="1.5" d="M303.66,-125.57C347.71,-112.65 418.51,-92.39 480.25,-77 537.52,-62.72 602.79,-48.47 651.66,-38.2"/>
<polygon fill="#d63031" stroke="#d63031" stroke-width="1.5" points="652.11,-41.68 661.18,-36.21 650.68,-34.83 652.11,-41.68"/>
<text xml:space="preserve" text-anchor="middle" x="510.62" y="-79.7" font-family="Helvetica Neue,Helvetica,Arial" font-size="9.00" fill="#d63031">Merge conflicts</text>
</g>
<!-- CLOSED&#45;&gt;CREATED -->
<g id="edge15" class="edge">
<title>CLOSED&#45;&gt;CREATED</title>
<path fill="none" stroke="#6c5ce7" stroke-width="1.5" stroke-dasharray="5,2" d="M788.46,-25.04C863.67,-31.23 980,-54.35 980,-138.25 980,-778.75 980,-778.75 980,-778.75 980,-865.85 853.8,-885.49 778.61,-889.45"/>
<polygon fill="#6c5ce7" stroke="#6c5ce7" stroke-width="1.5" points="778.67,-885.95 768.83,-889.88 778.97,-892.94 778.67,-885.95"/>
<text xml:space="preserve" text-anchor="middle" x="1022.75" y="-477.7" font-family="Helvetica Neue,Helvetica,Arial" font-size="9.00" fill="#6c5ce7">New PR created</text>
<text xml:space="preserve" text-anchor="middle" x="1022.75" y="-466.45" font-family="Helvetica Neue,Helvetica,Arial" font-size="9.00" fill="#6c5ce7">for same vulnerability</text>
</g>
<!-- L1 -->
<g id="node13" class="node">
<title>L1</title>
</g>
<!-- LT1 -->
<g id="node19" class="node">
<title>LT1</title>
</g>
<!-- L1&#45;&gt;LT1 -->
<g id="edge25" class="edge">
<title>L1&#45;&gt;LT1</title>
<path fill="none" stroke="#0984e3" stroke-width="2.5" d="M1071.99,-889.92C1071.69,-888.28 1066.9,-861.66 1065.5,-840 1064.43,-823.46 1067.04,-804.5 1069.26,-792.11"/>
<polygon fill="#0984e3" stroke="#0984e3" stroke-width="2.5" points="1072.64,-793.05 1071.22,-782.56 1065.78,-791.65 1072.64,-793.05"/>
<text xml:space="preserve" text-anchor="middle" x="1088.75" y="-831.45" font-family="Helvetica Neue,Helvetica,Arial" font-size="9.00" fill="#0984e3">Happy path</text>
</g>
<!-- L2 -->
<g id="node14" class="node">
<title>L2</title>
</g>
<!-- LT2 -->
<g id="node20" class="node">
<title>LT2</title>
</g>
<!-- L2&#45;&gt;LT2 -->
<g id="edge26" class="edge">
<title>L2&#45;&gt;LT2</title>
<path fill="none" stroke="#d63031" stroke-width="1.5" d="M1173.98,-889.92C1173.66,-888.28 1168.51,-861.69 1167,-840 1165.8,-822.83 1168.87,-803.06 1171.32,-790.74"/>
<polygon fill="#d63031" stroke="#d63031" stroke-width="1.5" points="1174.72,-791.59 1173.48,-781.06 1167.88,-790.06 1174.72,-791.59"/>
<text xml:space="preserve" text-anchor="middle" x="1195.5" y="-831.45" font-family="Helvetica Neue,Helvetica,Arial" font-size="9.00" fill="#d63031">Failure branch</text>
</g>
<!-- L3 -->
<g id="node15" class="node">
<title>L3</title>
</g>
<!-- LT3 -->
<g id="node21" class="node">
<title>LT3</title>
</g>
<!-- L3&#45;&gt;LT3 -->
<g id="edge27" class="edge">
<title>L3&#45;&gt;LT3</title>
<path fill="none" stroke="#0984e3" stroke-width="1.5" stroke-dasharray="5,2" d="M1285.99,-889.92C1285.69,-888.28 1280.9,-861.66 1279.5,-840 1278.39,-822.84 1281.24,-803.07 1283.51,-790.74"/>
<polygon fill="#0984e3" stroke="#0984e3" stroke-width="1.5" points="1286.91,-791.57 1285.52,-781.07 1280.06,-790.15 1286.91,-791.57"/>
<text xml:space="preserve" text-anchor="middle" x="1331.25" y="-831.45" font-family="Helvetica Neue,Helvetica,Arial" font-size="9.00" fill="#0984e3">Self&#45;heal: rebuild / update</text>
</g>
<!-- L4 -->
<g id="node16" class="node">
<title>L4</title>
</g>
<!-- LT4 -->
<g id="node22" class="node">
<title>LT4</title>
</g>
<!-- L4&#45;&gt;LT4 -->
<g id="edge28" class="edge">
<title>L4&#45;&gt;LT4</title>
<path fill="none" stroke="#e17055" stroke-width="1.5" stroke-dasharray="5,2" d="M1444.98,-889.92C1444.66,-888.28 1439.51,-861.69 1438,-840 1436.8,-822.83 1439.87,-803.06 1442.32,-790.74"/>
<polygon fill="#e17055" stroke="#e17055" stroke-width="1.5" points="1445.72,-791.59 1444.48,-781.06 1438.88,-790.06 1445.72,-791.59"/>
<text xml:space="preserve" text-anchor="middle" x="1483" y="-831.45" font-family="Helvetica Neue,Helvetica,Arial" font-size="9.00" fill="#e17055">Self&#45;heal: bot retrigger</text>
</g>
<!-- L5 -->
<g id="node17" class="node">
<title>L5</title>
</g>
<!-- LT5 -->
<g id="node23" class="node">
<title>LT5</title>
</g>
<!-- L5&#45;&gt;LT5 -->
<g id="edge29" class="edge">
<title>L5&#45;&gt;LT5</title>
<path fill="none" stroke="#6c5ce7" stroke-width="1.5" stroke-dasharray="5,2" d="M1589.99,-889.92C1589.69,-888.28 1584.9,-861.66 1583.5,-840 1582.39,-822.84 1585.24,-803.07 1587.51,-790.74"/>
<polygon fill="#6c5ce7" stroke="#6c5ce7" stroke-width="1.5" points="1590.91,-791.57 1589.52,-781.07 1584.06,-790.15 1590.91,-791.57"/>
<text xml:space="preserve" text-anchor="middle" x="1614.25" y="-831.45" font-family="Helvetica Neue,Helvetica,Arial" font-size="9.00" fill="#6c5ce7">Close &amp; reopen</text>
</g>
<!-- L6 -->
<g id="node18" class="node">
<title>L6</title>
</g>
<!-- LT6 -->
<g id="node24" class="node">
<title>LT6</title>
</g>
<!-- L6&#45;&gt;LT6 -->
<g id="edge30" class="edge">
<title>L6&#45;&gt;LT6</title>
<path fill="none" stroke="#9b1b1b" stroke-width="1.5" d="M1707,-889.92C1707,-887.25 1707,-819.06 1707,-790.82"/>
<polygon fill="#9b1b1b" stroke="#9b1b1b" stroke-width="1.5" points="1710.5,-791.1 1707,-781.1 1703.5,-791.1 1710.5,-791.1"/>
<text xml:space="preserve" text-anchor="middle" x="1727.62" y="-831.45" font-family="Helvetica Neue,Helvetica,Arial" font-size="9.00" fill="#9b1b1b">Escalation</text>
</g>
</g>
</svg>
