<?xml version="1.0" encoding="UTF-8" standalone="no"?>
<!DOCTYPE svg PUBLIC "-//W3C//DTD SVG 1.1//EN"
 "http://www.w3.org/Graphics/SVG/1.1/DTD/svg11.dtd">
<!-- Generated by graphviz version 14.1.2 (20260124.0452)
 -->
<!-- Title: pr_state_machine Pages: 1 -->
<svg width="3865pt" height="2114pt"
 viewBox="0.00 0.00 3865.00 2114.00" xmlns="http://www.w3.org/2000/svg" xmlns:xlink="http://www.w3.org/1999/xlink">
<g id="graph0" class="graph" transform="scale(2.08333 2.08333) rotate(0) translate(43.2 971.67)">
<title>pr_state_machine</title>
<polygon fill="#ffffff" stroke="none" points="-43.2,43.2 -43.2,-971.67 1812.2,-971.67 1812.2,43.2 -43.2,43.2"/>
<text xml:space="preserve" text-anchor="middle" x="884.5" y="-905.47" font-family="Helvetica Neue,Helvetica,Arial" font-size="20.00">PR Lifecycle State Machine — Self&#45;Healing Flow</text>
<g id="clust1" class="cluster">
<title>cluster_legend</title>
<path fill="#f8f9fa" stroke="#dee2e6" d="M1031,-734.78C1031,-734.78 1749,-734.78 1749,-734.78 1755,-734.78 1761,-740.78 1761,-746.78 1761,-746.78 1761,-876.47 1761,-876.47 1761,-882.47 1755,-888.47 1749,-888.47 1749,-888.47 1031,-888.47 1031,-888.47 1025,-888.47 1019,-882.47 1019,-876.47 1019,-876.47 1019,-746.78 1019,-746.78 1019,-740.78 1025,-734.78 1031,-734.78"/>
<text xml:space="preserve" text-anchor="middle" x="1047.25" y="-873.07" font-family="Helvetica Neue,Helvetica,Arial" font-size="12.00">Legend</text>
</g>
<!-- CREATED -->
<g id="node1" class="node">
<title>CREATED</title>
<path fill="#a29bfe" stroke="black" stroke-width="2" d="M784.75,-874.75C784.75,-874.75 725.25,-874.75 725.25,-874.75 719.25,-874.75 713.25,-868.75 713.25,-862.75 713.25,-862.75 713.25,-850.75 713.25,-850.75 713.25,-844.75 719.25,-838.75 725.25,-838.75 725.25,-838.75 784.75,-838.75 784.75,-838.75 790.75,-838.75 796.75,-844.75 796.75,-850.75 796.75,-850.75 796.75,-862.75 796.75,-862.75 796.75,-868.75 790.75,-874.75 784.75,-874.75"/>
<text xml:space="preserve" text-anchor="middle" x="755" y="-859.8" font-family="Helvetica Neue,Helvetica,Arial" font-size="11.00" fill="#ffffff">CREATED</text>
<text xml:space="preserve" text-anchor="middle" x="755" y="-846.3" font-family="Helvetica Neue,Helvetica,Arial" font-size="11.00" fill="#ffffff">⏱ stale: 5 min</text>
</g>
<!-- CHECKS_RUNNING -->
<g id="node2" class="node">
<title>CHECKS_RUNNING</title>
<path fill="#74b9ff" stroke="black" stroke-width="2" d="M588.75,-761.5C588.75,-761.5 493.25,-761.5 493.25,-761.5 487.25,-761.5 481.25,-755.5 481.25,-749.5 481.25,-749.5 481.25,-737.5 481.25,-737.5 481.25,-731.5 487.25,-725.5 493.25,-725.5 493.25,-725.5 588.75,-725.5 588.75,-725.5 594.75,-725.5 600.75,-731.5 600.75,-737.5 600.75,-737.5 600.75,-749.5 600.75,-749.5 600.75,-755.5 594.75,-761.5 588.75,-761.5"/>
<text xml:space="preserve" text-anchor="middle" x="541" y="-746.55" font-family="Helvetica Neue,Helvetica,Arial" font-size="11.00" fill="#ffffff">CHECKS_RUNNING</text>
<text xml:space="preserve" text-anchor="middle" x="541" y="-733.05" font-family="Helvetica Neue,Helvetica,Arial" font-size="11.00" fill="#ffffff">⏱ stale: 60 min</text>
</g>
<!-- CREATED&#45;&gt;CHECKS_RUNNING -->
<g id="edge1" class="edge">
<title>CREATED&#45;&gt;CHECKS_RUNNING</title>
<path fill="none" stroke="#0984e3" stroke-width="2.5" d="M720.62,-837.88C684.5,-819.1 627.5,-789.47 587.41,-768.63"/>
<polygon fill="#0984e3" stroke="#0984e3" stroke-width="2.5" points="589.14,-765.58 578.65,-764.08 585.91,-771.79 589.14,-765.58"/>
<text xml:space="preserve" text-anchor="middle" x="686.29" y="-797.2" font-family="Helvetica Neue,Helvetica,Arial" font-size="9.00" fill="#0984e3">CI checks begin</text>
</g>
<!-- CHECKS_PASSED -->
<g id="node3" class="node">
<title>CHECKS_PASSED</title>
<path fill="#55efc4" stroke="black" stroke-width="2" d="M728.25,-647.5C728.25,-647.5 641.75,-647.5 641.75,-647.5 635.75,-647.5 629.75,-641.5 629.75,-635.5 629.75,-635.5 629.75,-623.5 629.75,-623.5 629.75,-617.5 635.75,-611.5 641.75,-611.5 641.75,-611.5 728.25,-611.5 728.25,-611.5 734.25,-611.5 740.25,-617.5 740.25,-623.5 740.25,-623.5 740.25,-635.5 740.25,-635.5 740.25,-641.5 734.25,-647.5 728.25,-647.5"/>
<text xml:space="preserve" text-anchor="middle" x="685" y="-632.55" font-family="Helvetica Neue,Helvetica,Arial" font-size="11.00" fill="#2d3436">CHECKS_PASSED</text>
<text xml:space="preserve" text-anchor="middle" x="685" y="-619.05" font-family="Helvetica Neue,Helvetica,Arial" font-size="11.00" fill="#2d3436">waits for Policy Bot</text>
</g>
<!-- CHECKS_RUNNING&#45;&gt;CHECKS_PASSED -->
<g id="edge2" class="edge">
<title>CHECKS_RUNNING&#45;&gt;CHECKS_PASSED</title>
<path fill="none" stroke="#0984e3" stroke-width="2.5" d="M564.14,-724.51C587.65,-706.22 624.33,-677.69 651.11,-656.86"/>
<polygon fill="#0984e3" stroke="#0984e3" stroke-width="2.5" points="653.19,-659.68 658.93,-650.77 648.89,-654.15 653.19,-659.68"/>
<text xml:space="preserve" text-anchor="middle" x="648.07" y="-683.58" font-family="Helvetica Neue,Helvetica,Arial" font-size="9.00" fill="#0984e3">All checks pass</text>
</g>
<!-- CHECKS_FAILED -->
<g id="node4" class="node">
<title>CHECKS_FAILED</title>
<path fill="#ff7675" stroke="black" stroke-width="2" d="M452.88,-647.5C452.88,-647.5 373.12,-647.5 373.12,-647.5 367.12,-647.5 361.12,-641.5 361.12,-635.5 361.12,-635.5 361.12,-623.5 361.12,-623.5 361.12,-617.5 367.12,-611.5 373.12,-611.5 373.12,-611.5 452.88,-611.5 452.88,-611.5 458.88,-611.5 464.88,-617.5 464.88,-623.5 464.88,-623.5 464.88,-635.5 464.88,-635.5 464.88,-641.5 458.88,-647.5 452.88,-647.5"/>
<text xml:space="preserve" text-anchor="middle" x="413" y="-632.55" font-family="Helvetica Neue,Helvetica,Arial" font-size="11.00" fill="#ffffff">CHECKS_FAILED</text>
<text xml:space="preserve" text-anchor="middle" x="413" y="-619.05" font-family="Helvetica Neue,Helvetica,Arial" font-size="11.00" fill="#ffffff">⏱ stale: 30 min</text>
</g>
<!-- CHECKS_RUNNING&#45;&gt;CHECKS_FAILED -->
<g id="edge8" class="edge">
<title>CHECKS_RUNNING&#45;&gt;CHECKS_FAILED</title>
<path fill="none" stroke="#d63031" stroke-width="1.5" d="M527.44,-724.56C517.14,-711.54 502.18,-693.93 487,-680.5 476.69,-671.38 464.62,-662.57 453.26,-654.95"/>
<polygon fill="#d63031" stroke="#d63031" stroke-width="1.5" points="455.29,-652.09 445,-649.55 451.46,-657.95 455.29,-652.09"/>
<text xml:space="preserve" text-anchor="middle" x="539.63" y="-683.58" font-family="Helvetica Neue,Helvetica,Arial" font-size="9.00" fill="#d63031">Check fails / timeout</text>
</g>
<!-- POLICY_EVALUATING -->
<g id="node5" class="node">
<title>POLICY_EVALUATING</title>
<path fill="#74b9ff" stroke="black" stroke-width="2" d="M746.25,-533.5C746.25,-533.5 641.75,-533.5 641.75,-533.5 635.75,-533.5 629.75,-527.5 629.75,-521.5 629.75,-521.5 629.75,-509.5 629.75,-509.5 629.75,-503.5 635.75,-497.5 641.75,-497.5 641.75,-497.5 746.25,-497.5 746.25,-497.5 752.25,-497.5 758.25,-503.5 758.25,-509.5 758.25,-509.5 758.25,-521.5 758.25,-521.5 758.25,-527.5 752.25,-533.5 746.25,-533.5"/>
<text xml:space="preserve" text-anchor="middle" x="694" y="-518.55" font-family="Helvetica Neue,Helvetica,Arial" font-size="11.00" fill="#ffffff">POLICY_EVALUATING</text>
<text xml:space="preserve" text-anchor="middle" x="694" y="-505.05" font-family="Helvetica Neue,Helvetica,Arial" font-size="11.00" fill="#ffffff">⏱ stale: 30 min</text>
</g>
<!-- CHECKS_PASSED&#45;&gt;POLICY_EVALUATING -->
<g id="edge3" class="edge">
<title>CHECKS_PASSED&#45;&gt;POLICY_EVALUATING</title>
<path fill="none" stroke="#0984e3" stroke-width="2.5" d="M686.45,-610.51C687.8,-593.69 689.84,-568.21 691.47,-548.02"/>
<polygon fill="#0984e3" stroke="#0984e3" stroke-width="2.5" points="694.94,-548.47 692.25,-538.22 687.96,-547.91 694.94,-548.47"/>
<text xml:space="preserve" text-anchor="middle" x="730.27" y="-569.58" font-family="Helvetica Neue,Helvetica,Arial" font-size="9.00" fill="#0984e3">Policy Bot evaluates</text>
</g>
<!-- CHECKS_PASSED&#45;&gt;POLICY_EVALUATING -->
<g id="edge16" class="edge">
<title>CHECKS_PASSED&#45;&gt;POLICY_EVALUATING</title>
<path fill="none" stroke="#e17055" stroke-width="1.5" stroke-dasharray="5,2" d="M628.88,-621.84C584.2,-614.07 532.56,-598.04 554.75,-566.5 569.29,-545.83 593.23,-533.66 617.19,-526.51"/>
<polygon fill="#e17055" stroke="#e17055" stroke-width="1.5" points="617.95,-529.93 626.72,-523.98 616.15,-523.17 617.95,-529.93"/>
<text xml:space="preserve" text-anchor="middle" x="615.88" y="-569.95" font-family="Helvetica Neue,Helvetica,Arial" font-size="9.00" fill="#e17055">🔄 Retrigger Policy Bot (max 2)</text>
</g>
<!-- CHECKS_FAILED&#45;&gt;CHECKS_RUNNING -->
<g id="edge12" class="edge">
<title>CHECKS_FAILED&#45;&gt;CHECKS_RUNNING</title>
<path fill="none" stroke="#0984e3" stroke-width="1.5" stroke-dasharray="5,2" d="M403.43,-648.33C397.74,-661.62 393.21,-679.63 402.25,-692.5 417.56,-714.29 443.34,-726.63 468.55,-733.6"/>
<polygon fill="#0984e3" stroke="#0984e3" stroke-width="1.5" points="467.69,-736.99 478.24,-735.98 469.36,-730.2 467.69,-736.99"/>
<text xml:space="preserve" text-anchor="middle" x="438.62" y="-683.95" font-family="Helvetica Neue,Helvetica,Arial" font-size="9.00" fill="#0984e3">🔄 Rebuild (max 3)</text>
</g>
<!-- CHECKS_FAILED&#45;&gt;CHECKS_RUNNING -->
<g id="edge13" class="edge">
<title>CHECKS_FAILED&#45;&gt;CHECKS_RUNNING</title>
<path fill="none" stroke="#0984e3" stroke-width="1.5" stroke-dasharray="5,2" d="M465.6,-634.47C556.58,-641.87 735.42,-658.99 754,-680.5 796.37,-729.53 691.04,-740.89 613.86,-742.92"/>
<polygon fill="#0984e3" stroke="#0984e3" stroke-width="1.5" points="613.93,-739.42 604.01,-743.13 614.08,-746.42 613.93,-739.42"/>
<text xml:space="preserve" text-anchor="middle" x="811.13" y="-683.95" font-family="Helvetica Neue,Helvetica,Arial" font-size="9.00" fill="#0984e3">🔄 Update Branch (max 2)</text>
</g>
<!-- CLOSED -->
<g id="node11" class="node">
<title>CLOSED</title>
<path fill="#636e72" stroke="black" stroke-width="3" d="M356.12,-40C356.12,-40 265.88,-40 265.88,-40 259.88,-40 253.88,-34 253.88,-28 253.88,-28 253.88,-16 253.88,-16 253.88,-10 259.88,-4 265.88,-4 265.88,-4 356.12,-4 356.12,-4 362.12,-4 368.12,-10 368.12,-16 368.12,-16 368.12,-28 368.12,-28 368.12,-34 362.12,-40 356.12,-40"/>
<path fill="none" stroke="black" stroke-width="3" d="M360.12,-44C360.12,-44 261.88,-44 261.88,-44 255.88,-44 249.88,-38 249.88,-32 249.88,-32 249.88,-12 249.88,-12 249.88,-6 255.88,0 261.88,0 261.88,0 360.12,0 360.12,0 366.12,0 372.12,-6 372.12,-12 372.12,-12 372.12,-32 372.12,-32 372.12,-38 366.12,-44 360.12,-44"/>
<text xml:space="preserve" text-anchor="middle" x="311" y="-25.05" font-family="Helvetica Neue,Helvetica,Arial" font-size="11.00" fill="#ffffff">CLOSED</text>
<text xml:space="preserve" text-anchor="middle" x="311" y="-11.55" font-family="Helvetica Neue,Helvetica,Arial" font-size="11.00" fill="#ffffff">TTL: 24h soft&#45;delete</text>
</g>
<!-- CHECKS_FAILED&#45;&gt;CLOSED -->
<g id="edge14" class="edge">
<title>CHECKS_FAILED&#45;&gt;CLOSED</title>
<path fill="none" stroke="#6c5ce7" stroke-width="1.5" stroke-dasharray="5,2" d="M380.45,-610.64C350.6,-591.6 311,-558.45 311,-516.5 311,-516.5 311,-516.5 311,-138.25 311,-111.03 311,-80.19 311,-57.26"/>
<polygon fill="#6c5ce7" stroke="#6c5ce7" stroke-width="1.5" points="314.5,-57.36 311,-47.36 307.5,-57.36 314.5,-57.36"/>
<text xml:space="preserve" text-anchor="middle" x="348.88" y="-331.45" font-family="Helvetica Neue,Helvetica,Arial" font-size="9.00" fill="#6c5ce7">🔄 Close &amp; Reopen</text>
<text xml:space="preserve" text-anchor="middle" x="348.88" y="-319.45" font-family="Helvetica Neue,Helvetica,Arial" font-size="9.00" fill="#6c5ce7">(max 1 · conflicts)</text>
</g>
<!-- NEEDS_INTERVENTION -->
<g id="node12" class="node">
<title>NEEDS_INTERVENTION</title>
<path fill="#d63031" stroke="black" stroke-width="3" d="M544.25,-277.5C544.25,-277.5 433.75,-277.5 433.75,-277.5 427.75,-277.5 421.75,-271.5 421.75,-265.5 421.75,-265.5 421.75,-253.5 421.75,-253.5 421.75,-247.5 427.75,-241.5 433.75,-241.5 433.75,-241.5 544.25,-241.5 544.25,-241.5 550.25,-241.5 556.25,-247.5 556.25,-253.5 556.25,-253.5 556.25,-265.5 556.25,-265.5 556.25,-271.5 550.25,-277.5 544.25,-277.5"/>
<path fill="none" stroke="black" stroke-width="3" d="M548.25,-281.5C548.25,-281.5 429.75,-281.5 429.75,-281.5 423.75,-281.5 417.75,-275.5 417.75,-269.5 417.75,-269.5 417.75,-249.5 417.75,-249.5 417.75,-243.5 423.75,-237.5 429.75,-237.5 429.75,-237.5 548.25,-237.5 548.25,-237.5 554.25,-237.5 560.25,-243.5 560.25,-249.5 560.25,-249.5 560.25,-269.5 560.25,-269.5 560.25,-275.5 554.25,-281.5 548.25,-281.5"/>
<text xml:space="preserve" text-anchor="middle" x="489" y="-262.55" font-family="Helvetica Neue,Helvetica,Arial" font-size="11.00" fill="#ffffff">NEEDS INTERVENTION</text>
<text xml:space="preserve" text-anchor="middle" x="489" y="-249.05" font-family="Helvetica Neue,Helvetica,Arial" font-size="11.00" fill="#ffffff">awaits human</text>
</g>
<!-- CHECKS_FAILED&#45;&gt;NEEDS_INTERVENTION -->
<g id="edge22" class="edge">
<title>CHECKS_FAILED&#45;&gt;NEEDS_INTERVENTION</title>
<path fill="none" stroke="#9b1b1b" stroke-width="1.5" d="M415.22,-610.65C419.48,-577.33 429.55,-503.46 442.25,-442 452.99,-390.04 469.02,-330.63 479.24,-294.35"/>
<polygon fill="#9b1b1b" stroke="#9b1b1b" stroke-width="1.5" points="482.48,-295.73 481.84,-285.16 475.75,-293.82 482.48,-295.73"/>
<text xml:space="preserve" text-anchor="middle" x="478.62" y="-455.95" font-family="Helvetica Neue,Helvetica,Arial" font-size="9.00" fill="#9b1b1b">Persistent failure /</text>
<text xml:space="preserve" text-anchor="middle" x="478.62" y="-444.7" font-family="Helvetica Neue,Helvetica,Arial" font-size="9.00" fill="#9b1b1b">budget exhausted</text>
</g>
<!-- POLICY_PASSED -->
<g id="node6" class="node">
<title>POLICY_PASSED</title>
<path fill="#55efc4" stroke="black" stroke-width="2" d="M862.25,-409C862.25,-409 781.75,-409 781.75,-409 775.75,-409 769.75,-403 769.75,-397 769.75,-397 769.75,-385 769.75,-385 769.75,-379 775.75,-373 781.75,-373 781.75,-373 862.25,-373 862.25,-373 868.25,-373 874.25,-379 874.25,-385 874.25,-385 874.25,-397 874.25,-397 874.25,-403 868.25,-409 862.25,-409"/>
<text xml:space="preserve" text-anchor="middle" x="822" y="-394.05" font-family="Helvetica Neue,Helvetica,Arial" font-size="11.00" fill="#2d3436">POLICY_PASSED</text>
<text xml:space="preserve" text-anchor="middle" x="822" y="-380.55" font-family="Helvetica Neue,Helvetica,Arial" font-size="11.00" fill="#2d3436">⏱ stale: 15 min</text>
</g>
<!-- POLICY_EVALUATING&#45;&gt;POLICY_PASSED -->
<g id="edge4" class="edge">
<title>POLICY_EVALUATING&#45;&gt;POLICY_PASSED</title>
<path fill="none" stroke="#0984e3" stroke-width="2.5" d="M758.96,-501.77C780.05,-494.39 801.47,-482.76 815,-464.5 823.6,-452.89 825.92,-437.19 825.85,-423.37"/>
<polygon fill="#0984e3" stroke="#0984e3" stroke-width="2.5" points="829.36,-423.46 825.29,-413.68 822.37,-423.87 829.36,-423.46"/>
<text xml:space="preserve" text-anchor="middle" x="854.4" y="-450.32" font-family="Helvetica Neue,Helvetica,Arial" font-size="9.00" fill="#0984e3">All policies met</text>
</g>
<!-- POLICY_FAILED -->
<g id="node7" class="node">
<title>POLICY_FAILED</title>
<path fill="#ff7675" stroke="black" stroke-width="2" d="M577.88,-409C577.88,-409 504.12,-409 504.12,-409 498.12,-409 492.12,-403 492.12,-397 492.12,-397 492.12,-385 492.12,-385 492.12,-379 498.12,-373 504.12,-373 504.12,-373 577.88,-373 577.88,-373 583.88,-373 589.88,-379 589.88,-385 589.88,-385 589.88,-397 589.88,-397 589.88,-403 583.88,-409 577.88,-409"/>
<text xml:space="preserve" text-anchor="middle" x="541" y="-387.3" font-family="Helvetica Neue,Helvetica,Arial" font-size="11.00" fill="#ffffff">POLICY_FAILED</text>
</g>
<!-- POLICY_EVALUATING&#45;&gt;POLICY_FAILED -->
<g id="edge9" class="edge">
<title>POLICY_EVALUATING&#45;&gt;POLICY_FAILED</title>
<path fill="none" stroke="#d63031" stroke-width="1.5" d="M629.03,-511.74C594.97,-506.58 555.93,-494.01 534.25,-464.5 525.33,-452.37 526.18,-435.83 529.63,-421.61"/>
<polygon fill="#d63031" stroke="#d63031" stroke-width="1.5" points="532.97,-422.64 532.5,-412.06 526.27,-420.63 532.97,-422.64"/>
<text xml:space="preserve" text-anchor="middle" x="590.12" y="-455.95" font-family="Helvetica Neue,Helvetica,Arial" font-size="9.00" fill="#d63031">Policy violated</text>
<text xml:space="preserve" text-anchor="middle" x="590.12" y="-444.7" font-family="Helvetica Neue,Helvetica,Arial" font-size="9.00" fill="#d63031">(SOD · foreign commit · etc.)</text>
</g>
<!-- APPROVED -->
<g id="node8" class="node">
<title>APPROVED</title>
<path fill="#55efc4" stroke="black" stroke-width="2" d="M883.25,-283.75C883.25,-283.75 688.75,-283.75 688.75,-283.75 682.75,-283.75 676.75,-277.75 676.75,-271.75 676.75,-271.75 676.75,-247.25 676.75,-247.25 676.75,-241.25 682.75,-235.25 688.75,-235.25 688.75,-235.25 883.25,-235.25 883.25,-235.25 889.25,-235.25 895.25,-241.25 895.25,-247.25 895.25,-247.25 895.25,-271.75 895.25,-271.75 895.25,-277.75 889.25,-283.75 883.25,-283.75"/>
<text xml:space="preserve" text-anchor="middle" x="786" y="-269.3" font-family="Helvetica Neue,Helvetica,Arial" font-size="11.00" fill="#2d3436">APPROVED</text>
<text xml:space="preserve" text-anchor="middle" x="786" y="-255.8" font-family="Helvetica Neue,Helvetica,Arial" font-size="11.00" fill="#2d3436">⏱ stale: 10 min</text>
<text xml:space="preserve" text-anchor="middle" x="786" y="-242.3" font-family="Helvetica Neue,Helvetica,Arial" font-size="11.00" fill="#2d3436">(SOD checked here for 2&#45;approval repos)</text>
</g>
<!-- POLICY_PASSED&#45;&gt;APPROVED -->
<g id="edge5" class="edge">
<title>POLICY_PASSED&#45;&gt;APPROVED</title>
<path fill="none" stroke="#0984e3" stroke-width="2.5" d="M817.07,-372.27C811.77,-353.18 803.17,-322.28 796.37,-297.8"/>
<polygon fill="#0984e3" stroke="#0984e3" stroke-width="2.5" points="799.77,-296.97 793.72,-288.27 793.03,-298.84 799.77,-296.97"/>
<text xml:space="preserve" text-anchor="middle" x="853.35" y="-325.45" font-family="Helvetica Neue,Helvetica,Arial" font-size="9.00" fill="#0984e3">Approver Bot approves</text>
</g>
<!-- POLICY_PASSED&#45;&gt;APPROVED -->
<g id="edge19" class="edge">
<title>POLICY_PASSED&#45;&gt;APPROVED</title>
<path fill="none" stroke="#e17055" stroke-width="1.5" stroke-dasharray="5,2" d="M768.84,-385.43C727.03,-381.89 667.32,-376.93 615,-373 561.28,-368.96 168.03,-379.37 131.25,-340 61.89,-265.75 483.84,-293.27 585,-283.75 610.55,-281.34 637.89,-278.42 663.91,-275.46"/>
<polygon fill="#e17055" stroke="#e17055" stroke-width="1.5" points="663.98,-278.98 673.51,-274.37 663.18,-272.03 663.98,-278.98"/>
<text xml:space="preserve" text-anchor="middle" x="190.12" y="-325.82" font-family="Helvetica Neue,Helvetica,Arial" font-size="9.00" fill="#e17055">🔄 Retrigger Approver (max 2)</text>
</g>
<!-- POLICY_FAILED&#45;&gt;POLICY_EVALUATING -->
<g id="edge17" class="edge">
<title>POLICY_FAILED&#45;&gt;POLICY_EVALUATING</title>
<path fill="none" stroke="#e17055" stroke-width="1.5" stroke-dasharray="5,2" d="M590.65,-406.05C612.01,-413.96 636.12,-425.63 654,-442 666.96,-453.88 676.67,-470.95 683.27,-485.55"/>
<polygon fill="#e17055" stroke="#e17055" stroke-width="1.5" points="679.93,-486.62 687.03,-494.48 686.38,-483.91 679.93,-486.62"/>
<text xml:space="preserve" text-anchor="middle" x="723.97" y="-450.7" font-family="Helvetica Neue,Helvetica,Arial" font-size="9.00" fill="#e17055">🔄 Retrigger Policy (max 2)</text>
</g>
<!-- POLICY_FAILED&#45;&gt;POLICY_EVALUATING -->
<g id="edge18" class="edge">
<title>POLICY_FAILED&#45;&gt;POLICY_EVALUATING</title>
<path fill="none" stroke="#e17055" stroke-width="1.5" stroke-dasharray="5,2" d="M590.52,-396.23C721.61,-407.47 1067.96,-437.56 1072,-442 1078.73,-449.4 1078.59,-456.98 1072,-464.5 1052.51,-486.74 876.09,-502.29 771.29,-509.66"/>
<polygon fill="#e17055" stroke="#e17055" stroke-width="1.5" points="771.19,-506.16 761.46,-510.34 771.68,-513.14 771.19,-506.16"/>
<text xml:space="preserve" text-anchor="middle" x="1125.37" y="-450.7" font-family="Helvetica Neue,Helvetica,Arial" font-size="9.00" fill="#e17055">🔄 Recheck SOD (max 1)</text>
</g>
<!-- POLICY_FAILED&#45;&gt;NEEDS_INTERVENTION -->
<g id="edge23" class="edge">
<title>POLICY_FAILED&#45;&gt;NEEDS_INTERVENTION</title>
<path fill="none" stroke="#9b1b1b" stroke-width="1.5" d="M533.88,-372.27C525.81,-352.17 512.48,-318.97 502.44,-293.97"/>
<polygon fill="#9b1b1b" stroke="#9b1b1b" stroke-width="1.5" points="505.77,-292.87 498.8,-284.9 499.27,-295.48 505.77,-292.87"/>
<text xml:space="preserve" text-anchor="middle" x="555.66" y="-331.07" font-family="Helvetica Neue,Helvetica,Arial" font-size="9.00" fill="#9b1b1b">Non&#45;SOD failure /</text>
<text xml:space="preserve" text-anchor="middle" x="555.66" y="-319.82" font-family="Helvetica Neue,Helvetica,Arial" font-size="9.00" fill="#9b1b1b">budget exhausted</text>
</g>
<!-- APPROVED&#45;&gt;POLICY_EVALUATING -->
<g id="edge21" class="edge">
<title>APPROVED&#45;&gt;POLICY_EVALUATING</title>
<path fill="none" stroke="#e17055" stroke-width="1.5" stroke-dasharray="5,2" d="M675.97,-273.51C646.44,-276.92 614.51,-280.55 585,-283.75 548.92,-287.67 284.33,-289.82 260,-316.75 208.29,-373.97 284.94,-424.7 351,-464.5 394.46,-490.68 529.51,-504.07 616.61,-510.15"/>
<polygon fill="#e17055" stroke="#e17055" stroke-width="1.5" points="616.36,-513.64 626.57,-510.83 616.83,-506.66 616.36,-513.64"/>
<text xml:space="preserve" text-anchor="middle" x="320.49" y="-394.07" font-family="Helvetica Neue,Helvetica,Arial" font-size="9.00" fill="#e17055">🔄 Recheck SOD (max 1)</text>
<text xml:space="preserve" text-anchor="middle" x="320.49" y="-382.07" font-family="Helvetica Neue,Helvetica,Arial" font-size="9.00" fill="#e17055">(2&#45;approval repos)</text>
</g>
<!-- MERGING -->
<g id="node9" class="node">
<title>MERGING</title>
<path fill="#74b9ff" stroke="black" stroke-width="2" d="M156.75,-157.25C156.75,-157.25 97.25,-157.25 97.25,-157.25 91.25,-157.25 85.25,-151.25 85.25,-145.25 85.25,-145.25 85.25,-133.25 85.25,-133.25 85.25,-127.25 91.25,-121.25 97.25,-121.25 97.25,-121.25 156.75,-121.25 156.75,-121.25 162.75,-121.25 168.75,-127.25 168.75,-133.25 168.75,-133.25 168.75,-145.25 168.75,-145.25 168.75,-151.25 162.75,-157.25 156.75,-157.25"/>
<text xml:space="preserve" text-anchor="middle" x="127" y="-142.3" font-family="Helvetica Neue,Helvetica,Arial" font-size="11.00" fill="#ffffff">MERGING</text>
<text xml:space="preserve" text-anchor="middle" x="127" y="-128.8" font-family="Helvetica Neue,Helvetica,Arial" font-size="11.00" fill="#ffffff">⏱ stale: 5 min</text>
</g>
<!-- APPROVED&#45;&gt;MERGING -->
<g id="edge6" class="edge">
<title>APPROVED&#45;&gt;MERGING</title>
<path fill="none" stroke="#0984e3" stroke-width="2.5" d="M676.07,-238.77C533.99,-213.28 291.94,-169.85 183.02,-150.3"/>
<polygon fill="#0984e3" stroke="#0984e3" stroke-width="2.5" points="183.67,-146.86 173.21,-148.54 182.43,-153.75 183.67,-146.86"/>
<text xml:space="preserve" text-anchor="middle" x="493.25" y="-193.32" font-family="Helvetica Neue,Helvetica,Arial" font-size="9.00" fill="#0984e3">Automerge begins</text>
</g>
<!-- APPROVED&#45;&gt;MERGING -->
<g id="edge20" class="edge">
<title>APPROVED&#45;&gt;MERGING</title>
<path fill="none" stroke="#e17055" stroke-width="1.5" stroke-dasharray="5,2" d="M675.96,-245.62C646.42,-242.21 614.5,-238.55 585,-235.25 449.39,-220.08 412.08,-235.56 279.75,-202.25 243.08,-193.02 203.58,-176.8 173.93,-163.27"/>
<polygon fill="#e17055" stroke="#e17055" stroke-width="1.5" points="175.68,-160.22 165.13,-159.19 172.73,-166.57 175.68,-160.22"/>
<text xml:space="preserve" text-anchor="middle" x="342.38" y="-193.7" font-family="Helvetica Neue,Helvetica,Arial" font-size="9.00" fill="#e17055">🔄 Retrigger Automerge (max 2)</text>
</g>
<!-- MERGING&#45;&gt;CHECKS_RUNNING -->
<g id="edge10" class="edge">
<title>MERGING&#45;&gt;CHECKS_RUNNING</title>
<path fill="none" stroke="#e17055" stroke-width="1.5" stroke-dasharray="5,2" d="M85.06,-158.22C48.07,-177.23 0,-211.05 0,-258.5 0,-630.5 0,-630.5 0,-630.5 0,-725.02 320.64,-740.38 468.23,-742.45"/>
<polygon fill="#e17055" stroke="#e17055" stroke-width="1.5" points="467.94,-745.95 477.98,-742.57 468.03,-738.95 467.94,-745.95"/>
<text xml:space="preserve" text-anchor="middle" x="30.38" y="-455.95" font-family="Helvetica Neue,Helvetica,Arial" font-size="9.00" fill="#e17055">Branch behind</text>
<text xml:space="preserve" text-anchor="middle" x="30.38" y="-444.7" font-family="Helvetica Neue,Helvetica,Arial" font-size="9.00" fill="#e17055">→ auto&#45;update</text>
</g>
<!-- MERGED -->
<g id="node10" class="node">
<title>MERGED</title>
<path fill="#00b894" stroke="black" stroke-width="3" d="M144.12,-40C144.12,-40 53.87,-40 53.87,-40 47.88,-40 41.87,-34 41.87,-28 41.87,-28 41.87,-16 41.87,-16 41.87,-10 47.87,-4 53.87,-4 53.87,-4 144.12,-4 144.12,-4 150.12,-4 156.12,-10 156.12,-16 156.12,-16 156.12,-28 156.12,-28 156.12,-34 150.12,-40 144.12,-40"/>
<path fill="none" stroke="black" stroke-width="3" d="M148.12,-44C148.12,-44 49.88,-44 49.88,-44 43.88,-44 37.87,-38 37.87,-32 37.87,-32 37.87,-12 37.87,-12 37.87,-6 43.87,0 49.87,0 49.87,0 148.12,0 148.12,0 154.12,0 160.12,-6 160.12,-12 160.12,-12 160.12,-32 160.12,-32 160.12,-38 154.12,-44 148.12,-44"/>
<text xml:space="preserve" text-anchor="middle" x="99" y="-25.43" font-family="Helvetica Neue,Helvetica,Arial" font-size="11.00" fill="#ffffff">MERGED &#160;✓</text>
<text xml:space="preserve" text-anchor="middle" x="99" y="-11.18" font-family="Helvetica Neue,Helvetica,Arial" font-size="11.00" fill="#ffffff">TTL: 24h soft&#45;delete</text>
</g>
<!-- MERGING&#45;&gt;MERGED -->
<g id="edge7" class="edge">
<title>MERGING&#45;&gt;MERGED</title>
<path fill="none" stroke="#0984e3" stroke-width="2.5" d="M110.96,-120.68C103.82,-111.68 96.2,-100.13 92.5,-88.25 89.61,-78.98 89.37,-68.63 90.33,-58.97"/>
<polygon fill="#0984e3" stroke="#0984e3" stroke-width="2.5" points="93.77,-59.65 91.85,-49.23 86.85,-58.57 93.77,-59.65"/>
<text xml:space="preserve" text-anchor="middle" x="124.75" y="-79.7" font-family="Helvetica Neue,Helvetica,Arial" font-size="9.00" fill="#0984e3">Merge succeeds</text>
</g>
<!-- MERGING&#45;&gt;CLOSED -->
<g id="edge11" class="edge">
<title>MERGING&#45;&gt;CLOSED</title>
<path fill="none" stroke="#d63031" stroke-width="1.5" d="M150.35,-120.29C167.18,-107.63 190.66,-90.59 212.25,-77 226.49,-68.04 242.32,-59 257.06,-50.94"/>
<polygon fill="#d63031" stroke="#d63031" stroke-width="1.5" points="258.43,-54.18 265.57,-46.35 255.11,-48.02 258.43,-54.18"/>
<text xml:space="preserve" text-anchor="middle" x="242.62" y="-79.7" font-family="Helvetica Neue,Helvetica,Arial" font-size="9.00" fill="#d63031">Merge conflicts</text>
</g>
<!-- CLOSED&#45;&gt;CREATED -->
<g id="edge15" class="edge">
<title>CLOSED&#45;&gt;CREATED</title>
<path fill="none" stroke="#6c5ce7" stroke-width="1.5" stroke-dasharray="5,2" d="M373.5,-27.15C540.59,-39.06 985,-76.56 985,-138.25 985,-744.5 985,-744.5 985,-744.5 985,-821.96 877.97,-845.51 809.94,-852.65"/>
<polygon fill="#6c5ce7" stroke="#6c5ce7" stroke-width="1.5" points="809.61,-849.17 799.98,-853.59 810.27,-856.14 809.61,-849.17"/>
<text xml:space="preserve" text-anchor="middle" x="1027.75" y="-455.95" font-family="Helvetica Neue,Helvetica,Arial" font-size="9.00" fill="#6c5ce7">New PR created</text>
<text xml:space="preserve" text-anchor="middle" x="1027.75" y="-444.7" font-family="Helvetica Neue,Helvetica,Arial" font-size="9.00" fill="#6c5ce7">for same vulnerability</text>
</g>
<!-- L1 -->
<g id="node13" class="node">
<title>L1</title>
</g>
<!-- LT1 -->
<g id="node19" class="node">
<title>LT1</title>
</g>
<!-- L1&#45;&gt;LT1 -->
<g id="edge24" class="edge">
<title>L1&#45;&gt;LT1</title>
<path fill="none" stroke="#0984e3" stroke-width="2.5" d="M1076.99,-855.67C1076.69,-854.03 1071.9,-827.41 1070.5,-805.75 1069.43,-789.21 1072.04,-770.25 1074.26,-757.86"/>
<polygon fill="#0984e3" stroke="#0984e3" stroke-width="2.5" points="1077.64,-758.8 1076.22,-748.31 1070.78,-757.4 1077.64,-758.8"/>
<text xml:space="preserve" text-anchor="middle" x="1093.75" y="-797.2" font-family="Helvetica Neue,Helvetica,Arial" font-size="9.00" fill="#0984e3">Happy path</text>
</g>
<!-- L2 -->
<g id="node14" class="node">
<title>L2</title>
</g>
<!-- LT2 -->
<g id="node20" class="node">
<title>LT2</title>
</g>
<!-- L2&#45;&gt;LT2 -->
<g id="edge25" class="edge">
<title>L2&#45;&gt;LT2</title>
<path fill="none" stroke="#d63031" stroke-width="1.5" d="M1178.98,-855.67C1178.66,-854.03 1173.51,-827.44 1172,-805.75 1170.8,-788.58 1173.87,-768.81 1176.32,-756.49"/>
<polygon fill="#d63031" stroke="#d63031" stroke-width="1.5" points="1179.72,-757.34 1178.48,-746.81 1172.88,-755.81 1179.72,-757.34"/>
<text xml:space="preserve" text-anchor="middle" x="1200.5" y="-797.2" font-family="Helvetica Neue,Helvetica,Arial" font-size="9.00" fill="#d63031">Failure branch</text>
</g>
<!-- L3 -->
<g id="node15" class="node">
<title>L3</title>
</g>
<!-- LT3 -->
<g id="node21" class="node">
<title>LT3</title>
</g>
<!-- L3&#45;&gt;LT3 -->
<g id="edge26" class="edge">
<title>L3&#45;&gt;LT3</title>
<path fill="none" stroke="#0984e3" stroke-width="1.5" stroke-dasharray="5,2" d="M1290.99,-855.67C1290.69,-854.03 1285.9,-827.41 1284.5,-805.75 1283.39,-788.59 1286.24,-768.82 1288.51,-756.49"/>
<polygon fill="#0984e3" stroke="#0984e3" stroke-width="1.5" points="1291.91,-757.32 1290.52,-746.82 1285.06,-755.9 1291.91,-757.32"/>
<text xml:space="preserve" text-anchor="middle" x="1336.25" y="-797.2" font-family="Helvetica Neue,Helvetica,Arial" font-size="9.00" fill="#0984e3">Self&#45;heal: rebuild / update</text>
</g>
<!-- L4 -->
<g id="node16" class="node">
<title>L4</title>
</g>
<!-- LT4 -->
<g id="node22" class="node">
<title>LT4</title>
</g>
<!-- L4&#45;&gt;LT4 -->
<g id="edge27" class="edge">
<title>L4&#45;&gt;LT4</title>
<path fill="none" stroke="#e17055" stroke-width="1.5" stroke-dasharray="5,2" d="M1449.98,-855.67C1449.66,-854.03 1444.51,-827.44 1443,-805.75 1441.8,-788.58 1444.87,-768.81 1447.32,-756.49"/>
<polygon fill="#e17055" stroke="#e17055" stroke-width="1.5" points="1450.72,-757.34 1449.48,-746.81 1443.88,-755.81 1450.72,-757.34"/>
<text xml:space="preserve" text-anchor="middle" x="1488" y="-797.2" font-family="Helvetica Neue,Helvetica,Arial" font-size="9.00" fill="#e17055">Self&#45;heal: bot retrigger</text>
</g>
<!-- L5 -->
<g id="node17" class="node">
<title>L5</title>
</g>
<!-- LT5 -->
<g id="node23" class="node">
<title>LT5</title>
</g>
<!-- L5&#45;&gt;LT5 -->
<g id="edge28" class="edge">
<title>L5&#45;&gt;LT5</title>
<path fill="none" stroke="#6c5ce7" stroke-width="1.5" stroke-dasharray="5,2" d="M1594.99,-855.67C1594.69,-854.03 1589.9,-827.41 1588.5,-805.75 1587.39,-788.59 1590.24,-768.82 1592.51,-756.49"/>
<polygon fill="#6c5ce7" stroke="#6c5ce7" stroke-width="1.5" points="1595.91,-757.32 1594.52,-746.82 1589.06,-755.9 1595.91,-757.32"/>
<text xml:space="preserve" text-anchor="middle" x="1619.25" y="-797.2" font-family="Helvetica Neue,Helvetica,Arial" font-size="9.00" fill="#6c5ce7">Close &amp; reopen</text>
</g>
<!-- L6 -->
<g id="node18" class="node">
<title>L6</title>
</g>
<!-- LT6 -->
<g id="node24" class="node">
<title>LT6</title>
</g>
<!-- L6&#45;&gt;LT6 -->
<g id="edge29" class="edge">
<title>L6&#45;&gt;LT6</title>
<path fill="none" stroke="#9b1b1b" stroke-width="1.5" d="M1712,-855.67C1712,-853 1712,-784.81 1712,-756.57"/>
<polygon fill="#9b1b1b" stroke="#9b1b1b" stroke-width="1.5" points="1715.5,-756.85 1712,-746.85 1708.5,-756.85 1715.5,-756.85"/>
<text xml:space="preserve" text-anchor="middle" x="1732.62" y="-797.2" font-family="Helvetica Neue,Helvetica,Arial" font-size="9.00" fill="#9b1b1b">Escalation</text>
</g>
</g>
</svg>
